<?xml version="1.0" encoding="UTF-8" standalone="no"?>
<!DOCTYPE svg PUBLIC "-//W3C//DTD SVG 1.1//EN"
 "http://www.w3.org/Graphics/SVG/1.1/DTD/svg11.dtd">
<!-- Generated by graphviz version 2.43.0 (0)
 -->
<!-- Title: srcs/autoindex/autoIndex.cpp Pages: 1 -->
<svg width="1490pt" height="412pt"
 viewBox="0.00 0.00 1490.24 412.00" xmlns="http://www.w3.org/2000/svg" xmlns:xlink="http://www.w3.org/1999/xlink">
<g id="graph0" class="graph" transform="scale(1 1) rotate(0) translate(4 408)">
<title>srcs/autoindex/autoIndex.cpp</title>
<!-- Node1 -->
<g id="Node000001" class="node">
<title>Node1</title>
<g id="a_Node000001"><a xlink:title=" ">
<polygon fill="#999999" stroke="#666666" points="1119.24,-404 959.24,-404 959.24,-385 1119.24,-385 1119.24,-404"/>
<text text-anchor="middle" x="1039.24" y="-392" font-family="Helvetica,sans-Serif" font-size="10.00">srcs/autoindex/autoIndex.cpp</text>
</a>
</g>
</g>
<!-- Node2 -->
<g id="Node000002" class="node">
<title>Node2</title>
<g id="a_Node000002"><a xlink:href="../../d5/dbd/autoIndex_8hpp.html" target="_top" xlink:title=" ">
<polygon fill="white" stroke="#666666" points="243.24,-239 95.24,-239 95.24,-220 243.24,-220 243.24,-239"/>
<text text-anchor="middle" x="169.24" y="-227" font-family="Helvetica,sans-Serif" font-size="10.00">../../includes/autoIndex.hpp</text>
</a>
</g>
</g>
<!-- Node1&#45;&gt;Node2 -->
<g id="edge1_Node000001_Node000002" class="edge">
<title>Node1&#45;&gt;Node2</title>
<g id="a_edge1_Node000001_Node000002"><a xlink:title=" ">
<path fill="none" stroke="#63b8ff" d="M989.42,-384.94C892.18,-368.15 670.31,-329.43 484.24,-294 390.79,-276.21 282.08,-253.95 219.9,-241.06"/>
<polygon fill="#63b8ff" stroke="#63b8ff" points="220.46,-237.6 209.96,-239 219.04,-244.46 220.46,-237.6"/>
</a>
</g>
</g>
<!-- Node20 -->
<g id="Node000020" class="node">
<title>Node20</title>
<g id="a_Node000020"><a xlink:href="../../df/d95/colors_8hpp.html" target="_top" xlink:title=" ">
<polygon fill="white" stroke="#666666" points="1482.24,-294 1354.24,-294 1354.24,-275 1482.24,-275 1482.24,-294"/>
<text text-anchor="middle" x="1418.24" y="-282" font-family="Helvetica,sans-Serif" font-size="10.00">../../includes/colors.hpp</text>
</a>
</g>
</g>
<!-- Node1&#45;&gt;Node20 -->
<g id="edge30_Node000001_Node000020" class="edge">
<title>Node1&#45;&gt;Node20</title>
<g id="a_edge30_Node000001_Node000020"><a xlink:title=" ">
<path fill="none" stroke="#63b8ff" d="M1069.29,-384.94C1137.15,-365.6 1302.24,-318.55 1378.46,-296.83"/>
<polygon fill="#63b8ff" stroke="#63b8ff" points="1379.52,-300.17 1388.18,-294.07 1377.6,-293.44 1379.52,-300.17"/>
</a>
</g>
</g>
<!-- Node21 -->
<g id="Node000021" class="node">
<title>Node21</title>
<g id="a_Node000021"><a xlink:href="../../df/d93/utils_8hpp.html" target="_top" xlink:title=" ">
<polygon fill="white" stroke="#666666" points="1099.24,-349 979.24,-349 979.24,-330 1099.24,-330 1099.24,-349"/>
<text text-anchor="middle" x="1039.24" y="-337" font-family="Helvetica,sans-Serif" font-size="10.00">../../includes/utils.hpp</text>
</a>
</g>
</g>
<!-- Node1&#45;&gt;Node21 -->
<g id="edge31_Node000001_Node000021" class="edge">
<title>Node1&#45;&gt;Node21</title>
<g id="a_edge31_Node000001_Node000021"><a xlink:title=" ">
<path fill="none" stroke="#63b8ff" d="M1039.24,-384.75C1039.24,-377.8 1039.24,-367.85 1039.24,-359.13"/>
<polygon fill="#63b8ff" stroke="#63b8ff" points="1042.74,-359.09 1039.24,-349.09 1035.74,-359.09 1042.74,-359.09"/>
</a>
</g>
</g>
<!-- Node3 -->
<g id="Node000003" class="node">
<title>Node3</title>
<g id="a_Node000003"><a xlink:title=" ">
<polygon fill="#e0e0e0" stroke="#999999" points="123.74,-129 68.74,-129 68.74,-110 123.74,-110 123.74,-129"/>
<text text-anchor="middle" x="96.24" y="-117" font-family="Helvetica,sans-Serif" font-size="10.00">fstream</text>
</a>
</g>
</g>
<!-- Node2&#45;&gt;Node3 -->
<g id="edge2_Node000002_Node000003" class="edge">
<title>Node2&#45;&gt;Node3</title>
<g id="a_edge2_Node000002_Node000003"><a xlink:title=" ">
<path fill="none" stroke="#63b8ff" d="M163.26,-219.66C151.17,-201.77 123.61,-161 107.86,-137.69"/>
<polygon fill="#63b8ff" stroke="#63b8ff" points="110.59,-135.48 102.09,-129.16 104.79,-139.4 110.59,-135.48"/>
</a>
</g>
</g>
<!-- Node4 -->
<g id="Node000004" class="node">
<title>Node4</title>
<g id="a_Node000004"><a xlink:title=" ">
<polygon fill="#e0e0e0" stroke="#999999" points="322.24,-19 278.24,-19 278.24,0 322.24,0 322.24,-19"/>
<text text-anchor="middle" x="300.24" y="-7" font-family="Helvetica,sans-Serif" font-size="10.00">string</text>
</a>
</g>
</g>
<!-- Node2&#45;&gt;Node4 -->
<g id="edge3_Node000002_Node000004" class="edge">
<title>Node2&#45;&gt;Node4</title>
<g id="a_edge3_Node000002_Node000004"><a xlink:title=" ">
<path fill="none" stroke="#63b8ff" d="M149.8,-219.98C110.62,-201.59 28.41,-156.08 59.24,-110 83.56,-73.63 208.58,-35.45 268.34,-18.93"/>
<polygon fill="#63b8ff" stroke="#63b8ff" points="269.3,-22.3 278.02,-16.29 267.46,-15.55 269.3,-22.3"/>
</a>
</g>
</g>
<!-- Node5 -->
<g id="Node000005" class="node">
<title>Node5</title>
<g id="a_Node000005"><a xlink:title=" ">
<polygon fill="#e0e0e0" stroke="#999999" points="196.24,-129 142.24,-129 142.24,-110 196.24,-110 196.24,-129"/>
<text text-anchor="middle" x="169.24" y="-117" font-family="Helvetica,sans-Serif" font-size="10.00">dirent.h</text>
</a>
</g>
</g>
<!-- Node2&#45;&gt;Node5 -->
<g id="edge4_Node000002_Node000005" class="edge">
<title>Node2&#45;&gt;Node5</title>
<g id="a_edge4_Node000002_Node000005"><a xlink:title=" ">
<path fill="none" stroke="#63b8ff" d="M169.24,-219.66C169.24,-202.17 169.24,-162.8 169.24,-139.27"/>
<polygon fill="#63b8ff" stroke="#63b8ff" points="172.74,-139.16 169.24,-129.16 165.74,-139.16 172.74,-139.16"/>
</a>
</g>
</g>
<!-- Node6 -->
<g id="Node000006" class="node">
<title>Node6</title>
<g id="a_Node000006"><a xlink:title=" ">
<polygon fill="#e0e0e0" stroke="#999999" points="256.24,-19 192.24,-19 192.24,0 256.24,0 256.24,-19"/>
<text text-anchor="middle" x="224.24" y="-7" font-family="Helvetica,sans-Serif" font-size="10.00">sys/stat.h</text>
</a>
</g>
</g>
<!-- Node2&#45;&gt;Node6 -->
<g id="edge5_Node000002_Node000006" class="edge">
<title>Node2&#45;&gt;Node6</title>
<g id="a_edge5_Node000002_Node000006"><a xlink:title=" ">
<path fill="none" stroke="#63b8ff" d="M95.19,-223.18C69.13,-217.31 42.34,-205.88 26.24,-184 -7.75,-137.83 -9.59,-99.77 26.24,-55 45.38,-31.08 129.88,-19.12 182.12,-13.91"/>
<polygon fill="#63b8ff" stroke="#63b8ff" points="182.48,-17.4 192.1,-12.96 181.82,-10.43 182.48,-17.4"/>
</a>
</g>
</g>
<!-- Node7 -->
<g id="Node000007" class="node">
<title>Node7</title>
<g id="a_Node000007"><a xlink:href="../../d6/d6f/request_8hpp.html" target="_top" xlink:title=" ">
<polygon fill="white" stroke="#666666" points="492.24,-184 418.24,-184 418.24,-165 492.24,-165 492.24,-184"/>
<text text-anchor="middle" x="455.24" y="-172" font-family="Helvetica,sans-Serif" font-size="10.00">request.hpp</text>
</a>
</g>
</g>
<!-- Node2&#45;&gt;Node7 -->
<g id="edge6_Node000002_Node000007" class="edge">
<title>Node2&#45;&gt;Node7</title>
<g id="a_edge6_Node000002_Node000007"><a xlink:title=" ">
<path fill="none" stroke="#63b8ff" d="M215.19,-219.98C268.14,-210.17 354.72,-194.13 408.16,-184.22"/>
<polygon fill="#63b8ff" stroke="#63b8ff" points="408.86,-187.65 418.05,-182.39 407.58,-180.77 408.86,-187.65"/>
</a>
</g>
</g>
<!-- Node16 -->
<g id="Node000016" class="node">
<title>Node16</title>
<g id="a_Node000016"><a xlink:href="../../de/d3d/Server_8hpp.html" target="_top" xlink:title=" ">
<polygon fill="white" stroke="#666666" points="880.24,-74 812.24,-74 812.24,-55 880.24,-55 880.24,-74"/>
<text text-anchor="middle" x="846.24" y="-62" font-family="Helvetica,sans-Serif" font-size="10.00">Server.hpp</text>
</a>
</g>
</g>
<!-- Node2&#45;&gt;Node16 -->
<g id="edge29_Node000002_Node000016" class="edge">
<title>Node2&#45;&gt;Node16</title>
<g id="a_edge29_Node000002_Node000016"><a xlink:title=" ">
<path fill="none" stroke="#63b8ff" d="M237.68,-219.97C304.87,-211.45 410.23,-197.68 501.24,-184 552.03,-176.36 564.51,-173.1 615.24,-165 667.62,-156.64 816.67,-169.24 851.24,-129 861.8,-116.7 858.62,-97.66 853.98,-83.63"/>
<polygon fill="#63b8ff" stroke="#63b8ff" points="857.17,-82.18 850.35,-74.08 850.63,-84.67 857.17,-82.18"/>
</a>
</g>
</g>
<!-- Node7&#45;&gt;Node3 -->
<g id="edge15_Node000007_Node000003" class="edge">
<title>Node7&#45;&gt;Node3</title>
<g id="a_edge15_Node000007_Node000003"><a xlink:title=" ">
<path fill="none" stroke="#63b8ff" d="M417.88,-169.43C359.51,-162.82 242.98,-148.69 134.22,-129.03"/>
<polygon fill="#63b8ff" stroke="#63b8ff" points="134.53,-125.53 124.06,-127.17 133.27,-132.41 134.53,-125.53"/>
</a>
</g>
</g>
<!-- Node7&#45;&gt;Node4 -->
<g id="edge11_Node000007_Node000004" class="edge">
<title>Node7&#45;&gt;Node4</title>
<g id="a_edge11_Node000007_Node000004"><a xlink:title=" ">
<path fill="none" stroke="#63b8ff" d="M417.97,-171.62C386.82,-167.95 343.68,-157.62 319.24,-129 295.3,-100.97 295.37,-55.09 297.7,-29.42"/>
<polygon fill="#63b8ff" stroke="#63b8ff" points="301.21,-29.51 298.85,-19.18 294.26,-28.73 301.21,-29.51"/>
</a>
</g>
</g>
<!-- Node7&#45;&gt;Node5 -->
<g id="edge14_Node000007_Node000005" class="edge">
<title>Node7&#45;&gt;Node5</title>
<g id="a_edge14_Node000007_Node000005"><a xlink:title=" ">
<path fill="none" stroke="#63b8ff" d="M417.83,-167C369.73,-158.58 283.65,-143.27 210.24,-129 208.99,-128.76 207.73,-128.51 206.45,-128.26"/>
<polygon fill="#63b8ff" stroke="#63b8ff" points="207.06,-124.81 196.56,-126.26 205.67,-131.67 207.06,-124.81"/>
</a>
</g>
</g>
<!-- Node7&#45;&gt;Node6 -->
<g id="edge17_Node000007_Node000006" class="edge">
<title>Node7&#45;&gt;Node6</title>
<g id="a_edge17_Node000007_Node000006"><a xlink:title=" ">
<path fill="none" stroke="#63b8ff" d="M417.96,-169.68C385.33,-164.77 337.98,-153.7 304.24,-129 268.14,-102.59 243.23,-54.65 231.63,-28.58"/>
<polygon fill="#63b8ff" stroke="#63b8ff" points="234.76,-26.98 227.61,-19.16 228.32,-29.73 234.76,-26.98"/>
</a>
</g>
</g>
<!-- Node8 -->
<g id="Node000008" class="node">
<title>Node8</title>
<g id="a_Node000008"><a xlink:title=" ">
<polygon fill="#e0e0e0" stroke="#999999" points="381.74,-129 328.74,-129 328.74,-110 381.74,-110 381.74,-129"/>
<text text-anchor="middle" x="355.24" y="-117" font-family="Helvetica,sans-Serif" font-size="10.00">cstddef</text>
</a>
</g>
</g>
<!-- Node7&#45;&gt;Node8 -->
<g id="edge7_Node000007_Node000008" class="edge">
<title>Node7&#45;&gt;Node8</title>
<g id="a_edge7_Node000007_Node000008"><a xlink:title=" ">
<path fill="none" stroke="#63b8ff" d="M439.17,-164.98C423.37,-156.61 399.02,-143.7 380.61,-133.95"/>
<polygon fill="#63b8ff" stroke="#63b8ff" points="382.07,-130.76 371.59,-129.17 378.79,-136.95 382.07,-130.76"/>
</a>
</g>
</g>
<!-- Node9 -->
<g id="Node000009" class="node">
<title>Node9</title>
<g id="a_Node000009"><a xlink:title=" ">
<polygon fill="#e0e0e0" stroke="#999999" points="973.74,-19 926.74,-19 926.74,0 973.74,0 973.74,-19"/>
<text text-anchor="middle" x="950.24" y="-7" font-family="Helvetica,sans-Serif" font-size="10.00">vector</text>
</a>
</g>
</g>
<!-- Node7&#45;&gt;Node9 -->
<g id="edge8_Node000007_Node000009" class="edge">
<title>Node7&#45;&gt;Node9</title>
<g id="a_edge8_Node000007_Node000009"><a xlink:title=" ">
<path fill="none" stroke="#63b8ff" d="M492.41,-170.9C584.86,-164.23 820.01,-145.79 851.24,-129 894.36,-105.81 926.35,-55.38 941.14,-28.39"/>
<polygon fill="#63b8ff" stroke="#63b8ff" points="944.36,-29.78 945.95,-19.3 938.18,-26.5 944.36,-29.78"/>
</a>
</g>
</g>
<!-- Node10 -->
<g id="Node000010" class="node">
<title>Node10</title>
<g id="a_Node000010"><a xlink:title=" ">
<polygon fill="#e0e0e0" stroke="#999999" points="630.24,-129 592.24,-129 592.24,-110 630.24,-110 630.24,-129"/>
<text text-anchor="middle" x="611.24" y="-117" font-family="Helvetica,sans-Serif" font-size="10.00">map</text>
</a>
</g>
</g>
<!-- Node7&#45;&gt;Node10 -->
<g id="edge9_Node000007_Node000010" class="edge">
<title>Node7&#45;&gt;Node10</title>
<g id="a_edge9_Node000007_Node000010"><a xlink:title=" ">
<path fill="none" stroke="#63b8ff" d="M480.3,-164.98C508.19,-155.51 553.18,-140.23 582.48,-130.27"/>
<polygon fill="#63b8ff" stroke="#63b8ff" points="583.79,-133.52 592.13,-126.99 581.54,-126.89 583.79,-133.52"/>
</a>
</g>
</g>
<!-- Node11 -->
<g id="Node000011" class="node">
<title>Node11</title>
<g id="a_Node000011"><a xlink:title=" ">
<polygon fill="#e0e0e0" stroke="#999999" points="1204.24,-19 1144.24,-19 1144.24,0 1204.24,0 1204.24,-19"/>
<text text-anchor="middle" x="1174.24" y="-7" font-family="Helvetica,sans-Serif" font-size="10.00">iostream</text>
</a>
</g>
</g>
<!-- Node7&#45;&gt;Node11 -->
<g id="edge10_Node000007_Node000011" class="edge">
<title>Node7&#45;&gt;Node11</title>
<g id="a_edge10_Node000007_Node000011"><a xlink:title=" ">
<path fill="none" stroke="#63b8ff" d="M492.44,-170.91C581.58,-164.49 805.39,-147.04 878.24,-129 982,-103.3 1097.66,-48.94 1148.22,-23.78"/>
<polygon fill="#63b8ff" stroke="#63b8ff" points="1150.07,-26.77 1157.44,-19.16 1146.93,-20.51 1150.07,-26.77"/>
</a>
</g>
</g>
<!-- Node12 -->
<g id="Node000012" class="node">
<title>Node12</title>
<g id="a_Node000012"><a xlink:title=" ">
<polygon fill="#e0e0e0" stroke="#999999" points="743.24,-19 687.24,-19 687.24,0 743.24,0 743.24,-19"/>
<text text-anchor="middle" x="715.24" y="-7" font-family="Helvetica,sans-Serif" font-size="10.00">sstream</text>
</a>
</g>
</g>
<!-- Node7&#45;&gt;Node12 -->
<g id="edge12_Node000007_Node000012" class="edge">
<title>Node7&#45;&gt;Node12</title>
<g id="a_edge12_Node000007_Node000012"><a xlink:title=" ">
<path fill="none" stroke="#63b8ff" d="M474.64,-164.93C493.17,-156.51 521.68,-142.93 545.24,-129 602.17,-95.34 665.01,-48.91 695.91,-25.41"/>
<polygon fill="#63b8ff" stroke="#63b8ff" points="698.27,-28.01 704.08,-19.16 694.01,-22.45 698.27,-28.01"/>
</a>
</g>
</g>
<!-- Node13 -->
<g id="Node000013" class="node">
<title>Node13</title>
<g id="a_Node000013"><a xlink:title=" ">
<polygon fill="#e0e0e0" stroke="#999999" points="464.24,-129 400.24,-129 400.24,-110 464.24,-110 464.24,-129"/>
<text text-anchor="middle" x="432.24" y="-117" font-family="Helvetica,sans-Serif" font-size="10.00">algorithm</text>
</a>
</g>
</g>
<!-- Node7&#45;&gt;Node13 -->
<g id="edge13_Node000007_Node000013" class="edge">
<title>Node7&#45;&gt;Node13</title>
<g id="a_edge13_Node000007_Node000013"><a xlink:title=" ">
<path fill="none" stroke="#63b8ff" d="M451.44,-164.75C448.32,-157.57 443.81,-147.18 439.95,-138.27"/>
<polygon fill="#63b8ff" stroke="#63b8ff" points="443.15,-136.87 435.96,-129.09 436.73,-139.66 443.15,-136.87"/>
</a>
</g>
</g>
<!-- Node14 -->
<g id="Node000014" class="node">
<title>Node14</title>
<g id="a_Node000014"><a xlink:title=" ">
<polygon fill="#e0e0e0" stroke="#999999" points="535.74,-129 482.74,-129 482.74,-110 535.74,-110 535.74,-129"/>
<text text-anchor="middle" x="509.24" y="-117" font-family="Helvetica,sans-Serif" font-size="10.00">limits.h</text>
</a>
</g>
</g>
<!-- Node7&#45;&gt;Node14 -->
<g id="edge16_Node000007_Node000014" class="edge">
<title>Node7&#45;&gt;Node14</title>
<g id="a_edge16_Node000007_Node000014"><a xlink:title=" ">
<path fill="none" stroke="#63b8ff" d="M464.15,-164.75C472.02,-157.03 483.67,-145.6 493.15,-136.28"/>
<polygon fill="#63b8ff" stroke="#63b8ff" points="495.8,-138.59 500.48,-129.09 490.9,-133.6 495.8,-138.59"/>
</a>
</g>
</g>
<!-- Node15 -->
<g id="Node000015" class="node">
<title>Node15</title>
<g id="a_Node000015"><a xlink:href="../../d7/d2f/Location_8hpp.html" target="_top" xlink:title=" ">
<polygon fill="white" stroke="#666666" points="841.74,-129 762.74,-129 762.74,-110 841.74,-110 841.74,-129"/>
<text text-anchor="middle" x="802.24" y="-117" font-family="Helvetica,sans-Serif" font-size="10.00">Location.hpp</text>
</a>
</g>
</g>
<!-- Node7&#45;&gt;Node15 -->
<g id="edge18_Node000007_Node000015" class="edge">
<title>Node7&#45;&gt;Node15</title>
<g id="a_edge18_Node000007_Node000015"><a xlink:title=" ">
<path fill="none" stroke="#63b8ff" d="M492.37,-167.83C555.19,-158.23 682.46,-138.79 752.77,-128.06"/>
<polygon fill="#63b8ff" stroke="#63b8ff" points="753.36,-131.51 762.72,-126.54 752.3,-124.59 753.36,-131.51"/>
</a>
</g>
</g>
<!-- Node15&#45;&gt;Node16 -->
<g id="edge19_Node000015_Node000016" class="edge">
<title>Node15&#45;&gt;Node16</title>
<g id="a_edge19_Node000015_Node000016"><a xlink:title=" ">
<path fill="none" stroke="#63b8ff" d="M804.34,-109.75C809.08,-102.03 818.22,-90.6 826.9,-81.28"/>
<polygon fill="#63b8ff" stroke="#63b8ff" points="829.46,-83.67 833.97,-74.09 824.47,-78.76 829.46,-83.67"/>
</a>
</g>
</g>
<!-- Node16&#45;&gt;Node4 -->
<g id="edge21_Node000016_Node000004" class="edge">
<title>Node16&#45;&gt;Node4</title>
<g id="a_edge21_Node000016_Node000004"><a xlink:title=" ">
<path fill="none" stroke="#63b8ff" d="M812.08,-60.18C713.41,-50.61 428.85,-22.98 332.54,-13.64"/>
<polygon fill="#63b8ff" stroke="#63b8ff" points="332.81,-10.15 322.52,-12.66 332.14,-17.11 332.81,-10.15"/>
</a>
</g>
</g>
<!-- Node16&#45;&gt;Node6 -->
<g id="edge26_Node000016_Node000006" class="edge">
<title>Node16&#45;&gt;Node6</title>
<g id="a_edge26_Node000016_Node000006"><a xlink:title=" ">
<path fill="none" stroke="#63b8ff" d="M811.96,-62.17C722.4,-58.41 474.16,-46.17 269.24,-19 268.34,-18.88 267.43,-18.76 266.52,-18.63"/>
<polygon fill="#63b8ff" stroke="#63b8ff" points="267.04,-15.16 256.61,-17.06 265.94,-22.08 267.04,-15.16"/>
</a>
</g>
</g>
<!-- Node16&#45;&gt;Node9 -->
<g id="edge25_Node000016_Node000009" class="edge">
<title>Node16&#45;&gt;Node9</title>
<g id="a_edge25_Node000016_Node000009"><a xlink:title=" ">
<path fill="none" stroke="#63b8ff" d="M862.95,-54.98C879.45,-46.57 904.93,-33.59 924.11,-23.81"/>
<polygon fill="#63b8ff" stroke="#63b8ff" points="925.9,-26.83 933.22,-19.17 922.72,-20.59 925.9,-26.83"/>
</a>
</g>
</g>
<!-- Node16&#45;&gt;Node11 -->
<g id="edge20_Node000016_Node000011" class="edge">
<title>Node16&#45;&gt;Node11</title>
<g id="a_edge20_Node000016_Node000011"><a xlink:title=" ">
<path fill="none" stroke="#63b8ff" d="M880.41,-57.98C941.46,-48.11 1068.96,-27.51 1134.08,-16.99"/>
<polygon fill="#63b8ff" stroke="#63b8ff" points="1134.67,-20.44 1143.98,-15.39 1133.55,-13.53 1134.67,-20.44"/>
</a>
</g>
</g>
<!-- Node16&#45;&gt;Node12 -->
<g id="edge23_Node000016_Node000012" class="edge">
<title>Node16&#45;&gt;Node12</title>
<g id="a_edge23_Node000016_Node000012"><a xlink:title=" ">
<path fill="none" stroke="#63b8ff" d="M825.19,-54.98C803.83,-46.34 770.53,-32.87 746.17,-23.02"/>
<polygon fill="#63b8ff" stroke="#63b8ff" points="747.25,-19.68 736.67,-19.17 744.62,-26.17 747.25,-19.68"/>
</a>
</g>
</g>
<!-- Node16&#45;&gt;Node15 -->
<g id="edge28_Node000016_Node000015" class="edge">
<title>Node16&#45;&gt;Node15</title>
<g id="a_edge28_Node000016_Node000015"><a xlink:title=" ">
<path fill="none" stroke="#63b8ff" d="M844.24,-74.09C839.55,-81.75 830.44,-93.18 821.76,-102.52"/>
<polygon fill="#63b8ff" stroke="#63b8ff" points="819.17,-100.16 814.67,-109.75 824.17,-105.06 819.17,-100.16"/>
</a>
</g>
</g>
<!-- Node17 -->
<g id="Node000017" class="node">
<title>Node17</title>
<g id="a_Node000017"><a xlink:title=" ">
<polygon fill="#e0e0e0" stroke="#999999" points="1082.24,-19 1038.24,-19 1038.24,0 1082.24,0 1082.24,-19"/>
<text text-anchor="middle" x="1060.24" y="-7" font-family="Helvetica,sans-Serif" font-size="10.00">limits</text>
</a>
</g>
</g>
<!-- Node16&#45;&gt;Node17 -->
<g id="edge22_Node000016_Node000017" class="edge">
<title>Node16&#45;&gt;Node17</title>
<g id="a_edge22_Node000016_Node000017"><a xlink:title=" ">
<path fill="none" stroke="#63b8ff" d="M880.62,-54.98C921.29,-44.91 988.47,-28.27 1028.12,-18.45"/>
<polygon fill="#63b8ff" stroke="#63b8ff" points="1029.19,-21.8 1038.05,-15.99 1027.51,-15 1029.19,-21.8"/>
</a>
</g>
</g>
<!-- Node18 -->
<g id="Node000018" class="node">
<title>Node18</title>
<g id="a_Node000018"><a xlink:title=" ">
<polygon fill="#e0e0e0" stroke="#999999" points="1274.74,-19 1225.74,-19 1225.74,0 1274.74,0 1274.74,-19"/>
<text text-anchor="middle" x="1250.24" y="-7" font-family="Helvetica,sans-Serif" font-size="10.00">cstdlib</text>
</a>
</g>
</g>
<!-- Node16&#45;&gt;Node18 -->
<g id="edge24_Node000016_Node000018" class="edge">
<title>Node16&#45;&gt;Node18</title>
<g id="a_edge24_Node000016_Node000018"><a xlink:title=" ">
<path fill="none" stroke="#63b8ff" d="M880.31,-60.58C945.35,-54.73 1091.53,-40.3 1213.24,-19 1213.99,-18.87 1214.75,-18.73 1215.52,-18.59"/>
<polygon fill="#63b8ff" stroke="#63b8ff" points="1216.53,-21.95 1225.63,-16.53 1215.13,-15.1 1216.53,-21.95"/>
</a>
</g>
</g>
<!-- Node19 -->
<g id="Node000019" class="node">
<title>Node19</title>
<g id="a_Node000019"><a xlink:title=" ">
<polygon fill="#e0e0e0" stroke="#999999" points="874.24,-19 818.24,-19 818.24,0 874.24,0 874.24,-19"/>
<text text-anchor="middle" x="846.24" y="-7" font-family="Helvetica,sans-Serif" font-size="10.00">unistd.h</text>
</a>
</g>
</g>
<!-- Node16&#45;&gt;Node19 -->
<g id="edge27_Node000016_Node000019" class="edge">
<title>Node16&#45;&gt;Node19</title>
<g id="a_edge27_Node000016_Node000019"><a xlink:title=" ">
<path fill="none" stroke="#63b8ff" d="M846.24,-54.75C846.24,-47.8 846.24,-37.85 846.24,-29.13"/>
<polygon fill="#63b8ff" stroke="#63b8ff" points="849.74,-29.09 846.24,-19.09 842.74,-29.09 849.74,-29.09"/>
</a>
</g>
</g>
<!-- Node21&#45;&gt;Node7 -->
<g id="edge33_Node000021_Node000007" class="edge">
<title>Node21&#45;&gt;Node7</title>
<g id="a_edge33_Node000021_Node000007"><a xlink:title=" ">
<path fill="none" stroke="#63b8ff" d="M978.8,-336.92C847.28,-333 543.87,-321.09 506.24,-294 473.47,-270.42 461.56,-221.3 457.38,-194.29"/>
<polygon fill="#63b8ff" stroke="#63b8ff" points="460.83,-193.66 456.03,-184.21 453.89,-194.59 460.83,-193.66"/>
</a>
</g>
</g>
<!-- Node21&#45;&gt;Node10 -->
<g id="edge34_Node000021_Node000010" class="edge">
<title>Node21&#45;&gt;Node10</title>
<g id="a_edge34_Node000021_Node000010"><a xlink:title=" ">
<path fill="none" stroke="#63b8ff" d="M978.92,-335.59C859.24,-328.42 598.6,-305.37 544.24,-239 523.4,-213.56 528.69,-193.98 544.24,-165 552.46,-149.66 568.57,-138.7 582.93,-131.5"/>
<polygon fill="#63b8ff" stroke="#63b8ff" points="584.4,-134.68 592.01,-127.3 581.47,-128.32 584.4,-134.68"/>
</a>
</g>
</g>
<!-- Node21&#45;&gt;Node11 -->
<g id="edge32_Node000021_Node000011" class="edge">
<title>Node21&#45;&gt;Node11</title>
<g id="a_edge32_Node000021_Node000011"><a xlink:title=" ">
<path fill="none" stroke="#63b8ff" d="M1090.88,-329.98C1173.51,-314.87 1326.24,-280.21 1326.24,-230.5 1326.24,-230.5 1326.24,-230.5 1326.24,-118.5 1326.24,-63.42 1259.1,-33.85 1214.07,-20.21"/>
<polygon fill="#63b8ff" stroke="#63b8ff" points="1214.84,-16.79 1204.27,-17.39 1212.9,-23.52 1214.84,-16.79"/>
</a>
</g>
</g>
<!-- Node21&#45;&gt;Node20 -->
<g id="edge35_Node000021_Node000020" class="edge">
<title>Node21&#45;&gt;Node20</title>
<g id="a_edge35_Node000021_Node000020"><a xlink:title=" ">
<path fill="none" stroke="#63b8ff" d="M1099.29,-330.1C1166.53,-320.7 1275.43,-305.47 1346.94,-295.47"/>
<polygon fill="#63b8ff" stroke="#63b8ff" points="1347.79,-298.89 1357.21,-294.03 1346.82,-291.95 1347.79,-298.89"/>
</a>
</g>
</g>
<!-- Node22 -->
<g id="Node000022" class="node">
<title>Node22</title>
<g id="a_Node000022"><a xlink:href="../../dd/df5/Socket_8hpp.html" target="_top" xlink:title=" ">
<polygon fill="white" stroke="#666666" points="912.24,-239 842.24,-239 842.24,-220 912.24,-220 912.24,-239"/>
<text text-anchor="middle" x="877.24" y="-227" font-family="Helvetica,sans-Serif" font-size="10.00">Socket.hpp</text>
</a>
</g>
</g>
<!-- Node21&#45;&gt;Node22 -->
<g id="edge36_Node000021_Node000022" class="edge">
<title>Node21&#45;&gt;Node22</title>
<g id="a_edge36_Node000021_Node000022"><a xlink:title=" ">
<path fill="none" stroke="#63b8ff" d="M1026.25,-329.84C998.41,-311.28 932.72,-267.49 898.62,-244.75"/>
<polygon fill="#63b8ff" stroke="#63b8ff" points="900.54,-241.83 890.28,-239.2 896.66,-247.66 900.54,-241.83"/>
</a>
</g>
</g>
<!-- Node26 -->
<g id="Node000026" class="node">
<title>Node26</title>
<g id="a_Node000026"><a xlink:href="../../dd/d60/EpollHandler_8hpp.html" target="_top" xlink:title=" ">
<polygon fill="white" stroke="#666666" points="1166.74,-294 1067.74,-294 1067.74,-275 1166.74,-275 1166.74,-294"/>
<text text-anchor="middle" x="1117.24" y="-282" font-family="Helvetica,sans-Serif" font-size="10.00">EpollHandler.hpp</text>
</a>
</g>
</g>
<!-- Node21&#45;&gt;Node26 -->
<g id="edge47_Node000021_Node000026" class="edge">
<title>Node21&#45;&gt;Node26</title>
<g id="a_edge47_Node000021_Node000026"><a xlink:title=" ">
<path fill="none" stroke="#63b8ff" d="M1051.77,-329.98C1063.64,-321.92 1081.7,-309.65 1095.85,-300.03"/>
<polygon fill="#63b8ff" stroke="#63b8ff" points="1098.17,-302.69 1104.48,-294.17 1094.24,-296.9 1098.17,-302.69"/>
</a>
</g>
</g>
<!-- Node22&#45;&gt;Node4 -->
<g id="edge41_Node000022_Node000004" class="edge">
<title>Node22&#45;&gt;Node4</title>
<g id="a_edge41_Node000022_Node000004"><a xlink:title=" ">
<path fill="none" stroke="#63b8ff" d="M841.95,-226.91C747.46,-222.37 490.41,-208.1 409.24,-184 358.73,-169 335.82,-171.17 304.24,-129 282.31,-99.72 288.89,-53.99 294.98,-28.76"/>
<polygon fill="#63b8ff" stroke="#63b8ff" points="298.38,-29.58 297.55,-19.02 291.61,-27.8 298.38,-29.58"/>
</a>
</g>
</g>
<!-- Node22&#45;&gt;Node7 -->
<g id="edge37_Node000022_Node000007" class="edge">
<title>Node22&#45;&gt;Node7</title>
<g id="a_edge37_Node000022_Node000007"><a xlink:title=" ">
<path fill="none" stroke="#63b8ff" d="M841.98,-224.07C766.22,-214.56 587.85,-192.16 502.43,-181.43"/>
<polygon fill="#63b8ff" stroke="#63b8ff" points="502.85,-177.95 492.49,-180.18 501.98,-184.9 502.85,-177.95"/>
</a>
</g>
</g>
<!-- Node22&#45;&gt;Node9 -->
<g id="edge45_Node000022_Node000009" class="edge">
<title>Node22&#45;&gt;Node9</title>
<g id="a_edge45_Node000022_Node000009"><a xlink:title=" ">
<path fill="none" stroke="#63b8ff" d="M876.78,-219.66C876.38,-207.19 876.6,-183.86 882.24,-165 895.45,-120.79 914.72,-116.69 932.24,-74 938.22,-59.41 942.98,-42.14 946.09,-29.3"/>
<polygon fill="#63b8ff" stroke="#63b8ff" points="949.55,-29.87 948.4,-19.34 942.73,-28.29 949.55,-29.87"/>
</a>
</g>
</g>
<!-- Node22&#45;&gt;Node11 -->
<g id="edge40_Node000022_Node000011" class="edge">
<title>Node22&#45;&gt;Node11</title>
<g id="a_edge40_Node000022_Node000011"><a xlink:title=" ">
<path fill="none" stroke="#63b8ff" d="M887.86,-219.93C903.23,-207.58 932.64,-184.18 958.24,-165 1028.95,-112.03 1114.84,-51.79 1153.55,-24.84"/>
<polygon fill="#63b8ff" stroke="#63b8ff" points="1155.71,-27.61 1161.92,-19.03 1151.71,-21.86 1155.71,-27.61"/>
</a>
</g>
</g>
<!-- Node22&#45;&gt;Node12 -->
<g id="edge43_Node000022_Node000012" class="edge">
<title>Node22&#45;&gt;Node12</title>
<g id="a_edge43_Node000022_Node000012"><a xlink:title=" ">
<path fill="none" stroke="#63b8ff" d="M868.51,-219.8C855,-206.66 827.8,-181.55 801.24,-165 767.8,-144.17 742.39,-161.57 720.24,-129 699.85,-99.03 705.13,-54.24 710.43,-29.19"/>
<polygon fill="#63b8ff" stroke="#63b8ff" points="713.9,-29.72 712.77,-19.19 707.08,-28.13 713.9,-29.72"/>
</a>
</g>
</g>
<!-- Node22&#45;&gt;Node17 -->
<g id="edge42_Node000022_Node000017" class="edge">
<title>Node22&#45;&gt;Node17</title>
<g id="a_edge42_Node000022_Node000017"><a xlink:title=" ">
<path fill="none" stroke="#63b8ff" d="M882.7,-219.6C890.53,-207.06 905.6,-183.64 920.24,-165 962.15,-111.62 1017.77,-53.56 1044.53,-26.3"/>
<polygon fill="#63b8ff" stroke="#63b8ff" points="1047.04,-28.74 1051.57,-19.17 1042.06,-23.83 1047.04,-28.74"/>
</a>
</g>
</g>
<!-- Node22&#45;&gt;Node18 -->
<g id="edge44_Node000022_Node000018" class="edge">
<title>Node22&#45;&gt;Node18</title>
<g id="a_edge44_Node000022_Node000018"><a xlink:title=" ">
<path fill="none" stroke="#63b8ff" d="M893.16,-219.96C909.55,-211.11 935.81,-196.82 958.24,-184 1059.48,-126.13 1178.55,-54.14 1227.49,-24.37"/>
<polygon fill="#63b8ff" stroke="#63b8ff" points="1229.33,-27.35 1236.06,-19.16 1225.69,-21.37 1229.33,-27.35"/>
</a>
</g>
</g>
<!-- Node23 -->
<g id="Node000023" class="node">
<title>Node23</title>
<g id="a_Node000023"><a xlink:title=" ">
<polygon fill="#e0e0e0" stroke="#999999" points="1069.74,-184 1000.74,-184 1000.74,-165 1069.74,-165 1069.74,-184"/>
<text text-anchor="middle" x="1035.24" y="-172" font-family="Helvetica,sans-Serif" font-size="10.00">sys/epoll.h</text>
</a>
</g>
</g>
<!-- Node22&#45;&gt;Node23 -->
<g id="edge38_Node000022_Node000023" class="edge">
<title>Node22&#45;&gt;Node23</title>
<g id="a_edge38_Node000022_Node000023"><a xlink:title=" ">
<path fill="none" stroke="#63b8ff" d="M902.62,-219.98C929.03,-211.13 970.58,-197.19 1000.13,-187.28"/>
<polygon fill="#63b8ff" stroke="#63b8ff" points="1001.28,-190.58 1009.65,-184.08 999.06,-183.94 1001.28,-190.58"/>
</a>
</g>
</g>
<!-- Node24 -->
<g id="Node000024" class="node">
<title>Node24</title>
<g id="a_Node000024"><a xlink:title=" ">
<polygon fill="#e0e0e0" stroke="#999999" points="696.24,-184 624.24,-184 624.24,-165 696.24,-165 696.24,-184"/>
<text text-anchor="middle" x="660.24" y="-172" font-family="Helvetica,sans-Serif" font-size="10.00">sys/types.h</text>
</a>
</g>
</g>
<!-- Node22&#45;&gt;Node24 -->
<g id="edge39_Node000022_Node000024" class="edge">
<title>Node22&#45;&gt;Node24</title>
<g id="a_edge39_Node000022_Node000024"><a xlink:title=" ">
<path fill="none" stroke="#63b8ff" d="M842.37,-219.98C805.15,-210.89 746.04,-196.46 705.31,-186.51"/>
<polygon fill="#63b8ff" stroke="#63b8ff" points="705.92,-183.05 695.37,-184.08 704.26,-189.85 705.92,-183.05"/>
</a>
</g>
</g>
<!-- Node25 -->
<g id="Node000025" class="node">
<title>Node25</title>
<g id="a_Node000025"><a xlink:title=" ">
<polygon fill="#e0e0e0" stroke="#999999" points="791.74,-184 714.74,-184 714.74,-165 791.74,-165 791.74,-184"/>
<text text-anchor="middle" x="753.24" y="-172" font-family="Helvetica,sans-Serif" font-size="10.00">sys/socket.h</text>
</a>
</g>
</g>
<!-- Node22&#45;&gt;Node25 -->
<g id="edge46_Node000022_Node000025" class="edge">
<title>Node22&#45;&gt;Node25</title>
<g id="a_edge46_Node000022_Node000025"><a xlink:title=" ">
<path fill="none" stroke="#63b8ff" d="M857.31,-219.98C837.19,-211.38 805.86,-197.99 782.83,-188.15"/>
<polygon fill="#63b8ff" stroke="#63b8ff" points="784.09,-184.88 773.52,-184.17 781.34,-191.32 784.09,-184.88"/>
</a>
</g>
</g>
<!-- Node26&#45;&gt;Node4 -->
<g id="edge50_Node000026_Node000004" class="edge">
<title>Node26&#45;&gt;Node4</title>
<g id="a_edge50_Node000026_Node000004"><a xlink:title=" ">
<path fill="none" stroke="#63b8ff" d="M1067.48,-277.11C1010.59,-269.48 914.78,-255.64 833.24,-239 735.33,-219.02 676.65,-262.83 615.24,-184 593.99,-156.72 659.96,-137.68 639.24,-110 601.84,-60.06 409.81,-26.66 332.52,-15.05"/>
<polygon fill="#63b8ff" stroke="#63b8ff" points="332.81,-11.55 322.4,-13.55 331.78,-18.48 332.81,-11.55"/>
</a>
</g>
</g>
<!-- Node26&#45;&gt;Node9 -->
<g id="edge54_Node000026_Node000009" class="edge">
<title>Node26&#45;&gt;Node9</title>
<g id="a_edge54_Node000026_Node000009"><a xlink:title=" ">
<path fill="none" stroke="#63b8ff" d="M1123.34,-274.8C1128.99,-266.17 1136.99,-252.35 1140.24,-239 1145.57,-217.07 1131.08,-166.47 1130.24,-165 1092.21,-98.69 1014.69,-47.31 974.95,-24.08"/>
<polygon fill="#63b8ff" stroke="#63b8ff" points="976.57,-20.97 966.16,-19.04 973.09,-27.05 976.57,-20.97"/>
</a>
</g>
</g>
<!-- Node26&#45;&gt;Node11 -->
<g id="edge49_Node000026_Node000011" class="edge">
<title>Node26&#45;&gt;Node11</title>
<g id="a_edge49_Node000026_Node000011"><a xlink:title=" ">
<path fill="none" stroke="#63b8ff" d="M1166.95,-275.95C1188.99,-269.85 1212.9,-258.85 1226.24,-239 1272.03,-170.84 1213.3,-68.14 1186.39,-27.71"/>
<polygon fill="#63b8ff" stroke="#63b8ff" points="1189.13,-25.53 1180.6,-19.24 1183.35,-29.47 1189.13,-25.53"/>
</a>
</g>
</g>
<!-- Node26&#45;&gt;Node12 -->
<g id="edge52_Node000026_Node000012" class="edge">
<title>Node26&#45;&gt;Node12</title>
<g id="a_edge52_Node000026_Node000012"><a xlink:title=" ">
<path fill="none" stroke="#63b8ff" d="M1117.4,-274.93C1117.3,-252.74 1113.69,-193.17 1079.24,-165 966.73,-73.01 867.09,-220.56 754.24,-129 738.58,-116.3 725.06,-59.38 718.86,-29.29"/>
<polygon fill="#63b8ff" stroke="#63b8ff" points="722.24,-28.34 716.85,-19.22 715.37,-29.71 722.24,-28.34"/>
</a>
</g>
</g>
<!-- Node26&#45;&gt;Node16 -->
<g id="edge55_Node000026_Node000016" class="edge">
<title>Node26&#45;&gt;Node16</title>
<g id="a_edge55_Node000026_Node000016"><a xlink:title=" ">
<path fill="none" stroke="#63b8ff" d="M1119.84,-274.72C1125.54,-253.52 1136.78,-198.84 1112.24,-165 1060.65,-93.88 952,-73.56 890.72,-67.78"/>
<polygon fill="#63b8ff" stroke="#63b8ff" points="890.84,-64.28 880.58,-66.91 890.25,-71.25 890.84,-64.28"/>
</a>
</g>
</g>
<!-- Node26&#45;&gt;Node17 -->
<g id="edge51_Node000026_Node000017" class="edge">
<title>Node26&#45;&gt;Node17</title>
<g id="a_edge51_Node000026_Node000017"><a xlink:title=" ">
<path fill="none" stroke="#63b8ff" d="M1142.74,-274.9C1158.93,-267.96 1178.59,-256.44 1188.24,-239 1204.16,-210.22 1198.03,-196.4 1188.24,-165 1169.09,-103.6 1110.97,-50.4 1080.06,-25.51"/>
<polygon fill="#63b8ff" stroke="#63b8ff" points="1082.15,-22.69 1072.12,-19.26 1077.81,-28.19 1082.15,-22.69"/>
</a>
</g>
</g>
<!-- Node26&#45;&gt;Node18 -->
<g id="edge53_Node000026_Node000018" class="edge">
<title>Node26&#45;&gt;Node18</title>
<g id="a_edge53_Node000026_Node000018"><a xlink:title=" ">
<path fill="none" stroke="#63b8ff" d="M1163.96,-274.9C1214.59,-262.57 1288.24,-234.49 1288.24,-175.5 1288.24,-175.5 1288.24,-175.5 1288.24,-118.5 1288.24,-85.02 1271.79,-48.84 1260.53,-28.01"/>
<polygon fill="#63b8ff" stroke="#63b8ff" points="1263.47,-26.1 1255.52,-19.1 1257.37,-29.53 1263.47,-26.1"/>
</a>
</g>
</g>
<!-- Node26&#45;&gt;Node22 -->
<g id="edge56_Node000026_Node000022" class="edge">
<title>Node26&#45;&gt;Node22</title>
<g id="a_edge56_Node000026_Node000022"><a xlink:title=" ">
<path fill="none" stroke="#63b8ff" d="M1078.68,-274.98C1036.05,-265.57 967.47,-250.43 922.38,-240.47"/>
<polygon fill="#63b8ff" stroke="#63b8ff" points="923.09,-237.04 912.57,-238.3 921.58,-243.88 923.09,-237.04"/>
</a>
</g>
</g>
<!-- Node26&#45;&gt;Node23 -->
<g id="edge48_Node000026_Node000023" class="edge">
<title>Node26&#45;&gt;Node23</title>
<g id="a_edge48_Node000026_Node000023"><a xlink:title=" ">
<path fill="none" stroke="#63b8ff" d="M1110.53,-274.66C1096.88,-256.69 1065.71,-215.64 1048.06,-192.38"/>
<polygon fill="#63b8ff" stroke="#63b8ff" points="1050.64,-190.01 1041.81,-184.16 1045.07,-194.24 1050.64,-190.01"/>
</a>
</g>
</g>
</g>
</svg>
