<?xml version="1.0" encoding="UTF-8" standalone="no"?>
<!DOCTYPE svg PUBLIC "-//W3C//DTD SVG 1.1//EN"
 "http://www.w3.org/Graphics/SVG/1.1/DTD/svg11.dtd">
<!-- Generated by graphviz version 2.43.0 (0)
 -->
<!-- Title: srcs/request/path_check.cpp Pages: 1 -->
<svg width="1255pt" height="412pt"
 viewBox="0.00 0.00 1255.00 412.00" xmlns="http://www.w3.org/2000/svg" xmlns:xlink="http://www.w3.org/1999/xlink">
<g id="graph0" class="graph" transform="scale(1 1) rotate(0) translate(4 408)">
<title>srcs/request/path_check.cpp</title>
<!-- Node1 -->
<g id="Node000001" class="node">
<title>Node1</title>
<g id="a_Node000001"><a xlink:title=" ">
<polygon fill="#999999" stroke="#666666" points="638.5,-404 483.5,-404 483.5,-385 638.5,-385 638.5,-404"/>
<text text-anchor="middle" x="561" y="-392" font-family="Helvetica,sans-Serif" font-size="10.00">srcs/request/path_check.cpp</text>
</a>
</g>
</g>
<!-- Node2 -->
<g id="Node000002" class="node">
<title>Node2</title>
<g id="a_Node000002"><a xlink:href="../../d6/d6f/request_8hpp.html" target="_top" xlink:title=" ">
<polygon fill="white" stroke="#666666" points="451,-184 315,-184 315,-165 451,-165 451,-184"/>
<text text-anchor="middle" x="383" y="-172" font-family="Helvetica,sans-Serif" font-size="10.00">../../includes/request.hpp</text>
</a>
</g>
</g>
<!-- Node1&#45;&gt;Node2 -->
<g id="edge1_Node000001_Node000002" class="edge">
<title>Node1&#45;&gt;Node2</title>
<g id="a_edge1_Node000001_Node000002"><a xlink:title=" ">
<path fill="none" stroke="#63b8ff" d="M547.61,-385C535.2,-376.73 516.65,-363.34 503,-349 454.49,-298.03 411.2,-225.85 392.62,-193"/>
<polygon fill="#63b8ff" stroke="#63b8ff" points="395.6,-191.15 387.67,-184.13 389.49,-194.57 395.6,-191.15"/>
</a>
</g>
</g>
<!-- Node15 -->
<g id="Node000015" class="node">
<title>Node15</title>
<g id="a_Node000015"><a xlink:href="../../de/d3d/Server_8hpp.html" target="_top" xlink:title=" ">
<polygon fill="white" stroke="#666666" points="707,-74 639,-74 639,-55 707,-55 707,-74"/>
<text text-anchor="middle" x="673" y="-62" font-family="Helvetica,sans-Serif" font-size="10.00">Server.hpp</text>
</a>
</g>
</g>
<!-- Node1&#45;&gt;Node15 -->
<g id="edge24_Node000001_Node000015" class="edge">
<title>Node1&#45;&gt;Node15</title>
<g id="a_edge24_Node000001_Node000015"><a xlink:title=" ">
<path fill="none" stroke="#63b8ff" d="M554.7,-384.75C542.53,-366.98 517,-324.98 517,-285.5 517,-285.5 517,-285.5 517,-228.5 517,-194.66 531.19,-184.27 559,-165 617.84,-124.23 671.39,-184.99 716,-129 728.72,-113.04 710.79,-93.43 694.35,-80.26"/>
<polygon fill="#63b8ff" stroke="#63b8ff" points="696.16,-77.23 686.07,-74.01 691.95,-82.82 696.16,-77.23"/>
</a>
</g>
</g>
<!-- Node19 -->
<g id="Node000019" class="node">
<title>Node19</title>
<g id="a_Node000019"><a xlink:href="../../df/d95/colors_8hpp.html" target="_top" xlink:title=" ">
<polygon fill="white" stroke="#666666" points="1233,-294 1105,-294 1105,-275 1233,-275 1233,-294"/>
<text text-anchor="middle" x="1169" y="-282" font-family="Helvetica,sans-Serif" font-size="10.00">../../includes/colors.hpp</text>
</a>
</g>
</g>
<!-- Node1&#45;&gt;Node19 -->
<g id="edge25_Node000001_Node000019" class="edge">
<title>Node1&#45;&gt;Node19</title>
<g id="a_edge25_Node000001_Node000019"><a xlink:title=" ">
<path fill="none" stroke="#63b8ff" d="M608.96,-384.98C719.45,-365.35 991.55,-317.02 1111.09,-295.79"/>
<polygon fill="#63b8ff" stroke="#63b8ff" points="1111.91,-299.2 1121.15,-294 1110.69,-292.3 1111.91,-299.2"/>
</a>
</g>
</g>
<!-- Node20 -->
<g id="Node000020" class="node">
<title>Node20</title>
<g id="a_Node000020"><a xlink:href="../../df/d93/utils_8hpp.html" target="_top" xlink:title=" ">
<polygon fill="white" stroke="#666666" points="665,-349 545,-349 545,-330 665,-330 665,-349"/>
<text text-anchor="middle" x="605" y="-337" font-family="Helvetica,sans-Serif" font-size="10.00">../../includes/utils.hpp</text>
</a>
</g>
</g>
<!-- Node1&#45;&gt;Node20 -->
<g id="edge26_Node000001_Node000020" class="edge">
<title>Node1&#45;&gt;Node20</title>
<g id="a_edge26_Node000001_Node000020"><a xlink:title=" ">
<path fill="none" stroke="#63b8ff" d="M568.27,-384.75C574.54,-377.18 583.79,-366.05 591.43,-356.84"/>
<polygon fill="#63b8ff" stroke="#63b8ff" points="594.17,-359.02 597.87,-349.09 588.79,-354.55 594.17,-359.02"/>
</a>
</g>
</g>
<!-- Node3 -->
<g id="Node000003" class="node">
<title>Node3</title>
<g id="a_Node000003"><a xlink:title=" ">
<polygon fill="#e0e0e0" stroke="#999999" points="195.5,-129 142.5,-129 142.5,-110 195.5,-110 195.5,-129"/>
<text text-anchor="middle" x="169" y="-117" font-family="Helvetica,sans-Serif" font-size="10.00">cstddef</text>
</a>
</g>
</g>
<!-- Node2&#45;&gt;Node3 -->
<g id="edge2_Node000002_Node000003" class="edge">
<title>Node2&#45;&gt;Node3</title>
<g id="a_edge2_Node000002_Node000003"><a xlink:title=" ">
<path fill="none" stroke="#63b8ff" d="M348.62,-164.98C309.38,-155.27 245.48,-139.44 205.41,-129.52"/>
<polygon fill="#63b8ff" stroke="#63b8ff" points="206.07,-126.08 195.52,-127.07 204.39,-132.87 206.07,-126.08"/>
</a>
</g>
</g>
<!-- Node4 -->
<g id="Node000004" class="node">
<title>Node4</title>
<g id="a_Node000004"><a xlink:title=" ">
<polygon fill="#e0e0e0" stroke="#999999" points="1017.5,-19 970.5,-19 970.5,0 1017.5,0 1017.5,-19"/>
<text text-anchor="middle" x="994" y="-7" font-family="Helvetica,sans-Serif" font-size="10.00">vector</text>
</a>
</g>
</g>
<!-- Node2&#45;&gt;Node4 -->
<g id="edge3_Node000002_Node000004" class="edge">
<title>Node2&#45;&gt;Node4</title>
<g id="a_edge3_Node000002_Node000004"><a xlink:title=" ">
<path fill="none" stroke="#63b8ff" d="M451.31,-171.17C523.72,-167.28 640.82,-156.85 738,-129 828.35,-103.11 927.11,-49.44 970.89,-24.19"/>
<polygon fill="#63b8ff" stroke="#63b8ff" points="972.73,-27.17 979.62,-19.11 969.21,-21.12 972.73,-27.17"/>
</a>
</g>
</g>
<!-- Node5 -->
<g id="Node000005" class="node">
<title>Node5</title>
<g id="a_Node000005"><a xlink:title=" ">
<polygon fill="#e0e0e0" stroke="#999999" points="915,-129 877,-129 877,-110 915,-110 915,-129"/>
<text text-anchor="middle" x="896" y="-117" font-family="Helvetica,sans-Serif" font-size="10.00">map</text>
</a>
</g>
</g>
<!-- Node2&#45;&gt;Node5 -->
<g id="edge4_Node000002_Node000005" class="edge">
<title>Node2&#45;&gt;Node5</title>
<g id="a_edge4_Node000002_Node000005"><a xlink:title=" ">
<path fill="none" stroke="#63b8ff" d="M451.11,-168.54C564.14,-160.07 785.7,-142.45 863,-129 864.28,-128.78 865.58,-128.53 866.89,-128.27"/>
<polygon fill="#63b8ff" stroke="#63b8ff" points="867.95,-131.61 876.92,-125.97 866.39,-124.79 867.95,-131.61"/>
</a>
</g>
</g>
<!-- Node6 -->
<g id="Node000006" class="node">
<title>Node6</title>
<g id="a_Node000006"><a xlink:title=" ">
<polygon fill="#e0e0e0" stroke="#999999" points="106,-19 46,-19 46,0 106,0 106,-19"/>
<text text-anchor="middle" x="76" y="-7" font-family="Helvetica,sans-Serif" font-size="10.00">iostream</text>
</a>
</g>
</g>
<!-- Node2&#45;&gt;Node6 -->
<g id="edge5_Node000002_Node000006" class="edge">
<title>Node2&#45;&gt;Node6</title>
<g id="a_edge5_Node000002_Node000006"><a xlink:title=" ">
<path fill="none" stroke="#63b8ff" d="M314.88,-169.03C248.83,-163.43 154.54,-151.68 126,-129 94.63,-104.07 82.67,-55.87 78.32,-29.27"/>
<polygon fill="#63b8ff" stroke="#63b8ff" points="81.74,-28.42 76.86,-19.02 74.81,-29.42 81.74,-28.42"/>
</a>
</g>
</g>
<!-- Node7 -->
<g id="Node000007" class="node">
<title>Node7</title>
<g id="a_Node000007"><a xlink:title=" ">
<polygon fill="#e0e0e0" stroke="#999999" points="845,-19 801,-19 801,0 845,0 845,-19"/>
<text text-anchor="middle" x="823" y="-7" font-family="Helvetica,sans-Serif" font-size="10.00">string</text>
</a>
</g>
</g>
<!-- Node2&#45;&gt;Node7 -->
<g id="edge6_Node000002_Node000007" class="edge">
<title>Node2&#45;&gt;Node7</title>
<g id="a_edge6_Node000002_Node000007"><a xlink:title=" ">
<path fill="none" stroke="#63b8ff" d="M451.28,-167.6C542.28,-159.25 694.44,-143.39 716,-129 747.64,-107.88 733.22,-82.97 759,-55 770.22,-42.83 785.33,-32.13 798.05,-24.28"/>
<polygon fill="#63b8ff" stroke="#63b8ff" points="799.99,-27.19 806.8,-19.08 796.41,-21.18 799.99,-27.19"/>
</a>
</g>
</g>
<!-- Node8 -->
<g id="Node000008" class="node">
<title>Node8</title>
<g id="a_Node000008"><a xlink:title=" ">
<polygon fill="#e0e0e0" stroke="#999999" points="1108,-19 1052,-19 1052,0 1108,0 1108,-19"/>
<text text-anchor="middle" x="1080" y="-7" font-family="Helvetica,sans-Serif" font-size="10.00">sstream</text>
</a>
</g>
</g>
<!-- Node2&#45;&gt;Node8 -->
<g id="edge7_Node000002_Node000008" class="edge">
<title>Node2&#45;&gt;Node8</title>
<g id="a_edge7_Node000002_Node000008"><a xlink:title=" ">
<path fill="none" stroke="#63b8ff" d="M451.23,-167.98C547.4,-159.83 717.8,-143.93 778,-129 883.8,-102.77 1002.22,-48.48 1053.72,-23.54"/>
<polygon fill="#63b8ff" stroke="#63b8ff" points="1055.37,-26.63 1062.83,-19.1 1052.3,-20.34 1055.37,-26.63"/>
</a>
</g>
</g>
<!-- Node9 -->
<g id="Node000009" class="node">
<title>Node9</title>
<g id="a_Node000009"><a xlink:title=" ">
<polygon fill="#e0e0e0" stroke="#999999" points="278,-129 214,-129 214,-110 278,-110 278,-129"/>
<text text-anchor="middle" x="246" y="-117" font-family="Helvetica,sans-Serif" font-size="10.00">algorithm</text>
</a>
</g>
</g>
<!-- Node2&#45;&gt;Node9 -->
<g id="edge8_Node000002_Node000009" class="edge">
<title>Node2&#45;&gt;Node9</title>
<g id="a_edge8_Node000002_Node000009"><a xlink:title=" ">
<path fill="none" stroke="#63b8ff" d="M360.99,-164.98C338.55,-156.3 303.52,-142.75 278.01,-132.88"/>
<polygon fill="#63b8ff" stroke="#63b8ff" points="279,-129.51 268.41,-129.17 276.48,-136.04 279,-129.51"/>
</a>
</g>
</g>
<!-- Node10 -->
<g id="Node000010" class="node">
<title>Node10</title>
<g id="a_Node000010"><a xlink:title=" ">
<polygon fill="#e0e0e0" stroke="#999999" points="350,-129 296,-129 296,-110 350,-110 350,-129"/>
<text text-anchor="middle" x="323" y="-117" font-family="Helvetica,sans-Serif" font-size="10.00">dirent.h</text>
</a>
</g>
</g>
<!-- Node2&#45;&gt;Node10 -->
<g id="edge9_Node000002_Node000010" class="edge">
<title>Node2&#45;&gt;Node10</title>
<g id="a_edge9_Node000002_Node000010"><a xlink:title=" ">
<path fill="none" stroke="#63b8ff" d="M373.36,-164.98C364.49,-157.15 351.13,-145.34 340.39,-135.86"/>
<polygon fill="#63b8ff" stroke="#63b8ff" points="342.63,-133.17 332.82,-129.17 337.99,-138.41 342.63,-133.17"/>
</a>
</g>
</g>
<!-- Node11 -->
<g id="Node000011" class="node">
<title>Node11</title>
<g id="a_Node000011"><a xlink:title=" ">
<polygon fill="#e0e0e0" stroke="#999999" points="423.5,-129 368.5,-129 368.5,-110 423.5,-110 423.5,-129"/>
<text text-anchor="middle" x="396" y="-117" font-family="Helvetica,sans-Serif" font-size="10.00">fstream</text>
</a>
</g>
</g>
<!-- Node2&#45;&gt;Node11 -->
<g id="edge10_Node000002_Node000011" class="edge">
<title>Node2&#45;&gt;Node11</title>
<g id="a_edge10_Node000002_Node000011"><a xlink:title=" ">
<path fill="none" stroke="#63b8ff" d="M385.15,-164.75C386.87,-157.72 389.35,-147.62 391.5,-138.84"/>
<polygon fill="#63b8ff" stroke="#63b8ff" points="394.91,-139.63 393.89,-129.09 388.11,-137.97 394.91,-139.63"/>
</a>
</g>
</g>
<!-- Node12 -->
<g id="Node000012" class="node">
<title>Node12</title>
<g id="a_Node000012"><a xlink:title=" ">
<polygon fill="#e0e0e0" stroke="#999999" points="494.5,-129 441.5,-129 441.5,-110 494.5,-110 494.5,-129"/>
<text text-anchor="middle" x="468" y="-117" font-family="Helvetica,sans-Serif" font-size="10.00">limits.h</text>
</a>
</g>
</g>
<!-- Node2&#45;&gt;Node12 -->
<g id="edge11_Node000002_Node000012" class="edge">
<title>Node2&#45;&gt;Node12</title>
<g id="a_edge11_Node000002_Node000012"><a xlink:title=" ">
<path fill="none" stroke="#63b8ff" d="M396.66,-164.98C409.84,-156.77 430.03,-144.18 445.57,-134.49"/>
<polygon fill="#63b8ff" stroke="#63b8ff" points="447.46,-137.43 454.09,-129.17 443.76,-131.49 447.46,-137.43"/>
</a>
</g>
</g>
<!-- Node13 -->
<g id="Node000013" class="node">
<title>Node13</title>
<g id="a_Node000013"><a xlink:title=" ">
<polygon fill="#e0e0e0" stroke="#999999" points="464,-19 400,-19 400,0 464,0 464,-19"/>
<text text-anchor="middle" x="432" y="-7" font-family="Helvetica,sans-Serif" font-size="10.00">sys/stat.h</text>
</a>
</g>
</g>
<!-- Node2&#45;&gt;Node13 -->
<g id="edge12_Node000002_Node000013" class="edge">
<title>Node2&#45;&gt;Node13</title>
<g id="a_edge12_Node000002_Node000013"><a xlink:title=" ">
<path fill="none" stroke="#63b8ff" d="M314.99,-170.92C249.08,-166.82 155.82,-156.25 133,-129 127.58,-122.53 128.06,-116.85 133,-110 192.23,-27.87 322.12,-12.49 389.53,-10.27"/>
<polygon fill="#63b8ff" stroke="#63b8ff" points="389.88,-13.76 399.79,-10.02 389.71,-6.76 389.88,-13.76"/>
</a>
</g>
</g>
<!-- Node14 -->
<g id="Node000014" class="node">
<title>Node14</title>
<g id="a_Node000014"><a xlink:href="../../d7/d2f/Location_8hpp.html" target="_top" xlink:title=" ">
<polygon fill="white" stroke="#666666" points="706.5,-129 627.5,-129 627.5,-110 706.5,-110 706.5,-129"/>
<text text-anchor="middle" x="667" y="-117" font-family="Helvetica,sans-Serif" font-size="10.00">Location.hpp</text>
</a>
</g>
</g>
<!-- Node2&#45;&gt;Node14 -->
<g id="edge13_Node000002_Node000014" class="edge">
<title>Node2&#45;&gt;Node14</title>
<g id="a_edge13_Node000002_Node000014"><a xlink:title=" ">
<path fill="none" stroke="#63b8ff" d="M428.63,-164.98C480.33,-155.34 564.31,-139.66 617.55,-129.73"/>
<polygon fill="#63b8ff" stroke="#63b8ff" points="618.25,-133.16 627.44,-127.88 616.97,-126.28 618.25,-133.16"/>
</a>
</g>
</g>
<!-- Node14&#45;&gt;Node15 -->
<g id="edge14_Node000014_Node000015" class="edge">
<title>Node14&#45;&gt;Node15</title>
<g id="a_edge14_Node000014_Node000015"><a xlink:title=" ">
<path fill="none" stroke="#63b8ff" d="M662.82,-109.75C662.11,-102.72 662.82,-92.62 664.47,-83.84"/>
<polygon fill="#63b8ff" stroke="#63b8ff" points="667.87,-84.64 666.9,-74.09 661.08,-82.95 667.87,-84.64"/>
</a>
</g>
</g>
<!-- Node15&#45;&gt;Node4 -->
<g id="edge20_Node000015_Node000004" class="edge">
<title>Node15&#45;&gt;Node4</title>
<g id="a_edge20_Node000015_Node000004"><a xlink:title=" ">
<path fill="none" stroke="#63b8ff" d="M707.05,-57.88C768.82,-47.68 898.66,-26.24 960.23,-16.08"/>
<polygon fill="#63b8ff" stroke="#63b8ff" points="960.91,-19.51 970.2,-14.43 959.77,-12.6 960.91,-19.51"/>
</a>
</g>
</g>
<!-- Node15&#45;&gt;Node6 -->
<g id="edge15_Node000015_Node000006" class="edge">
<title>Node15&#45;&gt;Node6</title>
<g id="a_edge15_Node000015_Node000006"><a xlink:title=" ">
<path fill="none" stroke="#63b8ff" d="M638.76,-60.46C535.43,-51.29 227.05,-23.91 116.23,-14.07"/>
<polygon fill="#63b8ff" stroke="#63b8ff" points="116.4,-10.57 106.13,-13.17 115.78,-17.55 116.4,-10.57"/>
</a>
</g>
</g>
<!-- Node15&#45;&gt;Node7 -->
<g id="edge16_Node000015_Node000007" class="edge">
<title>Node15&#45;&gt;Node7</title>
<g id="a_edge16_Node000015_Node000007"><a xlink:title=" ">
<path fill="none" stroke="#63b8ff" d="M697.1,-54.98C722.62,-45.97 763.03,-31.69 791.16,-21.75"/>
<polygon fill="#63b8ff" stroke="#63b8ff" points="792.65,-24.94 800.91,-18.3 790.32,-18.33 792.65,-24.94"/>
</a>
</g>
</g>
<!-- Node15&#45;&gt;Node8 -->
<g id="edge18_Node000015_Node000008" class="edge">
<title>Node15&#45;&gt;Node8</title>
<g id="a_edge18_Node000015_Node000008"><a xlink:title=" ">
<path fill="none" stroke="#63b8ff" d="M707.23,-59.59C770.47,-52.28 909.88,-35.75 1027,-19 1031.82,-18.31 1036.88,-17.55 1041.88,-16.77"/>
<polygon fill="#63b8ff" stroke="#63b8ff" points="1042.64,-20.2 1051.97,-15.18 1041.55,-13.28 1042.64,-20.2"/>
</a>
</g>
</g>
<!-- Node15&#45;&gt;Node13 -->
<g id="edge21_Node000015_Node000013" class="edge">
<title>Node15&#45;&gt;Node13</title>
<g id="a_edge21_Node000015_Node000013"><a xlink:title=" ">
<path fill="none" stroke="#63b8ff" d="M638.98,-56.02C595.71,-46.5 520.98,-30.07 474.14,-19.77"/>
<polygon fill="#63b8ff" stroke="#63b8ff" points="474.82,-16.33 464.3,-17.6 473.32,-23.17 474.82,-16.33"/>
</a>
</g>
</g>
<!-- Node15&#45;&gt;Node14 -->
<g id="edge23_Node000015_Node000014" class="edge">
<title>Node15&#45;&gt;Node14</title>
<g id="a_edge23_Node000015_Node000014"><a xlink:title=" ">
<path fill="none" stroke="#63b8ff" d="M677.16,-74.09C677.9,-81.06 677.2,-91.15 675.57,-99.95"/>
<polygon fill="#63b8ff" stroke="#63b8ff" points="672.15,-99.2 673.16,-109.75 678.95,-100.88 672.15,-99.2"/>
</a>
</g>
</g>
<!-- Node16 -->
<g id="Node000016" class="node">
<title>Node16</title>
<g id="a_Node000016"><a xlink:title=" ">
<polygon fill="#e0e0e0" stroke="#999999" points="621,-19 577,-19 577,0 621,0 621,-19"/>
<text text-anchor="middle" x="599" y="-7" font-family="Helvetica,sans-Serif" font-size="10.00">limits</text>
</a>
</g>
</g>
<!-- Node15&#45;&gt;Node16 -->
<g id="edge17_Node000015_Node000016" class="edge">
<title>Node15&#45;&gt;Node16</title>
<g id="a_edge17_Node000015_Node000016"><a xlink:title=" ">
<path fill="none" stroke="#63b8ff" d="M661.11,-54.98C649.85,-46.92 632.71,-34.65 619.29,-25.03"/>
<polygon fill="#63b8ff" stroke="#63b8ff" points="621.27,-22.15 611.11,-19.17 617.2,-27.84 621.27,-22.15"/>
</a>
</g>
</g>
<!-- Node17 -->
<g id="Node000017" class="node">
<title>Node17</title>
<g id="a_Node000017"><a xlink:title=" ">
<polygon fill="#e0e0e0" stroke="#999999" points="1195.5,-19 1146.5,-19 1146.5,0 1195.5,0 1195.5,-19"/>
<text text-anchor="middle" x="1171" y="-7" font-family="Helvetica,sans-Serif" font-size="10.00">cstdlib</text>
</a>
</g>
</g>
<!-- Node15&#45;&gt;Node17 -->
<g id="edge19_Node000015_Node000017" class="edge">
<title>Node15&#45;&gt;Node17</title>
<g id="a_edge19_Node000015_Node000017"><a xlink:title=" ">
<path fill="none" stroke="#63b8ff" d="M707.05,-60.74C781.54,-54.57 964.48,-38.63 1117,-19 1123.15,-18.21 1129.68,-17.27 1135.99,-16.3"/>
<polygon fill="#63b8ff" stroke="#63b8ff" points="1136.97,-19.69 1146.31,-14.69 1135.89,-12.78 1136.97,-19.69"/>
</a>
</g>
</g>
<!-- Node18 -->
<g id="Node000018" class="node">
<title>Node18</title>
<g id="a_Node000018"><a xlink:title=" ">
<polygon fill="#e0e0e0" stroke="#999999" points="701,-19 645,-19 645,0 701,0 701,-19"/>
<text text-anchor="middle" x="673" y="-7" font-family="Helvetica,sans-Serif" font-size="10.00">unistd.h</text>
</a>
</g>
</g>
<!-- Node15&#45;&gt;Node18 -->
<g id="edge22_Node000015_Node000018" class="edge">
<title>Node15&#45;&gt;Node18</title>
<g id="a_edge22_Node000015_Node000018"><a xlink:title=" ">
<path fill="none" stroke="#63b8ff" d="M673,-54.75C673,-47.8 673,-37.85 673,-29.13"/>
<polygon fill="#63b8ff" stroke="#63b8ff" points="676.5,-29.09 673,-19.09 669.5,-29.09 676.5,-29.09"/>
</a>
</g>
</g>
<!-- Node20&#45;&gt;Node2 -->
<g id="edge28_Node000020_Node000002" class="edge">
<title>Node20&#45;&gt;Node2</title>
<g id="a_edge28_Node000020_Node000002"><a xlink:title=" ">
<path fill="none" stroke="#63b8ff" d="M592.16,-329.77C579.16,-320.89 558.55,-306.68 541,-294 490.62,-257.61 432.38,-213.35 402.66,-190.6"/>
<polygon fill="#63b8ff" stroke="#63b8ff" points="404.46,-187.57 394.39,-184.27 400.2,-193.13 404.46,-187.57"/>
</a>
</g>
</g>
<!-- Node20&#45;&gt;Node5 -->
<g id="edge29_Node000020_Node000005" class="edge">
<title>Node20&#45;&gt;Node5</title>
<g id="a_edge29_Node000020_Node000005"><a xlink:title=" ">
<path fill="none" stroke="#63b8ff" d="M599.05,-329.62C581.08,-301.62 531.18,-214.14 574,-165 578.81,-159.48 787.83,-133.62 866.49,-124.06"/>
<polygon fill="#63b8ff" stroke="#63b8ff" points="867.18,-127.5 876.68,-122.82 866.34,-120.55 867.18,-127.5"/>
</a>
</g>
</g>
<!-- Node20&#45;&gt;Node6 -->
<g id="edge27_Node000020_Node000006" class="edge">
<title>Node20&#45;&gt;Node6</title>
<g id="a_edge27_Node000020_Node000006"><a xlink:title=" ">
<path fill="none" stroke="#63b8ff" d="M544.78,-330.89C391.75,-311.16 0,-257.97 0,-230.5 0,-230.5 0,-230.5 0,-118.5 0,-79.47 33.61,-44.58 56.13,-25.6"/>
<polygon fill="#63b8ff" stroke="#63b8ff" points="58.56,-28.14 64.12,-19.12 54.15,-22.7 58.56,-28.14"/>
</a>
</g>
</g>
<!-- Node20&#45;&gt;Node19 -->
<g id="edge30_Node000020_Node000019" class="edge">
<title>Node20&#45;&gt;Node19</title>
<g id="a_edge30_Node000020_Node000019"><a xlink:title=" ">
<path fill="none" stroke="#63b8ff" d="M665.14,-333.55C755.85,-325.97 933.37,-310.7 1094.8,-294.1"/>
<polygon fill="#63b8ff" stroke="#63b8ff" points="1095.33,-297.56 1104.92,-293.06 1094.61,-290.6 1095.33,-297.56"/>
</a>
</g>
</g>
<!-- Node21 -->
<g id="Node000021" class="node">
<title>Node21</title>
<g id="a_Node000021"><a xlink:href="../../dd/df5/Socket_8hpp.html" target="_top" xlink:title=" ">
<polygon fill="white" stroke="#666666" points="833,-239 763,-239 763,-220 833,-220 833,-239"/>
<text text-anchor="middle" x="798" y="-227" font-family="Helvetica,sans-Serif" font-size="10.00">Socket.hpp</text>
</a>
</g>
</g>
<!-- Node20&#45;&gt;Node21 -->
<g id="edge31_Node000020_Node000021" class="edge">
<title>Node20&#45;&gt;Node21</title>
<g id="a_edge31_Node000020_Node000021"><a xlink:title=" ">
<path fill="none" stroke="#63b8ff" d="M620.47,-329.84C654.01,-311.08 733.63,-266.52 773.86,-244.01"/>
<polygon fill="#63b8ff" stroke="#63b8ff" points="775.71,-246.98 782.73,-239.05 772.29,-240.88 775.71,-246.98"/>
</a>
</g>
</g>
<!-- Node25 -->
<g id="Node000025" class="node">
<title>Node25</title>
<g id="a_Node000025"><a xlink:href="../../dd/d60/EpollHandler_8hpp.html" target="_top" xlink:title=" ">
<polygon fill="white" stroke="#666666" points="1086.5,-294 987.5,-294 987.5,-275 1086.5,-275 1086.5,-294"/>
<text text-anchor="middle" x="1037" y="-282" font-family="Helvetica,sans-Serif" font-size="10.00">EpollHandler.hpp</text>
</a>
</g>
</g>
<!-- Node20&#45;&gt;Node25 -->
<g id="edge42_Node000020_Node000025" class="edge">
<title>Node20&#45;&gt;Node25</title>
<g id="a_edge42_Node000020_Node000025"><a xlink:title=" ">
<path fill="none" stroke="#63b8ff" d="M665.07,-331.13C747.64,-321 895.3,-302.88 977.54,-292.79"/>
<polygon fill="#63b8ff" stroke="#63b8ff" points="977.98,-296.27 987.48,-291.57 977.13,-289.32 977.98,-296.27"/>
</a>
</g>
</g>
<!-- Node21&#45;&gt;Node2 -->
<g id="edge32_Node000021_Node000002" class="edge">
<title>Node21&#45;&gt;Node2</title>
<g id="a_edge32_Node000021_Node000002"><a xlink:title=" ">
<path fill="none" stroke="#63b8ff" d="M762.97,-224.03C696.39,-215.52 550.15,-196.85 459.76,-185.3"/>
<polygon fill="#63b8ff" stroke="#63b8ff" points="460.2,-181.83 449.84,-184.04 459.31,-188.77 460.2,-181.83"/>
</a>
</g>
</g>
<!-- Node21&#45;&gt;Node4 -->
<g id="edge40_Node000021_Node000004" class="edge">
<title>Node21&#45;&gt;Node4</title>
<g id="a_edge40_Node000021_Node000004"><a xlink:title=" ">
<path fill="none" stroke="#63b8ff" d="M808.14,-219.8C823.14,-207.11 852.37,-183.04 879,-165 905.38,-147.13 919.69,-152.69 941,-129 967.65,-99.37 982.77,-54.14 989.58,-28.99"/>
<polygon fill="#63b8ff" stroke="#63b8ff" points="992.98,-29.82 992.06,-19.26 986.2,-28.08 992.98,-29.82"/>
</a>
</g>
</g>
<!-- Node21&#45;&gt;Node6 -->
<g id="edge35_Node000021_Node000006" class="edge">
<title>Node21&#45;&gt;Node6</title>
<g id="a_edge35_Node000021_Node000006"><a xlink:title=" ">
<path fill="none" stroke="#63b8ff" d="M762.57,-228.24C635.72,-226.59 206.42,-214.66 106,-129 77.03,-104.28 73.93,-55.99 74.67,-29.32"/>
<polygon fill="#63b8ff" stroke="#63b8ff" points="78.18,-29.21 75.18,-19.05 71.19,-28.86 78.18,-29.21"/>
</a>
</g>
</g>
<!-- Node21&#45;&gt;Node7 -->
<g id="edge36_Node000021_Node000007" class="edge">
<title>Node21&#45;&gt;Node7</title>
<g id="a_edge36_Node000021_Node000007"><a xlink:title=" ">
<path fill="none" stroke="#63b8ff" d="M801.82,-219.97C808.18,-206.6 822.14,-180.64 841,-165 871.95,-139.33 901.94,-162.62 924,-129 951.07,-87.75 888.19,-45.08 849.87,-23.99"/>
<polygon fill="#63b8ff" stroke="#63b8ff" points="851.2,-20.73 840.73,-19.1 847.9,-26.9 851.2,-20.73"/>
</a>
</g>
</g>
<!-- Node21&#45;&gt;Node8 -->
<g id="edge38_Node000021_Node000008" class="edge">
<title>Node21&#45;&gt;Node8</title>
<g id="a_edge38_Node000021_Node000008"><a xlink:title=" ">
<path fill="none" stroke="#63b8ff" d="M814.67,-219.86C831.21,-211.17 857.17,-197.2 879,-184 916.87,-161.1 927.77,-157.04 962,-129 1002.4,-95.9 1044.3,-50.8 1065.63,-26.91"/>
<polygon fill="#63b8ff" stroke="#63b8ff" points="1068.51,-28.94 1072.52,-19.13 1063.27,-24.3 1068.51,-28.94"/>
</a>
</g>
</g>
<!-- Node21&#45;&gt;Node16 -->
<g id="edge37_Node000021_Node000016" class="edge">
<title>Node21&#45;&gt;Node16</title>
<g id="a_edge37_Node000021_Node000016"><a xlink:title=" ">
<path fill="none" stroke="#63b8ff" d="M795.4,-219.96C790.72,-206.08 779.49,-178.83 760,-165 695.24,-119.04 635.17,-190.55 585,-129 561.53,-100.21 577.8,-53.62 589.66,-28.29"/>
<polygon fill="#63b8ff" stroke="#63b8ff" points="592.9,-29.64 594.2,-19.13 586.62,-26.54 592.9,-29.64"/>
</a>
</g>
</g>
<!-- Node21&#45;&gt;Node17 -->
<g id="edge39_Node000021_Node000017" class="edge">
<title>Node21&#45;&gt;Node17</title>
<g id="a_edge39_Node000021_Node000017"><a xlink:title=" ">
<path fill="none" stroke="#63b8ff" d="M823.1,-219.96C845.81,-211.86 879.92,-198.76 908,-184 1003.84,-133.64 1108.69,-57.44 1151.33,-25.46"/>
<polygon fill="#63b8ff" stroke="#63b8ff" points="1153.58,-28.15 1159.46,-19.33 1149.37,-22.56 1153.58,-28.15"/>
</a>
</g>
</g>
<!-- Node22 -->
<g id="Node000022" class="node">
<title>Node22</title>
<g id="a_Node000022"><a xlink:title=" ">
<polygon fill="#e0e0e0" stroke="#999999" points="1028.5,-184 959.5,-184 959.5,-165 1028.5,-165 1028.5,-184"/>
<text text-anchor="middle" x="994" y="-172" font-family="Helvetica,sans-Serif" font-size="10.00">sys/epoll.h</text>
</a>
</g>
</g>
<!-- Node21&#45;&gt;Node22 -->
<g id="edge33_Node000021_Node000022" class="edge">
<title>Node21&#45;&gt;Node22</title>
<g id="a_edge33_Node000021_Node000022"><a xlink:title=" ">
<path fill="none" stroke="#63b8ff" d="M829.49,-219.98C862.82,-210.97 915.6,-196.7 952.35,-186.76"/>
<polygon fill="#63b8ff" stroke="#63b8ff" points="953.52,-190.07 962.26,-184.08 951.7,-183.31 953.52,-190.07"/>
</a>
</g>
</g>
<!-- Node23 -->
<g id="Node000023" class="node">
<title>Node23</title>
<g id="a_Node000023"><a xlink:title=" ">
<polygon fill="#e0e0e0" stroke="#999999" points="655,-184 583,-184 583,-165 655,-165 655,-184"/>
<text text-anchor="middle" x="619" y="-172" font-family="Helvetica,sans-Serif" font-size="10.00">sys/types.h</text>
</a>
</g>
</g>
<!-- Node21&#45;&gt;Node23 -->
<g id="edge34_Node000021_Node000023" class="edge">
<title>Node21&#45;&gt;Node23</title>
<g id="a_edge34_Node000021_Node000023"><a xlink:title=" ">
<path fill="none" stroke="#63b8ff" d="M769.24,-219.98C739.06,-211.05 691.43,-196.94 657.9,-187.02"/>
<polygon fill="#63b8ff" stroke="#63b8ff" points="658.57,-183.57 647.98,-184.08 656.58,-190.28 658.57,-183.57"/>
</a>
</g>
</g>
<!-- Node24 -->
<g id="Node000024" class="node">
<title>Node24</title>
<g id="a_Node000024"><a xlink:title=" ">
<polygon fill="#e0e0e0" stroke="#999999" points="750.5,-184 673.5,-184 673.5,-165 750.5,-165 750.5,-184"/>
<text text-anchor="middle" x="712" y="-172" font-family="Helvetica,sans-Serif" font-size="10.00">sys/socket.h</text>
</a>
</g>
</g>
<!-- Node21&#45;&gt;Node24 -->
<g id="edge41_Node000021_Node000024" class="edge">
<title>Node21&#45;&gt;Node24</title>
<g id="a_edge41_Node000021_Node000024"><a xlink:title=" ">
<path fill="none" stroke="#63b8ff" d="M784.18,-219.98C770.85,-211.77 750.42,-199.18 734.69,-189.49"/>
<polygon fill="#63b8ff" stroke="#63b8ff" points="736.42,-186.44 726.07,-184.17 732.75,-192.4 736.42,-186.44"/>
</a>
</g>
</g>
<!-- Node25&#45;&gt;Node4 -->
<g id="edge49_Node000025_Node000004" class="edge">
<title>Node25&#45;&gt;Node4</title>
<g id="a_edge49_Node000025_Node000004"><a xlink:title=" ">
<path fill="none" stroke="#63b8ff" d="M1086.59,-276.22C1108.98,-270.19 1133.41,-259.16 1147,-239 1165.39,-211.73 1159.51,-195.42 1147,-165 1120.5,-100.58 1052.72,-48.76 1016.93,-24.85"/>
<polygon fill="#63b8ff" stroke="#63b8ff" points="1018.44,-21.65 1008.15,-19.11 1014.61,-27.51 1018.44,-21.65"/>
</a>
</g>
</g>
<!-- Node25&#45;&gt;Node6 -->
<g id="edge44_Node000025_Node000006" class="edge">
<title>Node25&#45;&gt;Node6</title>
<g id="a_edge44_Node000025_Node000006"><a xlink:title=" ">
<path fill="none" stroke="#63b8ff" d="M987.26,-277.83C930.42,-270.85 834.82,-257.6 754,-239 672.48,-220.23 645.1,-228.07 574,-184 535.52,-160.15 543.27,-132.53 504,-110 375.44,-36.26 195.51,-17.14 116.22,-12.2"/>
<polygon fill="#63b8ff" stroke="#63b8ff" points="116.35,-8.7 106.17,-11.62 115.95,-15.69 116.35,-8.7"/>
</a>
</g>
</g>
<!-- Node25&#45;&gt;Node7 -->
<g id="edge45_Node000025_Node000007" class="edge">
<title>Node25&#45;&gt;Node7</title>
<g id="a_edge45_Node000025_Node000007"><a xlink:title=" ">
<path fill="none" stroke="#63b8ff" d="M1052.65,-274.84C1064.76,-267.18 1080.66,-254.77 1088,-239 1101.88,-209.18 1104.68,-193.91 1089,-165 1040.01,-74.65 914.35,-32.83 854.98,-17.63"/>
<polygon fill="#63b8ff" stroke="#63b8ff" points="855.59,-14.18 845.04,-15.18 853.91,-20.97 855.59,-14.18"/>
</a>
</g>
</g>
<!-- Node25&#45;&gt;Node8 -->
<g id="edge47_Node000025_Node000008" class="edge">
<title>Node25&#45;&gt;Node8</title>
<g id="a_edge47_Node000025_Node000008"><a xlink:title=" ">
<path fill="none" stroke="#63b8ff" d="M1086.7,-275.08C1124.89,-267.48 1173.07,-255.04 1185,-239 1238.24,-167.4 1139.55,-64.49 1097.58,-25.89"/>
<polygon fill="#63b8ff" stroke="#63b8ff" points="1099.78,-23.16 1090.01,-19.06 1095.09,-28.36 1099.78,-23.16"/>
</a>
</g>
</g>
<!-- Node25&#45;&gt;Node15 -->
<g id="edge50_Node000025_Node000015" class="edge">
<title>Node25&#45;&gt;Node15</title>
<g id="a_edge50_Node000025_Node000015"><a xlink:title=" ">
<path fill="none" stroke="#63b8ff" d="M1046.61,-274.69C1054.87,-266.41 1066.2,-253.18 1071,-239 1081.54,-207.85 1089.74,-192.03 1071,-165 1030.6,-106.76 812.43,-78.93 717.34,-69.44"/>
<polygon fill="#63b8ff" stroke="#63b8ff" points="717.48,-65.93 707.19,-68.44 716.8,-72.9 717.48,-65.93"/>
</a>
</g>
</g>
<!-- Node25&#45;&gt;Node16 -->
<g id="edge46_Node000025_Node000016" class="edge">
<title>Node25&#45;&gt;Node16</title>
<g id="a_edge46_Node000025_Node000016"><a xlink:title=" ">
<path fill="none" stroke="#63b8ff" d="M1040.5,-274.96C1048.72,-253.37 1066.52,-196.07 1038,-165 974.81,-96.15 687.72,-192.34 619,-129 591.6,-103.75 592.7,-56.07 595.86,-29.53"/>
<polygon fill="#63b8ff" stroke="#63b8ff" points="599.38,-29.68 597.32,-19.28 592.45,-28.69 599.38,-29.68"/>
</a>
</g>
</g>
<!-- Node25&#45;&gt;Node17 -->
<g id="edge48_Node000025_Node000017" class="edge">
<title>Node25&#45;&gt;Node17</title>
<g id="a_edge48_Node000025_Node000017"><a xlink:title=" ">
<path fill="none" stroke="#63b8ff" d="M1082.48,-274.98C1124.64,-266.43 1183.66,-252.61 1203,-239 1231.08,-219.24 1247,-209.84 1247,-175.5 1247,-175.5 1247,-175.5 1247,-118.5 1247,-79.47 1213.39,-44.58 1190.87,-25.6"/>
<polygon fill="#63b8ff" stroke="#63b8ff" points="1192.85,-22.7 1182.88,-19.12 1188.44,-28.14 1192.85,-22.7"/>
</a>
</g>
</g>
<!-- Node25&#45;&gt;Node21 -->
<g id="edge51_Node000025_Node000021" class="edge">
<title>Node25&#45;&gt;Node21</title>
<g id="a_edge51_Node000025_Node000021"><a xlink:title=" ">
<path fill="none" stroke="#63b8ff" d="M998.6,-274.98C956.16,-265.57 887.86,-250.43 842.96,-240.47"/>
<polygon fill="#63b8ff" stroke="#63b8ff" points="843.71,-237.05 833.19,-238.3 842.19,-243.89 843.71,-237.05"/>
</a>
</g>
</g>
<!-- Node25&#45;&gt;Node22 -->
<g id="edge43_Node000025_Node000022" class="edge">
<title>Node25&#45;&gt;Node22</title>
<g id="a_edge43_Node000025_Node000022"><a xlink:title=" ">
<path fill="none" stroke="#63b8ff" d="M1033.48,-274.66C1026.45,-257.01 1010.56,-217.09 1001.22,-193.64"/>
<polygon fill="#63b8ff" stroke="#63b8ff" points="1004.4,-192.15 997.45,-184.16 997.89,-194.74 1004.4,-192.15"/>
</a>
</g>
</g>
</g>
</svg>
