<?xml version="1.0" encoding="UTF-8" standalone="no"?>
<!DOCTYPE svg PUBLIC "-//W3C//DTD SVG 1.1//EN"
 "http://www.w3.org/Graphics/SVG/1.1/DTD/svg11.dtd">
<!-- Generated by graphviz version 2.43.0 (0)
 -->
<!-- Title: srcs/request/parseBody.cpp Pages: 1 -->
<svg width="962pt" height="247pt"
 viewBox="0.00 0.00 961.50 247.00" xmlns="http://www.w3.org/2000/svg" xmlns:xlink="http://www.w3.org/1999/xlink">
<g id="graph0" class="graph" transform="scale(1 1) rotate(0) translate(4 243)">
<title>srcs/request/parseBody.cpp</title>
<!-- Node1 -->
<g id="Node000001" class="node">
<title>Node1</title>
<g id="a_Node000001"><a xlink:title=" ">
<polygon fill="#999999" stroke="#666666" points="624,-239 475,-239 475,-220 624,-220 624,-239"/>
<text text-anchor="middle" x="549.5" y="-227" font-family="Helvetica,sans-Serif" font-size="10.00">srcs/request/parseBody.cpp</text>
</a>
</g>
</g>
<!-- Node2 -->
<g id="Node000002" class="node">
<title>Node2</title>
<g id="a_Node000002"><a xlink:href="../../d6/d6f/request_8hpp.html" target="_top" xlink:title=" ">
<polygon fill="white" stroke="#666666" points="482.5,-184 346.5,-184 346.5,-165 482.5,-165 482.5,-184"/>
<text text-anchor="middle" x="414.5" y="-172" font-family="Helvetica,sans-Serif" font-size="10.00">../../includes/request.hpp</text>
</a>
</g>
</g>
<!-- Node1&#45;&gt;Node2 -->
<g id="edge1_Node000001_Node000002" class="edge">
<title>Node1&#45;&gt;Node2</title>
<g id="a_edge1_Node000001_Node000002"><a xlink:title=" ">
<path fill="none" stroke="#63b8ff" d="M527.81,-219.98C505.7,-211.3 471.18,-197.75 446.05,-187.88"/>
<polygon fill="#63b8ff" stroke="#63b8ff" points="447.17,-184.57 436.58,-184.17 444.61,-191.08 447.17,-184.57"/>
</a>
</g>
</g>
<!-- Node15 -->
<g id="Node000015" class="node">
<title>Node15</title>
<g id="a_Node000015"><a xlink:href="../../de/d3d/Server_8hpp.html" target="_top" xlink:title=" ">
<polygon fill="white" stroke="#666666" points="243.5,-74 175.5,-74 175.5,-55 243.5,-55 243.5,-74"/>
<text text-anchor="middle" x="209.5" y="-62" font-family="Helvetica,sans-Serif" font-size="10.00">Server.hpp</text>
</a>
</g>
</g>
<!-- Node1&#45;&gt;Node15 -->
<g id="edge24_Node000001_Node000015" class="edge">
<title>Node1&#45;&gt;Node15</title>
<g id="a_edge24_Node000001_Node000015"><a xlink:title=" ">
<path fill="none" stroke="#63b8ff" d="M474.86,-223.68C355.91,-214.27 131.8,-188.88 83.5,-129 57.76,-97.09 119.51,-79.77 165.37,-71.59"/>
<polygon fill="#63b8ff" stroke="#63b8ff" points="166.18,-75.01 175.46,-69.89 165.02,-68.1 166.18,-75.01"/>
</a>
</g>
</g>
<!-- Node19 -->
<g id="Node000019" class="node">
<title>Node19</title>
<g id="a_Node000019"><a xlink:href="../../d7/d0e/ResponseMessage_8hpp.html" target="_top" xlink:title=" ">
<polygon fill="white" stroke="#666666" points="807.5,-184 617.5,-184 617.5,-165 807.5,-165 807.5,-184"/>
<text text-anchor="middle" x="712.5" y="-172" font-family="Helvetica,sans-Serif" font-size="10.00">../../includes/ResponseMessage.hpp</text>
</a>
</g>
</g>
<!-- Node1&#45;&gt;Node19 -->
<g id="edge25_Node000001_Node000019" class="edge">
<title>Node1&#45;&gt;Node19</title>
<g id="a_edge25_Node000001_Node000019"><a xlink:title=" ">
<path fill="none" stroke="#63b8ff" d="M575.69,-219.98C602.94,-211.13 645.8,-197.19 676.28,-187.28"/>
<polygon fill="#63b8ff" stroke="#63b8ff" points="677.68,-190.5 686.11,-184.08 675.51,-183.85 677.68,-190.5"/>
</a>
</g>
</g>
<!-- Node21 -->
<g id="Node000021" class="node">
<title>Node21</title>
<g id="a_Node000021"><a xlink:href="../../df/d95/colors_8hpp.html" target="_top" xlink:title=" ">
<polygon fill="white" stroke="#666666" points="953.5,-184 825.5,-184 825.5,-165 953.5,-165 953.5,-184"/>
<text text-anchor="middle" x="889.5" y="-172" font-family="Helvetica,sans-Serif" font-size="10.00">../../includes/colors.hpp</text>
</a>
</g>
</g>
<!-- Node1&#45;&gt;Node21 -->
<g id="edge34_Node000001_Node000021" class="edge">
<title>Node1&#45;&gt;Node21</title>
<g id="a_edge34_Node000001_Node000021"><a xlink:title=" ">
<path fill="none" stroke="#63b8ff" d="M604.13,-219.98C664.26,-210.61 760.87,-195.55 824.76,-185.59"/>
<polygon fill="#63b8ff" stroke="#63b8ff" points="825.39,-189.04 834.73,-184.04 824.31,-182.12 825.39,-189.04"/>
</a>
</g>
</g>
<!-- Node3 -->
<g id="Node000003" class="node">
<title>Node3</title>
<g id="a_Node000003"><a xlink:title=" ">
<polygon fill="#e0e0e0" stroke="#999999" points="242,-129 189,-129 189,-110 242,-110 242,-129"/>
<text text-anchor="middle" x="215.5" y="-117" font-family="Helvetica,sans-Serif" font-size="10.00">cstddef</text>
</a>
</g>
</g>
<!-- Node2&#45;&gt;Node3 -->
<g id="edge2_Node000002_Node000003" class="edge">
<title>Node2&#45;&gt;Node3</title>
<g id="a_edge2_Node000002_Node000003"><a xlink:title=" ">
<path fill="none" stroke="#63b8ff" d="M382.53,-164.98C346.98,-155.52 289.65,-140.25 252.27,-130.29"/>
<polygon fill="#63b8ff" stroke="#63b8ff" points="252.85,-126.83 242.29,-127.63 251.05,-133.59 252.85,-126.83"/>
</a>
</g>
</g>
<!-- Node4 -->
<g id="Node000004" class="node">
<title>Node4</title>
<g id="a_Node000004"><a xlink:title=" ">
<polygon fill="#e0e0e0" stroke="#999999" points="47,-19 0,-19 0,0 47,0 47,-19"/>
<text text-anchor="middle" x="23.5" y="-7" font-family="Helvetica,sans-Serif" font-size="10.00">vector</text>
</a>
</g>
</g>
<!-- Node2&#45;&gt;Node4 -->
<g id="edge3_Node000002_Node000004" class="edge">
<title>Node2&#45;&gt;Node4</title>
<g id="a_edge3_Node000002_Node000004"><a xlink:title=" ">
<path fill="none" stroke="#63b8ff" d="M346.37,-172.77C258.3,-170.49 111.28,-161.72 69.5,-129 38.18,-104.47 28.16,-55.74 24.97,-29.04"/>
<polygon fill="#63b8ff" stroke="#63b8ff" points="28.46,-28.69 23.98,-19.09 21.49,-29.38 28.46,-28.69"/>
</a>
</g>
</g>
<!-- Node5 -->
<g id="Node000005" class="node">
<title>Node5</title>
<g id="a_Node000005"><a xlink:title=" ">
<polygon fill="#e0e0e0" stroke="#999999" points="556.5,-129 518.5,-129 518.5,-110 556.5,-110 556.5,-129"/>
<text text-anchor="middle" x="537.5" y="-117" font-family="Helvetica,sans-Serif" font-size="10.00">map</text>
</a>
</g>
</g>
<!-- Node2&#45;&gt;Node5 -->
<g id="edge4_Node000002_Node000005" class="edge">
<title>Node2&#45;&gt;Node5</title>
<g id="a_edge4_Node000002_Node000005"><a xlink:title=" ">
<path fill="none" stroke="#63b8ff" d="M434.26,-164.98C454.46,-156.28 486.05,-142.67 508.96,-132.8"/>
<polygon fill="#63b8ff" stroke="#63b8ff" points="510.39,-135.99 518.19,-128.82 507.62,-129.56 510.39,-135.99"/>
</a>
</g>
</g>
<!-- Node6 -->
<g id="Node000006" class="node">
<title>Node6</title>
<g id="a_Node000006"><a xlink:title=" ">
<polygon fill="#e0e0e0" stroke="#999999" points="485.5,-19 425.5,-19 425.5,0 485.5,0 485.5,-19"/>
<text text-anchor="middle" x="455.5" y="-7" font-family="Helvetica,sans-Serif" font-size="10.00">iostream</text>
</a>
</g>
</g>
<!-- Node2&#45;&gt;Node6 -->
<g id="edge5_Node000002_Node000006" class="edge">
<title>Node2&#45;&gt;Node6</title>
<g id="a_edge5_Node000002_Node000006"><a xlink:title=" ">
<path fill="none" stroke="#63b8ff" d="M416.7,-164.74C423.13,-139.2 441.93,-64.43 450.79,-29.23"/>
<polygon fill="#63b8ff" stroke="#63b8ff" points="454.24,-29.86 453.28,-19.31 447.45,-28.15 454.24,-29.86"/>
</a>
</g>
</g>
<!-- Node7 -->
<g id="Node000007" class="node">
<title>Node7</title>
<g id="a_Node000007"><a xlink:title=" ">
<polygon fill="#e0e0e0" stroke="#999999" points="547.5,-19 503.5,-19 503.5,0 547.5,0 547.5,-19"/>
<text text-anchor="middle" x="525.5" y="-7" font-family="Helvetica,sans-Serif" font-size="10.00">string</text>
</a>
</g>
</g>
<!-- Node2&#45;&gt;Node7 -->
<g id="edge6_Node000002_Node000007" class="edge">
<title>Node2&#45;&gt;Node7</title>
<g id="a_edge6_Node000002_Node000007"><a xlink:title=" ">
<path fill="none" stroke="#63b8ff" d="M420.47,-164.74C438.08,-138.87 490.1,-62.48 513.66,-27.88"/>
<polygon fill="#63b8ff" stroke="#63b8ff" points="516.77,-29.54 519.5,-19.31 510.98,-25.6 516.77,-29.54"/>
</a>
</g>
</g>
<!-- Node8 -->
<g id="Node000008" class="node">
<title>Node8</title>
<g id="a_Node000008"><a xlink:title=" ">
<polygon fill="#e0e0e0" stroke="#999999" points="407.5,-19 351.5,-19 351.5,0 407.5,0 407.5,-19"/>
<text text-anchor="middle" x="379.5" y="-7" font-family="Helvetica,sans-Serif" font-size="10.00">sstream</text>
</a>
</g>
</g>
<!-- Node2&#45;&gt;Node8 -->
<g id="edge7_Node000002_Node000008" class="edge">
<title>Node2&#45;&gt;Node8</title>
<g id="a_edge7_Node000002_Node000008"><a xlink:title=" ">
<path fill="none" stroke="#63b8ff" d="M412.62,-164.74C407.13,-139.2 391.08,-64.43 383.52,-29.23"/>
<polygon fill="#63b8ff" stroke="#63b8ff" points="386.91,-28.35 381.39,-19.31 380.07,-29.82 386.91,-28.35"/>
</a>
</g>
</g>
<!-- Node9 -->
<g id="Node000009" class="node">
<title>Node9</title>
<g id="a_Node000009"><a xlink:title=" ">
<polygon fill="#e0e0e0" stroke="#999999" points="638.5,-129 574.5,-129 574.5,-110 638.5,-110 638.5,-129"/>
<text text-anchor="middle" x="606.5" y="-117" font-family="Helvetica,sans-Serif" font-size="10.00">algorithm</text>
</a>
</g>
</g>
<!-- Node2&#45;&gt;Node9 -->
<g id="edge8_Node000002_Node000009" class="edge">
<title>Node2&#45;&gt;Node9</title>
<g id="a_edge8_Node000002_Node000009"><a xlink:title=" ">
<path fill="none" stroke="#63b8ff" d="M445.35,-164.98C478,-155.97 529.7,-141.7 565.7,-131.76"/>
<polygon fill="#63b8ff" stroke="#63b8ff" points="566.7,-135.12 575.41,-129.08 564.84,-128.37 566.7,-135.12"/>
</a>
</g>
</g>
<!-- Node10 -->
<g id="Node000010" class="node">
<title>Node10</title>
<g id="a_Node000010"><a xlink:title=" ">
<polygon fill="#e0e0e0" stroke="#999999" points="314.5,-129 260.5,-129 260.5,-110 314.5,-110 314.5,-129"/>
<text text-anchor="middle" x="287.5" y="-117" font-family="Helvetica,sans-Serif" font-size="10.00">dirent.h</text>
</a>
</g>
</g>
<!-- Node2&#45;&gt;Node10 -->
<g id="edge9_Node000002_Node000010" class="edge">
<title>Node2&#45;&gt;Node10</title>
<g id="a_edge9_Node000002_Node000010"><a xlink:title=" ">
<path fill="none" stroke="#63b8ff" d="M394.1,-164.98C373.48,-156.38 341.39,-142.99 317.81,-133.15"/>
<polygon fill="#63b8ff" stroke="#63b8ff" points="318.85,-129.79 308.28,-129.17 316.16,-136.25 318.85,-129.79"/>
</a>
</g>
</g>
<!-- Node11 -->
<g id="Node000011" class="node">
<title>Node11</title>
<g id="a_Node000011"><a xlink:title=" ">
<polygon fill="#e0e0e0" stroke="#999999" points="712,-129 657,-129 657,-110 712,-110 712,-129"/>
<text text-anchor="middle" x="684.5" y="-117" font-family="Helvetica,sans-Serif" font-size="10.00">fstream</text>
</a>
</g>
</g>
<!-- Node2&#45;&gt;Node11 -->
<g id="edge10_Node000002_Node000011" class="edge">
<title>Node2&#45;&gt;Node11</title>
<g id="a_edge10_Node000002_Node000011"><a xlink:title=" ">
<path fill="none" stroke="#63b8ff" d="M461.91,-164.98C506.94,-156.76 576.8,-143.71 646.77,-129.09"/>
<polygon fill="#63b8ff" stroke="#63b8ff" points="647.58,-132.5 656.64,-127.02 646.14,-125.65 647.58,-132.5"/>
</a>
</g>
</g>
<!-- Node12 -->
<g id="Node000012" class="node">
<title>Node12</title>
<g id="a_Node000012"><a xlink:title=" ">
<polygon fill="#e0e0e0" stroke="#999999" points="386,-129 333,-129 333,-110 386,-110 386,-129"/>
<text text-anchor="middle" x="359.5" y="-117" font-family="Helvetica,sans-Serif" font-size="10.00">limits.h</text>
</a>
</g>
</g>
<!-- Node2&#45;&gt;Node12 -->
<g id="edge11_Node000002_Node000012" class="edge">
<title>Node2&#45;&gt;Node12</title>
<g id="a_edge11_Node000002_Node000012"><a xlink:title=" ">
<path fill="none" stroke="#63b8ff" d="M405.42,-164.75C397.41,-157.03 385.54,-145.6 375.88,-136.28"/>
<polygon fill="#63b8ff" stroke="#63b8ff" points="378.04,-133.51 368.41,-129.09 373.19,-138.55 378.04,-133.51"/>
</a>
</g>
</g>
<!-- Node13 -->
<g id="Node000013" class="node">
<title>Node13</title>
<g id="a_Node000013"><a xlink:title=" ">
<polygon fill="#e0e0e0" stroke="#999999" points="129.5,-19 65.5,-19 65.5,0 129.5,0 129.5,-19"/>
<text text-anchor="middle" x="97.5" y="-7" font-family="Helvetica,sans-Serif" font-size="10.00">sys/stat.h</text>
</a>
</g>
</g>
<!-- Node2&#45;&gt;Node13 -->
<g id="edge12_Node000002_Node000013" class="edge">
<title>Node2&#45;&gt;Node13</title>
<g id="a_edge12_Node000002_Node000013"><a xlink:title=" ">
<path fill="none" stroke="#63b8ff" d="M346.46,-174.43C259.72,-173.98 116.95,-167.24 83.5,-129 59.05,-101.04 75.71,-54.12 87.9,-28.51"/>
<polygon fill="#63b8ff" stroke="#63b8ff" points="91.19,-29.75 92.56,-19.24 84.94,-26.6 91.19,-29.75"/>
</a>
</g>
</g>
<!-- Node14 -->
<g id="Node000014" class="node">
<title>Node14</title>
<g id="a_Node000014"><a xlink:href="../../d7/d2f/Location_8hpp.html" target="_top" xlink:title=" ">
<polygon fill="white" stroke="#666666" points="171,-129 92,-129 92,-110 171,-110 171,-129"/>
<text text-anchor="middle" x="131.5" y="-117" font-family="Helvetica,sans-Serif" font-size="10.00">Location.hpp</text>
</a>
</g>
</g>
<!-- Node2&#45;&gt;Node14 -->
<g id="edge13_Node000002_Node000014" class="edge">
<title>Node2&#45;&gt;Node14</title>
<g id="a_edge13_Node000002_Node000014"><a xlink:title=" ">
<path fill="none" stroke="#63b8ff" d="M369.03,-164.98C317.66,-155.36 234.3,-139.75 181.23,-129.81"/>
<polygon fill="#63b8ff" stroke="#63b8ff" points="181.84,-126.37 171.37,-127.97 180.55,-133.25 181.84,-126.37"/>
</a>
</g>
</g>
<!-- Node14&#45;&gt;Node15 -->
<g id="edge14_Node000014_Node000015" class="edge">
<title>Node14&#45;&gt;Node15</title>
<g id="a_edge14_Node000014_Node000015"><a xlink:title=" ">
<path fill="none" stroke="#63b8ff" d="M138.92,-109.98C149.2,-101.77 167.42,-89.18 182.89,-79.49"/>
<polygon fill="#63b8ff" stroke="#63b8ff" points="184.88,-82.37 191.59,-74.17 181.23,-76.39 184.88,-82.37"/>
</a>
</g>
</g>
<!-- Node15&#45;&gt;Node4 -->
<g id="edge20_Node000015_Node000004" class="edge">
<title>Node15&#45;&gt;Node4</title>
<g id="a_edge20_Node000015_Node000004"><a xlink:title=" ">
<path fill="none" stroke="#63b8ff" d="M179.62,-54.98C146.06,-45.42 91.75,-29.95 56.85,-20"/>
<polygon fill="#63b8ff" stroke="#63b8ff" points="57.69,-16.6 47.11,-17.23 55.77,-23.34 57.69,-16.6"/>
</a>
</g>
</g>
<!-- Node15&#45;&gt;Node6 -->
<g id="edge15_Node000015_Node000006" class="edge">
<title>Node15&#45;&gt;Node6</title>
<g id="a_edge15_Node000015_Node000006"><a xlink:title=" ">
<path fill="none" stroke="#63b8ff" d="M243.57,-56.21C282.68,-47.83 349.01,-33.6 415.47,-19.22"/>
<polygon fill="#63b8ff" stroke="#63b8ff" points="416.23,-22.63 425.27,-17.1 414.75,-15.79 416.23,-22.63"/>
</a>
</g>
</g>
<!-- Node15&#45;&gt;Node7 -->
<g id="edge16_Node000015_Node000007" class="edge">
<title>Node15&#45;&gt;Node7</title>
<g id="a_edge16_Node000015_Node000007"><a xlink:title=" ">
<path fill="none" stroke="#63b8ff" d="M243.51,-59.45C295.39,-53 397.57,-39.22 493.38,-19.03"/>
<polygon fill="#63b8ff" stroke="#63b8ff" points="494.17,-22.44 503.22,-16.93 492.71,-15.6 494.17,-22.44"/>
</a>
</g>
</g>
<!-- Node15&#45;&gt;Node8 -->
<g id="edge18_Node000015_Node000008" class="edge">
<title>Node15&#45;&gt;Node8</title>
<g id="a_edge18_Node000015_Node000008"><a xlink:title=" ">
<path fill="none" stroke="#63b8ff" d="M236.81,-54.98C265.35,-46.09 310.33,-32.07 342.14,-22.15"/>
<polygon fill="#63b8ff" stroke="#63b8ff" points="343.47,-25.4 351.97,-19.08 341.38,-18.72 343.47,-25.4"/>
</a>
</g>
</g>
<!-- Node15&#45;&gt;Node13 -->
<g id="edge21_Node000015_Node000013" class="edge">
<title>Node15&#45;&gt;Node13</title>
<g id="a_edge21_Node000015_Node000013"><a xlink:title=" ">
<path fill="none" stroke="#63b8ff" d="M191.51,-54.98C173.57,-46.5 145.78,-33.35 125.07,-23.54"/>
<polygon fill="#63b8ff" stroke="#63b8ff" points="126.36,-20.28 115.82,-19.17 123.36,-26.61 126.36,-20.28"/>
</a>
</g>
</g>
<!-- Node15&#45;&gt;Node14 -->
<g id="edge23_Node000015_Node000014" class="edge">
<title>Node15&#45;&gt;Node14</title>
<g id="a_edge23_Node000015_Node000014"><a xlink:title=" ">
<path fill="none" stroke="#63b8ff" d="M201.89,-74.17C191.51,-82.44 173.25,-95.04 157.82,-104.7"/>
<polygon fill="#63b8ff" stroke="#63b8ff" points="155.86,-101.79 149.15,-109.98 159.51,-107.77 155.86,-101.79"/>
</a>
</g>
</g>
<!-- Node16 -->
<g id="Node000016" class="node">
<title>Node16</title>
<g id="a_Node000016"><a xlink:title=" ">
<polygon fill="#e0e0e0" stroke="#999999" points="265.5,-19 221.5,-19 221.5,0 265.5,0 265.5,-19"/>
<text text-anchor="middle" x="243.5" y="-7" font-family="Helvetica,sans-Serif" font-size="10.00">limits</text>
</a>
</g>
</g>
<!-- Node15&#45;&gt;Node16 -->
<g id="edge17_Node000015_Node000016" class="edge">
<title>Node15&#45;&gt;Node16</title>
<g id="a_edge17_Node000015_Node000016"><a xlink:title=" ">
<path fill="none" stroke="#63b8ff" d="M215.11,-54.75C219.82,-47.42 226.67,-36.73 232.47,-27.7"/>
<polygon fill="#63b8ff" stroke="#63b8ff" points="235.54,-29.4 237.99,-19.09 229.64,-25.62 235.54,-29.4"/>
</a>
</g>
</g>
<!-- Node17 -->
<g id="Node000017" class="node">
<title>Node17</title>
<g id="a_Node000017"><a xlink:title=" ">
<polygon fill="#e0e0e0" stroke="#999999" points="333,-19 284,-19 284,0 333,0 333,-19"/>
<text text-anchor="middle" x="308.5" y="-7" font-family="Helvetica,sans-Serif" font-size="10.00">cstdlib</text>
</a>
</g>
</g>
<!-- Node15&#45;&gt;Node17 -->
<g id="edge19_Node000015_Node000017" class="edge">
<title>Node15&#45;&gt;Node17</title>
<g id="a_edge19_Node000015_Node000017"><a xlink:title=" ">
<path fill="none" stroke="#63b8ff" d="M225.41,-54.98C241.05,-46.61 265.16,-33.7 283.38,-23.95"/>
<polygon fill="#63b8ff" stroke="#63b8ff" points="285.14,-26.98 292.3,-19.17 281.84,-20.8 285.14,-26.98"/>
</a>
</g>
</g>
<!-- Node18 -->
<g id="Node000018" class="node">
<title>Node18</title>
<g id="a_Node000018"><a xlink:title=" ">
<polygon fill="#e0e0e0" stroke="#999999" points="203.5,-19 147.5,-19 147.5,0 203.5,0 203.5,-19"/>
<text text-anchor="middle" x="175.5" y="-7" font-family="Helvetica,sans-Serif" font-size="10.00">unistd.h</text>
</a>
</g>
</g>
<!-- Node15&#45;&gt;Node18 -->
<g id="edge22_Node000015_Node000018" class="edge">
<title>Node15&#45;&gt;Node18</title>
<g id="a_edge22_Node000015_Node000018"><a xlink:title=" ">
<path fill="none" stroke="#63b8ff" d="M203.89,-54.75C199.18,-47.42 192.33,-36.73 186.53,-27.7"/>
<polygon fill="#63b8ff" stroke="#63b8ff" points="189.36,-25.62 181.01,-19.09 183.46,-29.4 189.36,-25.62"/>
</a>
</g>
</g>
<!-- Node19&#45;&gt;Node5 -->
<g id="edge31_Node000019_Node000005" class="edge">
<title>Node19&#45;&gt;Node5</title>
<g id="a_edge31_Node000019_Node000005"><a xlink:title=" ">
<path fill="none" stroke="#63b8ff" d="M684.32,-164.98C656.63,-156.6 612.94,-143.38 566.43,-129.28"/>
<polygon fill="#63b8ff" stroke="#63b8ff" points="567.36,-125.91 556.78,-126.35 565.33,-132.61 567.36,-125.91"/>
</a>
</g>
</g>
<!-- Node19&#45;&gt;Node6 -->
<g id="edge27_Node000019_Node000006" class="edge">
<title>Node19&#45;&gt;Node6</title>
<g id="a_edge27_Node000019_Node000006"><a xlink:title=" ">
<path fill="none" stroke="#63b8ff" d="M739.63,-164.99C769.35,-154.23 810.55,-134.15 792.5,-110 774.34,-85.7 580.94,-39.09 495.59,-19.51"/>
<polygon fill="#63b8ff" stroke="#63b8ff" points="496.26,-16.08 485.74,-17.26 494.71,-22.9 496.26,-16.08"/>
</a>
</g>
</g>
<!-- Node19&#45;&gt;Node7 -->
<g id="edge32_Node000019_Node000007" class="edge">
<title>Node19&#45;&gt;Node7</title>
<g id="a_edge32_Node000019_Node000007"><a xlink:title=" ">
<path fill="none" stroke="#63b8ff" d="M798.13,-164.98C845.23,-158.33 897,-147.1 911.5,-129 916.78,-122.41 915.45,-117.46 911.5,-110 891.13,-71.55 871.06,-70.76 830.5,-55 736.32,-18.39 615.13,-11.58 558.02,-10.52"/>
<polygon fill="#63b8ff" stroke="#63b8ff" points="557.85,-7.02 547.8,-10.38 557.75,-14.02 557.85,-7.02"/>
</a>
</g>
</g>
<!-- Node19&#45;&gt;Node8 -->
<g id="edge28_Node000019_Node000008" class="edge">
<title>Node19&#45;&gt;Node8</title>
<g id="a_edge28_Node000019_Node000008"><a xlink:title=" ">
<path fill="none" stroke="#63b8ff" d="M721.05,-164.98C732.95,-152.07 751.62,-127.26 738.5,-110 728.55,-96.91 507.76,-41.8 417.47,-19.71"/>
<polygon fill="#63b8ff" stroke="#63b8ff" points="418.17,-16.28 407.63,-17.31 416.51,-23.08 418.17,-16.28"/>
</a>
</g>
</g>
<!-- Node19&#45;&gt;Node9 -->
<g id="edge33_Node000019_Node000009" class="edge">
<title>Node19&#45;&gt;Node9</title>
<g id="a_edge33_Node000019_Node000009"><a xlink:title=" ">
<path fill="none" stroke="#63b8ff" d="M695.47,-164.98C678.57,-156.54 652.44,-143.47 632.86,-133.68"/>
<polygon fill="#63b8ff" stroke="#63b8ff" points="634.35,-130.51 623.84,-129.17 631.22,-136.77 634.35,-130.51"/>
</a>
</g>
</g>
<!-- Node19&#45;&gt;Node11 -->
<g id="edge29_Node000019_Node000011" class="edge">
<title>Node19&#45;&gt;Node11</title>
<g id="a_edge29_Node000019_Node000011"><a xlink:title=" ">
<path fill="none" stroke="#63b8ff" d="M707.88,-164.75C704.04,-157.49 698.48,-146.95 693.74,-137.98"/>
<polygon fill="#63b8ff" stroke="#63b8ff" points="696.8,-136.3 689.04,-129.09 690.61,-139.57 696.8,-136.3"/>
</a>
</g>
</g>
<!-- Node19&#45;&gt;Node15 -->
<g id="edge26_Node000019_Node000015" class="edge">
<title>Node19&#45;&gt;Node15</title>
<g id="a_edge26_Node000019_Node000015"><a xlink:title=" ">
<path fill="none" stroke="#63b8ff" d="M717.52,-164.84C724.64,-151.3 735.35,-125.1 721.5,-110 705.77,-92.85 375.51,-74.09 253.92,-67.74"/>
<polygon fill="#63b8ff" stroke="#63b8ff" points="254,-64.24 243.84,-67.22 253.64,-71.23 254,-64.24"/>
</a>
</g>
</g>
<!-- Node20 -->
<g id="Node000020" class="node">
<title>Node20</title>
<g id="a_Node000020"><a xlink:title=" ">
<polygon fill="#e0e0e0" stroke="#999999" points="902.5,-129 844.5,-129 844.5,-110 902.5,-110 902.5,-129"/>
<text text-anchor="middle" x="873.5" y="-117" font-family="Helvetica,sans-Serif" font-size="10.00">memory</text>
</a>
</g>
</g>
<!-- Node19&#45;&gt;Node20 -->
<g id="edge30_Node000019_Node000020" class="edge">
<title>Node19&#45;&gt;Node20</title>
<g id="a_edge30_Node000019_Node000020"><a xlink:title=" ">
<path fill="none" stroke="#63b8ff" d="M738.37,-164.98C765.28,-156.13 807.62,-142.19 837.73,-132.28"/>
<polygon fill="#63b8ff" stroke="#63b8ff" points="839.03,-135.53 847.43,-129.08 836.84,-128.88 839.03,-135.53"/>
</a>
</g>
</g>
</g>
</svg>
