<?xml version="1.0" encoding="UTF-8" standalone="no"?>
<!DOCTYPE svg PUBLIC "-//W3C//DTD SVG 1.1//EN"
 "http://www.w3.org/Graphics/SVG/1.1/DTD/svg11.dtd">
<!-- Generated by graphviz version 2.43.0 (0)
 -->
<!-- Title: srcs/Location.cpp Pages: 1 -->
<svg width="555pt" height="192pt"
 viewBox="0.00 0.00 555.00 192.00" xmlns="http://www.w3.org/2000/svg" xmlns:xlink="http://www.w3.org/1999/xlink">
<g id="graph0" class="graph" transform="scale(1 1) rotate(0) translate(4 188)">
<title>srcs/Location.cpp</title>
<!-- Node1 -->
<g id="Node000001" class="node">
<title>Node1</title>
<g id="a_Node000001"><a xlink:title=" ">
<polygon fill="#999999" stroke="#666666" points="315.5,-184 214.5,-184 214.5,-165 315.5,-165 315.5,-184"/>
<text text-anchor="middle" x="265" y="-172" font-family="Helvetica,sans-Serif" font-size="10.00">srcs/Location.cpp</text>
</a>
</g>
</g>
<!-- Node2 -->
<g id="Node000002" class="node">
<title>Node2</title>
<g id="a_Node000002"><a xlink:href="../../d7/d2f/Location_8hpp.html" target="_top" xlink:title=" ">
<polygon fill="white" stroke="#666666" points="330.5,-129 199.5,-129 199.5,-110 330.5,-110 330.5,-129"/>
<text text-anchor="middle" x="265" y="-117" font-family="Helvetica,sans-Serif" font-size="10.00">../includes/Location.hpp</text>
</a>
</g>
</g>
<!-- Node1&#45;&gt;Node2 -->
<g id="edge1_Node000001_Node000002" class="edge">
<title>Node1&#45;&gt;Node2</title>
<g id="a_edge1_Node000001_Node000002"><a xlink:title=" ">
<path fill="none" stroke="#63b8ff" d="M265,-164.75C265,-157.8 265,-147.85 265,-139.13"/>
<polygon fill="#63b8ff" stroke="#63b8ff" points="268.5,-139.09 265,-129.09 261.5,-139.09 268.5,-139.09"/>
</a>
</g>
</g>
<!-- Node3 -->
<g id="Node000003" class="node">
<title>Node3</title>
<g id="a_Node000003"><a xlink:href="../../de/d3d/Server_8hpp.html" target="_top" xlink:title=" ">
<polygon fill="white" stroke="#666666" points="299,-74 231,-74 231,-55 299,-55 299,-74"/>
<text text-anchor="middle" x="265" y="-62" font-family="Helvetica,sans-Serif" font-size="10.00">Server.hpp</text>
</a>
</g>
</g>
<!-- Node2&#45;&gt;Node3 -->
<g id="edge2_Node000002_Node000003" class="edge">
<title>Node2&#45;&gt;Node3</title>
<g id="a_edge2_Node000002_Node000003"><a xlink:title=" ">
<path fill="none" stroke="#63b8ff" d="M259.83,-109.75C258.34,-102.8 257.9,-92.85 258.52,-84.13"/>
<polygon fill="#63b8ff" stroke="#63b8ff" points="262.01,-84.47 259.87,-74.09 255.07,-83.53 262.01,-84.47"/>
</a>
</g>
</g>
<!-- Node3&#45;&gt;Node2 -->
<g id="edge11_Node000003_Node000002" class="edge">
<title>Node3&#45;&gt;Node2</title>
<g id="a_edge11_Node000003_Node000002"><a xlink:title=" ">
<path fill="none" stroke="#63b8ff" d="M270.13,-74.09C271.64,-80.99 272.09,-90.93 271.49,-99.66"/>
<polygon fill="#63b8ff" stroke="#63b8ff" points="268,-99.38 270.17,-109.75 274.94,-100.29 268,-99.38"/>
</a>
</g>
</g>
<!-- Node4 -->
<g id="Node000004" class="node">
<title>Node4</title>
<g id="a_Node000004"><a xlink:title=" ">
<polygon fill="#e0e0e0" stroke="#999999" points="60,-19 0,-19 0,0 60,0 60,-19"/>
<text text-anchor="middle" x="30" y="-7" font-family="Helvetica,sans-Serif" font-size="10.00">iostream</text>
</a>
</g>
</g>
<!-- Node3&#45;&gt;Node4 -->
<g id="edge3_Node000003_Node000004" class="edge">
<title>Node3&#45;&gt;Node4</title>
<g id="a_edge3_Node000003_Node000004"><a xlink:title=" ">
<path fill="none" stroke="#63b8ff" d="M230.83,-55.79C188.11,-46.16 115.1,-29.69 69.87,-19.49"/>
<polygon fill="#63b8ff" stroke="#63b8ff" points="70.63,-16.08 60.11,-17.29 69.09,-22.9 70.63,-16.08"/>
</a>
</g>
</g>
<!-- Node5 -->
<g id="Node000005" class="node">
<title>Node5</title>
<g id="a_Node000005"><a xlink:title=" ">
<polygon fill="#e0e0e0" stroke="#999999" points="122,-19 78,-19 78,0 122,0 122,-19"/>
<text text-anchor="middle" x="100" y="-7" font-family="Helvetica,sans-Serif" font-size="10.00">string</text>
</a>
</g>
</g>
<!-- Node3&#45;&gt;Node5 -->
<g id="edge4_Node000003_Node000005" class="edge">
<title>Node3&#45;&gt;Node5</title>
<g id="a_edge4_Node000003_Node000005"><a xlink:title=" ">
<path fill="none" stroke="#63b8ff" d="M238.49,-54.98C209.52,-45.68 163.1,-30.77 132.09,-20.81"/>
<polygon fill="#63b8ff" stroke="#63b8ff" points="132.8,-17.36 122.21,-17.63 130.66,-24.03 132.8,-17.36"/>
</a>
</g>
</g>
<!-- Node6 -->
<g id="Node000006" class="node">
<title>Node6</title>
<g id="a_Node000006"><a xlink:title=" ">
<polygon fill="#e0e0e0" stroke="#999999" points="184,-19 140,-19 140,0 184,0 184,-19"/>
<text text-anchor="middle" x="162" y="-7" font-family="Helvetica,sans-Serif" font-size="10.00">limits</text>
</a>
</g>
</g>
<!-- Node3&#45;&gt;Node6 -->
<g id="edge5_Node000003_Node000006" class="edge">
<title>Node3&#45;&gt;Node6</title>
<g id="a_edge5_Node000003_Node000006"><a xlink:title=" ">
<path fill="none" stroke="#63b8ff" d="M248.45,-54.98C232.11,-46.57 206.87,-33.59 187.87,-23.81"/>
<polygon fill="#63b8ff" stroke="#63b8ff" points="189.34,-20.63 178.85,-19.17 186.14,-26.86 189.34,-20.63"/>
</a>
</g>
</g>
<!-- Node7 -->
<g id="Node000007" class="node">
<title>Node7</title>
<g id="a_Node000007"><a xlink:title=" ">
<polygon fill="#e0e0e0" stroke="#999999" points="258,-19 202,-19 202,0 258,0 258,-19"/>
<text text-anchor="middle" x="230" y="-7" font-family="Helvetica,sans-Serif" font-size="10.00">sstream</text>
</a>
</g>
</g>
<!-- Node3&#45;&gt;Node7 -->
<g id="edge6_Node000003_Node000007" class="edge">
<title>Node3&#45;&gt;Node7</title>
<g id="a_edge6_Node000003_Node000007"><a xlink:title=" ">
<path fill="none" stroke="#63b8ff" d="M259.22,-54.75C254.38,-47.42 247.32,-36.73 241.36,-27.7"/>
<polygon fill="#63b8ff" stroke="#63b8ff" points="244.1,-25.5 235.67,-19.09 238.26,-29.36 244.1,-25.5"/>
</a>
</g>
</g>
<!-- Node8 -->
<g id="Node000008" class="node">
<title>Node8</title>
<g id="a_Node000008"><a xlink:title=" ">
<polygon fill="#e0e0e0" stroke="#999999" points="325.5,-19 276.5,-19 276.5,0 325.5,0 325.5,-19"/>
<text text-anchor="middle" x="301" y="-7" font-family="Helvetica,sans-Serif" font-size="10.00">cstdlib</text>
</a>
</g>
</g>
<!-- Node3&#45;&gt;Node8 -->
<g id="edge7_Node000003_Node000008" class="edge">
<title>Node3&#45;&gt;Node8</title>
<g id="a_edge7_Node000003_Node000008"><a xlink:title=" ">
<path fill="none" stroke="#63b8ff" d="M270.94,-54.75C275.98,-47.34 283.34,-36.5 289.51,-27.41"/>
<polygon fill="#63b8ff" stroke="#63b8ff" points="292.44,-29.33 295.17,-19.09 286.65,-25.39 292.44,-29.33"/>
</a>
</g>
</g>
<!-- Node9 -->
<g id="Node000009" class="node">
<title>Node9</title>
<g id="a_Node000009"><a xlink:title=" ">
<polygon fill="#e0e0e0" stroke="#999999" points="390.5,-19 343.5,-19 343.5,0 390.5,0 390.5,-19"/>
<text text-anchor="middle" x="367" y="-7" font-family="Helvetica,sans-Serif" font-size="10.00">vector</text>
</a>
</g>
</g>
<!-- Node3&#45;&gt;Node9 -->
<g id="edge8_Node000003_Node000009" class="edge">
<title>Node3&#45;&gt;Node9</title>
<g id="a_edge8_Node000003_Node000009"><a xlink:title=" ">
<path fill="none" stroke="#63b8ff" d="M281.39,-54.98C297.57,-46.57 322.57,-33.59 341.38,-23.81"/>
<polygon fill="#63b8ff" stroke="#63b8ff" points="343.05,-26.89 350.31,-19.17 339.83,-20.68 343.05,-26.89"/>
</a>
</g>
</g>
<!-- Node10 -->
<g id="Node000010" class="node">
<title>Node10</title>
<g id="a_Node000010"><a xlink:title=" ">
<polygon fill="#e0e0e0" stroke="#999999" points="473,-19 409,-19 409,0 473,0 473,-19"/>
<text text-anchor="middle" x="441" y="-7" font-family="Helvetica,sans-Serif" font-size="10.00">sys/stat.h</text>
</a>
</g>
</g>
<!-- Node3&#45;&gt;Node10 -->
<g id="edge9_Node000003_Node000010" class="edge">
<title>Node3&#45;&gt;Node10</title>
<g id="a_edge9_Node000003_Node000010"><a xlink:title=" ">
<path fill="none" stroke="#63b8ff" d="M293.28,-54.98C322.95,-46.05 369.79,-31.94 402.75,-22.02"/>
<polygon fill="#63b8ff" stroke="#63b8ff" points="403.93,-25.32 412.5,-19.08 401.92,-18.61 403.93,-25.32"/>
</a>
</g>
</g>
<!-- Node11 -->
<g id="Node000011" class="node">
<title>Node11</title>
<g id="a_Node000011"><a xlink:title=" ">
<polygon fill="#e0e0e0" stroke="#999999" points="547,-19 491,-19 491,0 547,0 547,-19"/>
<text text-anchor="middle" x="519" y="-7" font-family="Helvetica,sans-Serif" font-size="10.00">unistd.h</text>
</a>
</g>
</g>
<!-- Node3&#45;&gt;Node11 -->
<g id="edge10_Node000003_Node000011" class="edge">
<title>Node3&#45;&gt;Node11</title>
<g id="a_edge10_Node000003_Node000011"><a xlink:title=" ">
<path fill="none" stroke="#63b8ff" d="M299.25,-56.73C340.14,-48.6 410.83,-34.36 480.86,-19.21"/>
<polygon fill="#63b8ff" stroke="#63b8ff" points="481.7,-22.61 490.73,-17.07 480.22,-15.77 481.7,-22.61"/>
</a>
</g>
</g>
</g>
</svg>
