<?xml version="1.0" encoding="UTF-8" standalone="no"?>
<!DOCTYPE svg PUBLIC "-//W3C//DTD SVG 1.1//EN"
 "http://www.w3.org/Graphics/SVG/1.1/DTD/svg11.dtd">
<!-- Generated by graphviz version 2.43.0 (0)
 -->
<!-- Title: includes/Socket.hpp Pages: 1 -->
<svg width="2145pt" height="258pt"
 viewBox="0.00 0.00 2145.00 258.00" xmlns="http://www.w3.org/2000/svg" xmlns:xlink="http://www.w3.org/1999/xlink">
<g id="graph0" class="graph" transform="scale(1 1) rotate(0) translate(4 254)">
<title>includes/Socket.hpp</title>
<!-- Node1 -->
<g id="Node000001" class="node">
<title>Node1</title>
<g id="a_Node000001"><a xlink:title=" ">
<polygon fill="#999999" stroke="#666666" points="1071.5,-250 958.5,-250 958.5,-231 1071.5,-231 1071.5,-250"/>
<text text-anchor="middle" x="1015" y="-238" font-family="Helvetica,sans-Serif" font-size="10.00">includes/Socket.hpp</text>
</a>
</g>
</g>
<!-- Node2 -->
<g id="Node000002" class="node">
<title>Node2</title>
<g id="a_Node000002"><a xlink:href="../../dd/d60/EpollHandler_8hpp.html" target="_top" xlink:title=" ">
<polygon fill="white" stroke="#666666" points="1086.5,-195 943.5,-195 943.5,-176 1086.5,-176 1086.5,-195"/>
<text text-anchor="middle" x="1015" y="-183" font-family="Helvetica,sans-Serif" font-size="10.00">includes/EpollHandler.hpp</text>
</a>
</g>
</g>
<!-- Node1&#45;&gt;Node2 -->
<g id="edge1_Node000001_Node000002" class="edge">
<title>Node1&#45;&gt;Node2</title>
<g id="a_edge1_Node000001_Node000002"><a xlink:title=" ">
<path fill="none" stroke="#63b8ff" d="M1015,-220.66C1015,-211.93 1015,-201.99 1015,-195.09"/>
<polygon fill="#63b8ff" stroke="#63b8ff" points="1011.5,-220.75 1015,-230.75 1018.5,-220.75 1011.5,-220.75"/>
</a>
</g>
</g>
<!-- Node3 -->
<g id="Node000003" class="node">
<title>Node3</title>
<g id="a_Node000003"><a xlink:href="../../d0/dcf/Everything_8hpp.html" target="_top" xlink:title=" ">
<polygon fill="white" stroke="#666666" points="1033,-85 899,-85 899,-66 1033,-66 1033,-85"/>
<text text-anchor="middle" x="966" y="-73" font-family="Helvetica,sans-Serif" font-size="10.00">includes/Everything.hpp</text>
</a>
</g>
</g>
<!-- Node1&#45;&gt;Node3 -->
<g id="edge26_Node000001_Node000003" class="edge">
<title>Node1&#45;&gt;Node3</title>
<g id="a_edge26_Node000001_Node000003"><a xlink:title=" ">
<path fill="none" stroke="#63b8ff" d="M982.93,-226.84C950.28,-211.83 902.22,-183.27 886,-140 883.03,-132.09 881.72,-128.28 886,-121 896.55,-103.05 917.25,-91.82 934.95,-85.13"/>
<polygon fill="#63b8ff" stroke="#63b8ff" points="981.54,-230.05 992.1,-230.89 984.37,-223.65 981.54,-230.05"/>
</a>
</g>
</g>
<!-- Node20 -->
<g id="Node000020" class="node">
<title>Node20</title>
<g id="a_Node000020"><a xlink:href="../../df/d93/utils_8hpp.html" target="_top" xlink:title=" ">
<polygon fill="white" stroke="#666666" points="1312,-140 1210,-140 1210,-121 1312,-121 1312,-140"/>
<text text-anchor="middle" x="1261" y="-128" font-family="Helvetica,sans-Serif" font-size="10.00">includes/utils.hpp</text>
</a>
</g>
</g>
<!-- Node1&#45;&gt;Node20 -->
<g id="edge27_Node000001_Node000020" class="edge">
<title>Node1&#45;&gt;Node20</title>
<g id="a_edge27_Node000001_Node000020"><a xlink:title=" ">
<path fill="none" stroke="#63b8ff" d="M1044.14,-226.71C1094.96,-204.4 1198.47,-158.95 1241.53,-140.05"/>
<polygon fill="#63b8ff" stroke="#63b8ff" points="1042.46,-223.62 1034.72,-230.84 1045.28,-230.03 1042.46,-223.62"/>
</a>
</g>
</g>
<!-- Node2&#45;&gt;Node3 -->
<g id="edge2_Node000002_Node000003" class="edge">
<title>Node2&#45;&gt;Node3</title>
<g id="a_edge2_Node000002_Node000003"><a xlink:title=" ">
<path fill="none" stroke="#63b8ff" d="M940.04,-172.81C921.71,-166.22 904.17,-155.97 893,-140 876.53,-116.47 914.64,-96.04 941.75,-85.07"/>
<polygon fill="#63b8ff" stroke="#63b8ff" points="939.07,-176.17 949.66,-175.93 941.23,-169.52 939.07,-176.17"/>
</a>
</g>
</g>
<!-- Node18 -->
<g id="Node000018" class="node">
<title>Node18</title>
<g id="a_Node000018"><a xlink:href="../../df/dc1/Response_8hpp.html" target="_top" xlink:title=" ">
<polygon fill="white" stroke="#666666" points="1030,-140 902,-140 902,-121 1030,-121 1030,-140"/>
<text text-anchor="middle" x="966" y="-128" font-family="Helvetica,sans-Serif" font-size="10.00">includes/Response.hpp</text>
</a>
</g>
</g>
<!-- Node2&#45;&gt;Node18 -->
<g id="edge18_Node000002_Node000018" class="edge">
<title>Node2&#45;&gt;Node18</title>
<g id="a_edge18_Node000002_Node000018"><a xlink:title=" ">
<path fill="none" stroke="#63b8ff" d="M999.97,-168.24C991.38,-158.95 980.96,-147.68 973.94,-140.09"/>
<polygon fill="#63b8ff" stroke="#63b8ff" points="997.55,-170.78 1006.91,-175.75 1002.69,-166.03 997.55,-170.78"/>
</a>
</g>
</g>
<!-- Node19 -->
<g id="Node000019" class="node">
<title>Node19</title>
<g id="a_Node000019"><a xlink:href="../../d4/de3/serverSocket_8hpp.html" target="_top" xlink:title=" ">
<polygon fill="white" stroke="#666666" points="1192,-140 1048,-140 1048,-121 1192,-121 1192,-140"/>
<text text-anchor="middle" x="1120" y="-128" font-family="Helvetica,sans-Serif" font-size="10.00">includes/serverSocket.hpp</text>
</a>
</g>
</g>
<!-- Node2&#45;&gt;Node19 -->
<g id="edge20_Node000002_Node000019" class="edge">
<title>Node2&#45;&gt;Node19</title>
<g id="a_edge20_Node000002_Node000019"><a xlink:title=" ">
<path fill="none" stroke="#63b8ff" d="M1041.02,-171.37C1060.3,-161.63 1086.05,-148.64 1102.82,-140.17"/>
<polygon fill="#63b8ff" stroke="#63b8ff" points="1039.22,-168.35 1031.87,-175.98 1042.37,-174.6 1039.22,-168.35"/>
</a>
</g>
</g>
<!-- Node2&#45;&gt;Node20 -->
<g id="edge22_Node000002_Node000020" class="edge">
<title>Node2&#45;&gt;Node20</title>
<g id="a_edge22_Node000002_Node000020"><a xlink:title=" ">
<path fill="none" stroke="#63b8ff" d="M1064.3,-173.88C1110.41,-163.94 1178.4,-149.3 1221.17,-140.08"/>
<polygon fill="#63b8ff" stroke="#63b8ff" points="1063.56,-170.46 1054.52,-175.98 1065.04,-177.3 1063.56,-170.46"/>
</a>
</g>
</g>
<!-- Node4 -->
<g id="Node000004" class="node">
<title>Node4</title>
<g id="a_Node000004"><a xlink:href="../../de/dfd/socketHandler_8hpp.html" target="_top" xlink:title=" ">
<polygon fill="white" stroke="#666666" points="150,-24.5 0,-24.5 0,-5.5 150,-5.5 150,-24.5"/>
<text text-anchor="middle" x="75" y="-12.5" font-family="Helvetica,sans-Serif" font-size="10.00">includes/socketHandler.hpp</text>
</a>
</g>
</g>
<!-- Node3&#45;&gt;Node4 -->
<g id="edge3_Node000003_Node000004" class="edge">
<title>Node3&#45;&gt;Node4</title>
<g id="a_edge3_Node000003_Node000004"><a xlink:title=" ">
<path fill="none" stroke="#63b8ff" d="M888.83,-73.18C743.58,-70.02 420.18,-59.87 150,-30 137.51,-28.62 124.05,-26.61 111.98,-24.55"/>
<polygon fill="#63b8ff" stroke="#63b8ff" points="888.91,-76.69 898.98,-73.4 889.06,-69.69 888.91,-76.69"/>
</a>
</g>
</g>
<!-- Node5 -->
<g id="Node000005" class="node">
<title>Node5</title>
<g id="a_Node000005"><a xlink:href="../../df/d0a/main_8cpp.html" target="_top" xlink:title=" ">
<polygon fill="white" stroke="#666666" points="252,-24.5 168,-24.5 168,-5.5 252,-5.5 252,-24.5"/>
<text text-anchor="middle" x="210" y="-12.5" font-family="Helvetica,sans-Serif" font-size="10.00">srcs/main.cpp</text>
</a>
</g>
</g>
<!-- Node3&#45;&gt;Node5 -->
<g id="edge5_Node000003_Node000005" class="edge">
<title>Node3&#45;&gt;Node5</title>
<g id="a_edge5_Node000003_Node000005"><a xlink:title=" ">
<path fill="none" stroke="#63b8ff" d="M888.62,-74.77C758.23,-74.09 486.83,-67.71 261,-30 253.12,-28.68 244.71,-26.65 237.03,-24.53"/>
<polygon fill="#63b8ff" stroke="#63b8ff" points="888.88,-78.27 898.9,-74.82 888.91,-71.28 888.88,-78.27"/>
</a>
</g>
</g>
<!-- Node6 -->
<g id="Node000006" class="node">
<title>Node6</title>
<g id="a_Node000006"><a xlink:href="../../d8/d4a/request__cgi_8cpp.html" target="_top" xlink:title=" ">
<polygon fill="white" stroke="#666666" points="386,-30 270,-30 270,0 386,0 386,-30"/>
<text text-anchor="start" x="278" y="-18" font-family="Helvetica,sans-Serif" font-size="10.00">srcs/request/request</text>
<text text-anchor="middle" x="328" y="-7" font-family="Helvetica,sans-Serif" font-size="10.00">_cgi.cpp</text>
</a>
</g>
</g>
<!-- Node3&#45;&gt;Node6 -->
<g id="edge6_Node000003_Node000006" class="edge">
<title>Node3&#45;&gt;Node6</title>
<g id="a_edge6_Node000003_Node000006"><a xlink:title=" ">
<path fill="none" stroke="#63b8ff" d="M888.87,-71.63C778.83,-66.82 570.63,-55.09 395,-30 392.06,-29.58 389.05,-29.11 386.02,-28.6"/>
<polygon fill="#63b8ff" stroke="#63b8ff" points="888.74,-75.13 898.89,-72.06 889.04,-68.13 888.74,-75.13"/>
</a>
</g>
</g>
<!-- Node7 -->
<g id="Node000007" class="node">
<title>Node7</title>
<g id="a_Node000007"><a xlink:href="../../d5/db0/response_8cpp.html" target="_top" xlink:title=" ">
<polygon fill="white" stroke="#666666" points="555.5,-24.5 404.5,-24.5 404.5,-5.5 555.5,-5.5 555.5,-24.5"/>
<text text-anchor="middle" x="480" y="-12.5" font-family="Helvetica,sans-Serif" font-size="10.00">srcs/response/response.cpp</text>
</a>
</g>
</g>
<!-- Node3&#45;&gt;Node7 -->
<g id="edge7_Node000003_Node000007" class="edge">
<title>Node3&#45;&gt;Node7</title>
<g id="a_edge7_Node000003_Node000007"><a xlink:title=" ">
<path fill="none" stroke="#63b8ff" d="M888.72,-67.14C807.86,-59.16 677.29,-45.47 565,-30 553.3,-28.39 540.72,-26.44 528.93,-24.51"/>
<polygon fill="#63b8ff" stroke="#63b8ff" points="888.52,-70.64 898.82,-68.14 889.21,-63.68 888.52,-70.64"/>
</a>
</g>
</g>
<!-- Node8 -->
<g id="Node000008" class="node">
<title>Node8</title>
<g id="a_Node000008"><a xlink:href="../../d3/dfe/serverSocket_8cpp.html" target="_top" xlink:title=" ">
<polygon fill="white" stroke="#666666" points="696,-24.5 574,-24.5 574,-5.5 696,-5.5 696,-24.5"/>
<text text-anchor="middle" x="635" y="-12.5" font-family="Helvetica,sans-Serif" font-size="10.00">srcs/serverSocket.cpp</text>
</a>
</g>
</g>
<!-- Node3&#45;&gt;Node8 -->
<g id="edge8_Node000003_Node000008" class="edge">
<title>Node3&#45;&gt;Node8</title>
<g id="a_edge8_Node000003_Node000008"><a xlink:title=" ">
<path fill="none" stroke="#63b8ff" d="M903.52,-64.36C850.59,-55.65 772.73,-42.54 705,-30 695.86,-28.31 686.07,-26.4 676.79,-24.56"/>
<polygon fill="#63b8ff" stroke="#63b8ff" points="903,-67.82 913.43,-65.99 904.13,-60.91 903,-67.82"/>
</a>
</g>
</g>
<!-- Node9 -->
<g id="Node000009" class="node">
<title>Node9</title>
<g id="a_Node000009"><a xlink:href="../../d1/dd8/epollHandler_8cpp.html" target="_top" xlink:title=" ">
<polygon fill="white" stroke="#666666" points="869.5,-24.5 714.5,-24.5 714.5,-5.5 869.5,-5.5 869.5,-24.5"/>
<text text-anchor="middle" x="792" y="-12.5" font-family="Helvetica,sans-Serif" font-size="10.00">srcs/socket/epollHandler.cpp</text>
</a>
</g>
</g>
<!-- Node3&#45;&gt;Node9 -->
<g id="edge9_Node000003_Node000009" class="edge">
<title>Node3&#45;&gt;Node9</title>
<g id="a_edge9_Node000003_Node000009"><a xlink:title=" ">
<path fill="none" stroke="#63b8ff" d="M930.82,-62.67C897.17,-51.36 847.24,-34.57 817.33,-24.52"/>
<polygon fill="#63b8ff" stroke="#63b8ff" points="930.1,-66.12 940.7,-65.99 932.34,-59.49 930.1,-66.12"/>
</a>
</g>
</g>
<!-- Node10 -->
<g id="Node000010" class="node">
<title>Node10</title>
<g id="a_Node000010"><a xlink:href="../../dc/d79/socket_2serverSocket_8cpp.html" target="_top" xlink:title=" ">
<polygon fill="white" stroke="#666666" points="1044.5,-24.5 887.5,-24.5 887.5,-5.5 1044.5,-5.5 1044.5,-24.5"/>
<text text-anchor="middle" x="966" y="-12.5" font-family="Helvetica,sans-Serif" font-size="10.00">srcs/socket/serverSocket.cpp</text>
</a>
</g>
</g>
<!-- Node3&#45;&gt;Node10 -->
<g id="edge10_Node000003_Node000010" class="edge">
<title>Node3&#45;&gt;Node10</title>
<g id="a_edge10_Node000003_Node000010"><a xlink:title=" ">
<path fill="none" stroke="#63b8ff" d="M966,-55.66C966,-45.24 966,-32.8 966,-24.67"/>
<polygon fill="#63b8ff" stroke="#63b8ff" points="962.5,-55.87 966,-65.87 969.5,-55.87 962.5,-55.87"/>
</a>
</g>
</g>
<!-- Node11 -->
<g id="Node000011" class="node">
<title>Node11</title>
<g id="a_Node000011"><a xlink:href="../../d8/d81/socket_8cpp.html" target="_top" xlink:title=" ">
<polygon fill="white" stroke="#666666" points="1187.5,-24.5 1062.5,-24.5 1062.5,-5.5 1187.5,-5.5 1187.5,-24.5"/>
<text text-anchor="middle" x="1125" y="-12.5" font-family="Helvetica,sans-Serif" font-size="10.00">srcs/socket/socket.cpp</text>
</a>
</g>
</g>
<!-- Node3&#45;&gt;Node11 -->
<g id="edge11_Node000003_Node000011" class="edge">
<title>Node3&#45;&gt;Node11</title>
<g id="a_edge11_Node000003_Node000011"><a xlink:title=" ">
<path fill="none" stroke="#63b8ff" d="M998.55,-62.52C1029.29,-51.21 1074.64,-34.53 1101.85,-24.52"/>
<polygon fill="#63b8ff" stroke="#63b8ff" points="997.3,-59.26 989.12,-65.99 999.71,-65.83 997.3,-59.26"/>
</a>
</g>
</g>
<!-- Node12 -->
<g id="Node000012" class="node">
<title>Node12</title>
<g id="a_Node000012"><a xlink:href="../../d0/d12/socketHandler_8cpp.html" target="_top" xlink:title=" ">
<polygon fill="white" stroke="#666666" points="1368.5,-24.5 1205.5,-24.5 1205.5,-5.5 1368.5,-5.5 1368.5,-24.5"/>
<text text-anchor="middle" x="1287" y="-12.5" font-family="Helvetica,sans-Serif" font-size="10.00">srcs/socket/socketHandler.cpp</text>
</a>
</g>
</g>
<!-- Node3&#45;&gt;Node12 -->
<g id="edge12_Node000003_Node000012" class="edge">
<title>Node3&#45;&gt;Node12</title>
<g id="a_edge12_Node000003_Node000012"><a xlink:title=" ">
<path fill="none" stroke="#63b8ff" d="M1022.67,-64.17C1084.57,-52.89 1182.59,-35.03 1240.27,-24.52"/>
<polygon fill="#63b8ff" stroke="#63b8ff" points="1021.89,-60.76 1012.68,-65.99 1023.14,-67.64 1021.89,-60.76"/>
</a>
</g>
</g>
<!-- Node13 -->
<g id="Node000013" class="node">
<title>Node13</title>
<g id="a_Node000013"><a xlink:href="../../de/d06/utils_8cpp.html" target="_top" xlink:title=" ">
<polygon fill="white" stroke="#666666" points="1491,-24.5 1387,-24.5 1387,-5.5 1491,-5.5 1491,-24.5"/>
<text text-anchor="middle" x="1439" y="-12.5" font-family="Helvetica,sans-Serif" font-size="10.00">srcs/utils/utils.cpp</text>
</a>
</g>
</g>
<!-- Node3&#45;&gt;Node13 -->
<g id="edge13_Node000003_Node000013" class="edge">
<title>Node3&#45;&gt;Node13</title>
<g id="a_edge13_Node000003_Node000013"><a xlink:title=" ">
<path fill="none" stroke="#63b8ff" d="M1043.17,-68.9C1126.23,-62.24 1262.05,-49.5 1378,-30 1386.79,-28.52 1396.2,-26.56 1404.94,-24.56"/>
<polygon fill="#63b8ff" stroke="#63b8ff" points="1042.74,-65.42 1033.05,-69.7 1043.3,-72.4 1042.74,-65.42"/>
</a>
</g>
</g>
<!-- Node14 -->
<g id="Node000014" class="node">
<title>Node14</title>
<g id="a_Node000014"><a xlink:href="../../d4/d88/utils__free_8cpp.html" target="_top" xlink:title=" ">
<polygon fill="white" stroke="#666666" points="1638.5,-24.5 1509.5,-24.5 1509.5,-5.5 1638.5,-5.5 1638.5,-24.5"/>
<text text-anchor="middle" x="1574" y="-12.5" font-family="Helvetica,sans-Serif" font-size="10.00">srcs/utils/utils_free.cpp</text>
</a>
</g>
</g>
<!-- Node3&#45;&gt;Node14 -->
<g id="edge14_Node000003_Node000014" class="edge">
<title>Node3&#45;&gt;Node14</title>
<g id="a_edge14_Node000003_Node000014"><a xlink:title=" ">
<path fill="none" stroke="#63b8ff" d="M1043.3,-69.05C1169.41,-60 1413.95,-41.69 1500,-30 1510.75,-28.54 1522.31,-26.55 1533.02,-24.54"/>
<polygon fill="#63b8ff" stroke="#63b8ff" points="1043.05,-65.56 1033.32,-69.77 1043.55,-72.54 1043.05,-65.56"/>
</a>
</g>
</g>
<!-- Node15 -->
<g id="Node000015" class="node">
<title>Node15</title>
<g id="a_Node000015"><a xlink:href="../../d8/d83/utils__methods_8cpp.html" target="_top" xlink:title=" ">
<polygon fill="white" stroke="#666666" points="1809,-24.5 1657,-24.5 1657,-5.5 1809,-5.5 1809,-24.5"/>
<text text-anchor="middle" x="1733" y="-12.5" font-family="Helvetica,sans-Serif" font-size="10.00">srcs/utils/utils_methods.cpp</text>
</a>
</g>
</g>
<!-- Node3&#45;&gt;Node15 -->
<g id="edge15_Node000003_Node000015" class="edge">
<title>Node3&#45;&gt;Node15</title>
<g id="a_edge15_Node000003_Node000015"><a xlink:title=" ">
<path fill="none" stroke="#63b8ff" d="M1043.14,-69.67C1215.35,-58.86 1618.4,-33.39 1648,-30 1660.48,-28.57 1673.92,-26.57 1686.35,-24.53"/>
<polygon fill="#63b8ff" stroke="#63b8ff" points="1042.89,-66.18 1033.12,-70.3 1043.32,-73.17 1042.89,-66.18"/>
</a>
</g>
</g>
<!-- Node16 -->
<g id="Node000016" class="node">
<title>Node16</title>
<g id="a_Node000016"><a xlink:href="../../d2/d3b/utils__prints_8cpp.html" target="_top" xlink:title=" ">
<polygon fill="white" stroke="#666666" points="1964.5,-24.5 1827.5,-24.5 1827.5,-5.5 1964.5,-5.5 1964.5,-24.5"/>
<text text-anchor="middle" x="1896" y="-12.5" font-family="Helvetica,sans-Serif" font-size="10.00">srcs/utils/utils_prints.cpp</text>
</a>
</g>
</g>
<!-- Node3&#45;&gt;Node16 -->
<g id="edge16_Node000003_Node000016" class="edge">
<title>Node3&#45;&gt;Node16</title>
<g id="a_edge16_Node000003_Node000016"><a xlink:title=" ">
<path fill="none" stroke="#63b8ff" d="M1043.09,-69.72C1063.84,-68.47 1086.27,-67.15 1107,-66 1422.92,-48.48 1503.65,-66.02 1818,-30 1829.76,-28.65 1842.41,-26.63 1854.04,-24.54"/>
<polygon fill="#63b8ff" stroke="#63b8ff" points="1042.82,-66.23 1033.05,-70.33 1043.25,-73.22 1042.82,-66.23"/>
</a>
</g>
</g>
<!-- Node17 -->
<g id="Node000017" class="node">
<title>Node17</title>
<g id="a_Node000017"><a xlink:href="../../de/db3/utils__response_8cpp.html" target="_top" xlink:title=" ">
<polygon fill="white" stroke="#666666" points="2137,-24.5 1983,-24.5 1983,-5.5 2137,-5.5 2137,-24.5"/>
<text text-anchor="middle" x="2060" y="-12.5" font-family="Helvetica,sans-Serif" font-size="10.00">srcs/utils/utils_response.cpp</text>
</a>
</g>
</g>
<!-- Node3&#45;&gt;Node17 -->
<g id="edge17_Node000003_Node000017" class="edge">
<title>Node3&#45;&gt;Node17</title>
<g id="a_edge17_Node000003_Node000017"><a xlink:title=" ">
<path fill="none" stroke="#63b8ff" d="M1043.08,-69.59C1063.83,-68.34 1086.27,-67.06 1107,-66 1492.17,-46.4 1590.32,-69.05 1974,-30 1987.09,-28.67 2001.22,-26.62 2014.16,-24.51"/>
<polygon fill="#63b8ff" stroke="#63b8ff" points="1042.82,-66.1 1033.05,-70.2 1043.24,-73.09 1042.82,-66.1"/>
</a>
</g>
</g>
<!-- Node4&#45;&gt;Node3 -->
<g id="edge4_Node000004_Node000003" class="edge">
<title>Node4&#45;&gt;Node3</title>
<g id="a_edge4_Node000004_Node000003"><a xlink:title=" ">
<path fill="none" stroke="#63b8ff" d="M139.28,-26.12C148.93,-27.61 158.73,-28.98 168,-30 438.04,-59.86 761.25,-70.01 898.82,-73.18"/>
<polygon fill="#63b8ff" stroke="#63b8ff" points="139.74,-22.65 129.32,-24.55 138.65,-29.57 139.74,-22.65"/>
</a>
</g>
</g>
<!-- Node18&#45;&gt;Node3 -->
<g id="edge19_Node000018_Node000003" class="edge">
<title>Node18&#45;&gt;Node3</title>
<g id="a_edge19_Node000018_Node000003"><a xlink:title=" ">
<path fill="none" stroke="#63b8ff" d="M966,-110.66C966,-101.93 966,-91.99 966,-85.09"/>
<polygon fill="#63b8ff" stroke="#63b8ff" points="962.5,-110.75 966,-120.75 969.5,-110.75 962.5,-110.75"/>
</a>
</g>
</g>
<!-- Node19&#45;&gt;Node3 -->
<g id="edge21_Node000019_Node000003" class="edge">
<title>Node19&#45;&gt;Node3</title>
<g id="a_edge21_Node000019_Node000003"><a xlink:title=" ">
<path fill="none" stroke="#63b8ff" d="M1085.62,-117.67C1056.91,-107.79 1016.64,-93.93 990.94,-85.08"/>
<polygon fill="#63b8ff" stroke="#63b8ff" points="1084.66,-121.04 1095.26,-120.98 1086.94,-114.42 1084.66,-121.04"/>
</a>
</g>
</g>
<!-- Node20&#45;&gt;Node3 -->
<g id="edge23_Node000020_Node000003" class="edge">
<title>Node20&#45;&gt;Node3</title>
<g id="a_edge23_Node000020_Node000003"><a xlink:title=" ">
<path fill="none" stroke="#63b8ff" d="M1203.61,-119.19C1148.3,-109.25 1065.59,-94.39 1013.77,-85.08"/>
<polygon fill="#63b8ff" stroke="#63b8ff" points="1203.14,-122.66 1213.6,-120.98 1204.38,-115.77 1203.14,-122.66"/>
</a>
</g>
</g>
<!-- Node21 -->
<g id="Node000021" class="node">
<title>Node21</title>
<g id="a_Node000021"><a xlink:href="../../d4/dbc/autoIndex_8cpp.html" target="_top" xlink:title=" ">
<polygon fill="white" stroke="#666666" points="1276,-85 1116,-85 1116,-66 1276,-66 1276,-85"/>
<text text-anchor="middle" x="1196" y="-73" font-family="Helvetica,sans-Serif" font-size="10.00">srcs/autoindex/autoIndex.cpp</text>
</a>
</g>
</g>
<!-- Node20&#45;&gt;Node21 -->
<g id="edge24_Node000020_Node000021" class="edge">
<title>Node20&#45;&gt;Node21</title>
<g id="a_edge24_Node000020_Node000021"><a xlink:title=" ">
<path fill="none" stroke="#63b8ff" d="M1242.73,-114.6C1231.08,-105.11 1216.4,-93.13 1206.63,-85.17"/>
<polygon fill="#63b8ff" stroke="#63b8ff" points="1240.59,-117.38 1250.56,-120.98 1245.02,-111.95 1240.59,-117.38"/>
</a>
</g>
</g>
<!-- Node22 -->
<g id="Node000022" class="node">
<title>Node22</title>
<g id="a_Node000022"><a xlink:href="../../d3/df5/path__check_8cpp.html" target="_top" xlink:title=" ">
<polygon fill="white" stroke="#666666" points="1449.5,-85 1294.5,-85 1294.5,-66 1449.5,-66 1449.5,-85"/>
<text text-anchor="middle" x="1372" y="-73" font-family="Helvetica,sans-Serif" font-size="10.00">srcs/request/path_check.cpp</text>
</a>
</g>
</g>
<!-- Node20&#45;&gt;Node22 -->
<g id="edge25_Node000020_Node000022" class="edge">
<title>Node20&#45;&gt;Node22</title>
<g id="a_edge25_Node000020_Node000022"><a xlink:title=" ">
<path fill="none" stroke="#63b8ff" d="M1287.95,-116.63C1308.39,-106.87 1335.95,-93.71 1353.84,-85.17"/>
<polygon fill="#63b8ff" stroke="#63b8ff" points="1286.35,-113.52 1278.83,-120.98 1289.37,-119.83 1286.35,-113.52"/>
</a>
</g>
</g>
</g>
</svg>
