<?xml version="1.0" encoding="UTF-8" standalone="no"?>
<!DOCTYPE svg PUBLIC "-//W3C//DTD SVG 1.1//EN"
 "http://www.w3.org/Graphics/SVG/1.1/DTD/svg11.dtd">
<!-- Generated by graphviz version 2.43.0 (0)
 -->
<!-- Title: srcs/request/specific_checks.cpp Pages: 1 -->
<svg width="808pt" height="258pt"
 viewBox="0.00 0.00 808.18 258.00" xmlns="http://www.w3.org/2000/svg" xmlns:xlink="http://www.w3.org/1999/xlink">
<g id="graph0" class="graph" transform="scale(1 1) rotate(0) translate(4 254)">
<title>srcs/request/specific_checks.cpp</title>
<!-- Node1 -->
<g id="Node000001" class="node">
<title>Node1</title>
<g id="a_Node000001"><a xlink:title=" ">
<polygon fill="#999999" stroke="#666666" points="500,-250 384,-250 384,-220 500,-220 500,-250"/>
<text text-anchor="start" x="392" y="-238" font-family="Helvetica,sans-Serif" font-size="10.00">srcs/request/specific</text>
<text text-anchor="middle" x="442" y="-227" font-family="Helvetica,sans-Serif" font-size="10.00">_checks.cpp</text>
</a>
</g>
</g>
<!-- Node2 -->
<g id="Node000002" class="node">
<title>Node2</title>
<g id="a_Node000002"><a xlink:href="../../d6/d6f/request_8hpp.html" target="_top" xlink:title=" ">
<polygon fill="white" stroke="#666666" points="510,-184 374,-184 374,-165 510,-165 510,-184"/>
<text text-anchor="middle" x="442" y="-172" font-family="Helvetica,sans-Serif" font-size="10.00">../../includes/request.hpp</text>
</a>
</g>
</g>
<!-- Node1&#45;&gt;Node2 -->
<g id="edge1_Node000001_Node000002" class="edge">
<title>Node1&#45;&gt;Node2</title>
<g id="a_edge1_Node000001_Node000002"><a xlink:title=" ">
<path fill="none" stroke="#63b8ff" d="M442,-219.84C442,-212.21 442,-202.7 442,-194.45"/>
<polygon fill="#63b8ff" stroke="#63b8ff" points="445.5,-194.27 442,-184.27 438.5,-194.27 445.5,-194.27"/>
</a>
</g>
</g>
<!-- Node15 -->
<g id="Node000015" class="node">
<title>Node15</title>
<g id="a_Node000015"><a xlink:href="../../de/d3d/Server_8hpp.html" target="_top" xlink:title=" ">
<polygon fill="white" stroke="#666666" points="254,-74 186,-74 186,-55 254,-55 254,-74"/>
<text text-anchor="middle" x="220" y="-62" font-family="Helvetica,sans-Serif" font-size="10.00">Server.hpp</text>
</a>
</g>
</g>
<!-- Node1&#45;&gt;Node15 -->
<g id="edge24_Node000001_Node000015" class="edge">
<title>Node1&#45;&gt;Node15</title>
<g id="a_edge24_Node000001_Node000015"><a xlink:title=" ">
<path fill="none" stroke="#63b8ff" d="M383.99,-229.89C319.87,-221.88 219.42,-198.32 172,-129 160.13,-111.65 179.31,-92.5 196.84,-79.81"/>
<polygon fill="#63b8ff" stroke="#63b8ff" points="198.87,-82.66 205.16,-74.14 194.93,-76.88 198.87,-82.66"/>
</a>
</g>
</g>
<!-- Node19 -->
<g id="Node000019" class="node">
<title>Node19</title>
<g id="a_Node000019"><a xlink:href="../../df/d95/colors_8hpp.html" target="_top" xlink:title=" ">
<polygon fill="white" stroke="#666666" points="656,-184 528,-184 528,-165 656,-165 656,-184"/>
<text text-anchor="middle" x="592" y="-172" font-family="Helvetica,sans-Serif" font-size="10.00">../../includes/colors.hpp</text>
</a>
</g>
</g>
<!-- Node1&#45;&gt;Node19 -->
<g id="edge25_Node000001_Node000019" class="edge">
<title>Node1&#45;&gt;Node19</title>
<g id="a_edge25_Node000001_Node000019"><a xlink:title=" ">
<path fill="none" stroke="#63b8ff" d="M477.93,-219.99C503.07,-210.18 536.33,-197.21 560.45,-187.81"/>
<polygon fill="#63b8ff" stroke="#63b8ff" points="561.8,-191.03 569.85,-184.14 559.26,-184.51 561.8,-191.03"/>
</a>
</g>
</g>
<!-- Node3 -->
<g id="Node000003" class="node">
<title>Node3</title>
<g id="a_Node000003"><a xlink:title=" ">
<polygon fill="#e0e0e0" stroke="#999999" points="761.5,-129 708.5,-129 708.5,-110 761.5,-110 761.5,-129"/>
<text text-anchor="middle" x="735" y="-117" font-family="Helvetica,sans-Serif" font-size="10.00">cstddef</text>
</a>
</g>
</g>
<!-- Node2&#45;&gt;Node3 -->
<g id="edge2_Node000002_Node000003" class="edge">
<title>Node2&#45;&gt;Node3</title>
<g id="a_edge2_Node000002_Node000003"><a xlink:title=" ">
<path fill="none" stroke="#63b8ff" d="M497.82,-164.99C547.96,-157.09 623.82,-144.52 698.27,-129.26"/>
<polygon fill="#63b8ff" stroke="#63b8ff" points="699.21,-132.64 708.29,-127.18 697.79,-125.78 699.21,-132.64"/>
</a>
</g>
</g>
<!-- Node4 -->
<g id="Node000004" class="node">
<title>Node4</title>
<g id="a_Node000004"><a xlink:title=" ">
<polygon fill="#e0e0e0" stroke="#999999" points="547.5,-19 500.5,-19 500.5,0 547.5,0 547.5,-19"/>
<text text-anchor="middle" x="524" y="-7" font-family="Helvetica,sans-Serif" font-size="10.00">vector</text>
</a>
</g>
</g>
<!-- Node2&#45;&gt;Node4 -->
<g id="edge3_Node000002_Node000004" class="edge">
<title>Node2&#45;&gt;Node4</title>
<g id="a_edge3_Node000002_Node000004"><a xlink:title=" ">
<path fill="none" stroke="#63b8ff" d="M510.25,-165.4C605.37,-153.95 766.73,-133.89 771,-129 834.95,-55.82 639.47,-23.97 557.94,-14.09"/>
<polygon fill="#63b8ff" stroke="#63b8ff" points="558.03,-10.58 547.69,-12.89 557.21,-17.53 558.03,-10.58"/>
</a>
</g>
</g>
<!-- Node5 -->
<g id="Node000005" class="node">
<title>Node5</title>
<g id="a_Node000005"><a xlink:title=" ">
<polygon fill="#e0e0e0" stroke="#999999" points="392,-129 354,-129 354,-110 392,-110 392,-129"/>
<text text-anchor="middle" x="373" y="-117" font-family="Helvetica,sans-Serif" font-size="10.00">map</text>
</a>
</g>
</g>
<!-- Node2&#45;&gt;Node5 -->
<g id="edge4_Node000002_Node000005" class="edge">
<title>Node2&#45;&gt;Node5</title>
<g id="a_edge4_Node000002_Node000005"><a xlink:title=" ">
<path fill="none" stroke="#63b8ff" d="M430.91,-164.98C420.51,-157 404.74,-144.88 392.28,-135.31"/>
<polygon fill="#63b8ff" stroke="#63b8ff" points="394.35,-132.49 384.29,-129.17 390.09,-138.04 394.35,-132.49"/>
</a>
</g>
</g>
<!-- Node6 -->
<g id="Node000006" class="node">
<title>Node6</title>
<g id="a_Node000006"><a xlink:title=" ">
<polygon fill="#e0e0e0" stroke="#999999" points="781,-19 721,-19 721,0 781,0 781,-19"/>
<text text-anchor="middle" x="751" y="-7" font-family="Helvetica,sans-Serif" font-size="10.00">iostream</text>
</a>
</g>
</g>
<!-- Node2&#45;&gt;Node6 -->
<g id="edge5_Node000002_Node000006" class="edge">
<title>Node2&#45;&gt;Node6</title>
<g id="a_edge5_Node000002_Node000006"><a xlink:title=" ">
<path fill="none" stroke="#63b8ff" d="M510.04,-165.94C610.03,-154.67 785.4,-134.22 790,-129 816.11,-99.33 785.18,-51.75 765.26,-26.86"/>
<polygon fill="#63b8ff" stroke="#63b8ff" points="767.87,-24.53 758.79,-19.08 762.49,-29 767.87,-24.53"/>
</a>
</g>
</g>
<!-- Node7 -->
<g id="Node000007" class="node">
<title>Node7</title>
<g id="a_Node000007"><a xlink:title=" ">
<polygon fill="#e0e0e0" stroke="#999999" points="44,-19 0,-19 0,0 44,0 44,-19"/>
<text text-anchor="middle" x="22" y="-7" font-family="Helvetica,sans-Serif" font-size="10.00">string</text>
</a>
</g>
</g>
<!-- Node2&#45;&gt;Node7 -->
<g id="edge6_Node000002_Node000007" class="edge">
<title>Node2&#45;&gt;Node7</title>
<g id="a_edge6_Node000002_Node000007"><a xlink:title=" ">
<path fill="none" stroke="#63b8ff" d="M373.86,-171.67C317.59,-167.99 236.75,-157.6 172,-129 115.57,-104.07 62,-52.87 36.89,-26.69"/>
<polygon fill="#63b8ff" stroke="#63b8ff" points="39.18,-24.01 29.77,-19.13 34.09,-28.81 39.18,-24.01"/>
</a>
</g>
</g>
<!-- Node8 -->
<g id="Node000008" class="node">
<title>Node8</title>
<g id="a_Node000008"><a xlink:title=" ">
<polygon fill="#e0e0e0" stroke="#999999" points="322,-19 266,-19 266,0 322,0 322,-19"/>
<text text-anchor="middle" x="294" y="-7" font-family="Helvetica,sans-Serif" font-size="10.00">sstream</text>
</a>
</g>
</g>
<!-- Node2&#45;&gt;Node8 -->
<g id="edge7_Node000002_Node000008" class="edge">
<title>Node2&#45;&gt;Node8</title>
<g id="a_edge7_Node000002_Node000008"><a xlink:title=" ">
<path fill="none" stroke="#63b8ff" d="M398.73,-164.99C376.4,-158.55 350.29,-147.54 333,-129 306.87,-100.98 298.23,-55.1 295.38,-29.42"/>
<polygon fill="#63b8ff" stroke="#63b8ff" points="298.84,-28.82 294.44,-19.18 291.87,-29.46 298.84,-28.82"/>
</a>
</g>
</g>
<!-- Node9 -->
<g id="Node000009" class="node">
<title>Node9</title>
<g id="a_Node000009"><a xlink:title=" ">
<polygon fill="#e0e0e0" stroke="#999999" points="474,-129 410,-129 410,-110 474,-110 474,-129"/>
<text text-anchor="middle" x="442" y="-117" font-family="Helvetica,sans-Serif" font-size="10.00">algorithm</text>
</a>
</g>
</g>
<!-- Node2&#45;&gt;Node9 -->
<g id="edge8_Node000002_Node000009" class="edge">
<title>Node2&#45;&gt;Node9</title>
<g id="a_edge8_Node000002_Node000009"><a xlink:title=" ">
<path fill="none" stroke="#63b8ff" d="M442,-164.75C442,-157.8 442,-147.85 442,-139.13"/>
<polygon fill="#63b8ff" stroke="#63b8ff" points="445.5,-139.09 442,-129.09 438.5,-139.09 445.5,-139.09"/>
</a>
</g>
</g>
<!-- Node10 -->
<g id="Node000010" class="node">
<title>Node10</title>
<g id="a_Node000010"><a xlink:title=" ">
<polygon fill="#e0e0e0" stroke="#999999" points="546,-129 492,-129 492,-110 546,-110 546,-129"/>
<text text-anchor="middle" x="519" y="-117" font-family="Helvetica,sans-Serif" font-size="10.00">dirent.h</text>
</a>
</g>
</g>
<!-- Node2&#45;&gt;Node10 -->
<g id="edge9_Node000002_Node000010" class="edge">
<title>Node2&#45;&gt;Node10</title>
<g id="a_edge9_Node000002_Node000010"><a xlink:title=" ">
<path fill="none" stroke="#63b8ff" d="M454.37,-164.98C466.09,-156.92 483.92,-144.65 497.89,-135.03"/>
<polygon fill="#63b8ff" stroke="#63b8ff" points="500.15,-137.72 506.4,-129.17 496.18,-131.96 500.15,-137.72"/>
</a>
</g>
</g>
<!-- Node11 -->
<g id="Node000011" class="node">
<title>Node11</title>
<g id="a_Node000011"><a xlink:title=" ">
<polygon fill="#e0e0e0" stroke="#999999" points="619.5,-129 564.5,-129 564.5,-110 619.5,-110 619.5,-129"/>
<text text-anchor="middle" x="592" y="-117" font-family="Helvetica,sans-Serif" font-size="10.00">fstream</text>
</a>
</g>
</g>
<!-- Node2&#45;&gt;Node11 -->
<g id="edge10_Node000002_Node000011" class="edge">
<title>Node2&#45;&gt;Node11</title>
<g id="a_edge10_Node000002_Node000011"><a xlink:title=" ">
<path fill="none" stroke="#63b8ff" d="M466.1,-164.98C490.88,-156.23 529.7,-142.51 557.69,-132.62"/>
<polygon fill="#63b8ff" stroke="#63b8ff" points="559.2,-135.8 567.46,-129.17 556.87,-129.2 559.2,-135.8"/>
</a>
</g>
</g>
<!-- Node12 -->
<g id="Node000012" class="node">
<title>Node12</title>
<g id="a_Node000012"><a xlink:title=" ">
<polygon fill="#e0e0e0" stroke="#999999" points="690.5,-129 637.5,-129 637.5,-110 690.5,-110 690.5,-129"/>
<text text-anchor="middle" x="664" y="-117" font-family="Helvetica,sans-Serif" font-size="10.00">limits.h</text>
</a>
</g>
</g>
<!-- Node2&#45;&gt;Node12 -->
<g id="edge11_Node000002_Node000012" class="edge">
<title>Node2&#45;&gt;Node12</title>
<g id="a_edge11_Node000002_Node000012"><a xlink:title=" ">
<path fill="none" stroke="#63b8ff" d="M478.21,-164.94C513.83,-156.5 570.03,-143.16 627.3,-129.4"/>
<polygon fill="#63b8ff" stroke="#63b8ff" points="628.34,-132.75 637.25,-127.01 626.71,-125.94 628.34,-132.75"/>
</a>
</g>
</g>
<!-- Node13 -->
<g id="Node000013" class="node">
<title>Node13</title>
<g id="a_Node000013"><a xlink:title=" ">
<polygon fill="#e0e0e0" stroke="#999999" points="404,-19 340,-19 340,0 404,0 404,-19"/>
<text text-anchor="middle" x="372" y="-7" font-family="Helvetica,sans-Serif" font-size="10.00">sys/stat.h</text>
</a>
</g>
</g>
<!-- Node2&#45;&gt;Node13 -->
<g id="edge12_Node000002_Node000013" class="edge">
<title>Node2&#45;&gt;Node13</title>
<g id="a_edge12_Node000002_Node000013"><a xlink:title=" ">
<path fill="none" stroke="#63b8ff" d="M398.87,-164.93C378.88,-158.57 356.95,-147.64 345,-129 324.68,-97.33 345.77,-52.28 360.44,-27.86"/>
<polygon fill="#63b8ff" stroke="#63b8ff" points="363.46,-29.63 365.83,-19.3 357.54,-25.9 363.46,-29.63"/>
</a>
</g>
</g>
<!-- Node14 -->
<g id="Node000014" class="node">
<title>Node14</title>
<g id="a_Node000014"><a xlink:href="../../d7/d2f/Location_8hpp.html" target="_top" xlink:title=" ">
<polygon fill="white" stroke="#666666" points="259.5,-129 180.5,-129 180.5,-110 259.5,-110 259.5,-129"/>
<text text-anchor="middle" x="220" y="-117" font-family="Helvetica,sans-Serif" font-size="10.00">Location.hpp</text>
</a>
</g>
</g>
<!-- Node2&#45;&gt;Node14 -->
<g id="edge13_Node000002_Node000014" class="edge">
<title>Node2&#45;&gt;Node14</title>
<g id="a_edge13_Node000002_Node000014"><a xlink:title=" ">
<path fill="none" stroke="#63b8ff" d="M406.33,-164.98C368.17,-155.87 307.53,-141.4 265.85,-131.45"/>
<polygon fill="#63b8ff" stroke="#63b8ff" points="266.49,-128 255.95,-129.08 264.86,-134.81 266.49,-128"/>
</a>
</g>
</g>
<!-- Node14&#45;&gt;Node15 -->
<g id="edge14_Node000014_Node000015" class="edge">
<title>Node14&#45;&gt;Node15</title>
<g id="a_edge14_Node000014_Node000015"><a xlink:title=" ">
<path fill="none" stroke="#63b8ff" d="M214.83,-109.75C213.34,-102.8 212.9,-92.85 213.52,-84.13"/>
<polygon fill="#63b8ff" stroke="#63b8ff" points="217.01,-84.47 214.87,-74.09 210.07,-83.53 217.01,-84.47"/>
</a>
</g>
</g>
<!-- Node15&#45;&gt;Node4 -->
<g id="edge20_Node000015_Node000004" class="edge">
<title>Node15&#45;&gt;Node4</title>
<g id="a_edge20_Node000015_Node000004"><a xlink:title=" ">
<path fill="none" stroke="#63b8ff" d="M254.28,-57.52C312.9,-47.3 431.71,-26.59 490.08,-16.41"/>
<polygon fill="#63b8ff" stroke="#63b8ff" points="491,-19.81 500.25,-14.64 489.79,-12.91 491,-19.81"/>
</a>
</g>
</g>
<!-- Node15&#45;&gt;Node6 -->
<g id="edge15_Node000015_Node000006" class="edge">
<title>Node15&#45;&gt;Node6</title>
<g id="a_edge15_Node000015_Node000006"><a xlink:title=" ">
<path fill="none" stroke="#63b8ff" d="M254.02,-60.1C347.87,-50.74 610.09,-24.56 710.85,-14.51"/>
<polygon fill="#63b8ff" stroke="#63b8ff" points="711.33,-17.98 720.93,-13.5 710.63,-11.01 711.33,-17.98"/>
</a>
</g>
</g>
<!-- Node15&#45;&gt;Node7 -->
<g id="edge16_Node000015_Node000007" class="edge">
<title>Node15&#45;&gt;Node7</title>
<g id="a_edge16_Node000015_Node000007"><a xlink:title=" ">
<path fill="none" stroke="#63b8ff" d="M187.65,-54.95C155.97,-46.57 106.06,-33.31 53.79,-19.2"/>
<polygon fill="#63b8ff" stroke="#63b8ff" points="54.58,-15.79 44.01,-16.56 52.75,-22.54 54.58,-15.79"/>
</a>
</g>
</g>
<!-- Node15&#45;&gt;Node8 -->
<g id="edge18_Node000015_Node000008" class="edge">
<title>Node15&#45;&gt;Node8</title>
<g id="a_edge18_Node000015_Node000008"><a xlink:title=" ">
<path fill="none" stroke="#63b8ff" d="M231.89,-54.98C243.15,-46.92 260.29,-34.65 273.71,-25.03"/>
<polygon fill="#63b8ff" stroke="#63b8ff" points="275.8,-27.84 281.89,-19.17 271.73,-22.15 275.8,-27.84"/>
</a>
</g>
</g>
<!-- Node15&#45;&gt;Node13 -->
<g id="edge21_Node000015_Node000013" class="edge">
<title>Node15&#45;&gt;Node13</title>
<g id="a_edge21_Node000015_Node000013"><a xlink:title=" ">
<path fill="none" stroke="#63b8ff" d="M244.42,-54.98C269.72,-46.16 309.45,-32.31 337.86,-22.41"/>
<polygon fill="#63b8ff" stroke="#63b8ff" points="339.1,-25.68 347.39,-19.08 336.79,-19.07 339.1,-25.68"/>
</a>
</g>
</g>
<!-- Node15&#45;&gt;Node14 -->
<g id="edge23_Node000015_Node000014" class="edge">
<title>Node15&#45;&gt;Node14</title>
<g id="a_edge23_Node000015_Node000014"><a xlink:title=" ">
<path fill="none" stroke="#63b8ff" d="M225.13,-74.09C226.64,-80.99 227.09,-90.93 226.49,-99.66"/>
<polygon fill="#63b8ff" stroke="#63b8ff" points="223,-99.38 225.17,-109.75 229.94,-100.29 223,-99.38"/>
</a>
</g>
</g>
<!-- Node16 -->
<g id="Node000016" class="node">
<title>Node16</title>
<g id="a_Node000016"><a xlink:title=" ">
<polygon fill="#e0e0e0" stroke="#999999" points="106,-19 62,-19 62,0 106,0 106,-19"/>
<text text-anchor="middle" x="84" y="-7" font-family="Helvetica,sans-Serif" font-size="10.00">limits</text>
</a>
</g>
</g>
<!-- Node15&#45;&gt;Node16 -->
<g id="edge17_Node000015_Node000016" class="edge">
<title>Node15&#45;&gt;Node16</title>
<g id="a_edge17_Node000015_Node000016"><a xlink:title=" ">
<path fill="none" stroke="#63b8ff" d="M198.15,-54.98C175.88,-46.3 141.1,-32.75 115.78,-22.88"/>
<polygon fill="#63b8ff" stroke="#63b8ff" points="116.84,-19.54 106.25,-19.17 114.29,-26.06 116.84,-19.54"/>
</a>
</g>
</g>
<!-- Node17 -->
<g id="Node000017" class="node">
<title>Node17</title>
<g id="a_Node000017"><a xlink:title=" ">
<polygon fill="#e0e0e0" stroke="#999999" points="173.5,-19 124.5,-19 124.5,0 173.5,0 173.5,-19"/>
<text text-anchor="middle" x="149" y="-7" font-family="Helvetica,sans-Serif" font-size="10.00">cstdlib</text>
</a>
</g>
</g>
<!-- Node15&#45;&gt;Node17 -->
<g id="edge19_Node000015_Node000017" class="edge">
<title>Node15&#45;&gt;Node17</title>
<g id="a_edge19_Node000015_Node000017"><a xlink:title=" ">
<path fill="none" stroke="#63b8ff" d="M208.59,-54.98C197.89,-47 181.66,-34.88 168.84,-25.31"/>
<polygon fill="#63b8ff" stroke="#63b8ff" points="170.72,-22.35 160.61,-19.17 166.53,-27.96 170.72,-22.35"/>
</a>
</g>
</g>
<!-- Node18 -->
<g id="Node000018" class="node">
<title>Node18</title>
<g id="a_Node000018"><a xlink:title=" ">
<polygon fill="#e0e0e0" stroke="#999999" points="248,-19 192,-19 192,0 248,0 248,-19"/>
<text text-anchor="middle" x="220" y="-7" font-family="Helvetica,sans-Serif" font-size="10.00">unistd.h</text>
</a>
</g>
</g>
<!-- Node15&#45;&gt;Node18 -->
<g id="edge22_Node000015_Node000018" class="edge">
<title>Node15&#45;&gt;Node18</title>
<g id="a_edge22_Node000015_Node000018"><a xlink:title=" ">
<path fill="none" stroke="#63b8ff" d="M220,-54.75C220,-47.8 220,-37.85 220,-29.13"/>
<polygon fill="#63b8ff" stroke="#63b8ff" points="223.5,-29.09 220,-19.09 216.5,-29.09 223.5,-29.09"/>
</a>
</g>
</g>
</g>
</svg>
