<?xml version="1.0" encoding="UTF-8" standalone="no"?>
<!DOCTYPE svg PUBLIC "-//W3C//DTD SVG 1.1//EN"
 "http://www.w3.org/Graphics/SVG/1.1/DTD/svg11.dtd">
<!-- Generated by graphviz version 2.43.0 (0)
 -->
<!-- Title: srcs/error_handling/ResponseMessage.cpp Pages: 1 -->
<svg width="653pt" height="203pt"
 viewBox="0.00 0.00 653.00 203.00" xmlns="http://www.w3.org/2000/svg" xmlns:xlink="http://www.w3.org/1999/xlink">
<g id="graph0" class="graph" transform="scale(1 1) rotate(0) translate(4 199)">
<title>srcs/error_handling/ResponseMessage.cpp</title>
<!-- Node1 -->
<g id="Node000001" class="node">
<title>Node1</title>
<g id="a_Node000001"><a xlink:title=" ">
<polygon fill="#999999" stroke="#666666" points="456.5,-195 325.5,-195 325.5,-165 456.5,-165 456.5,-195"/>
<text text-anchor="start" x="333.5" y="-183" font-family="Helvetica,sans-Serif" font-size="10.00">srcs/error_handling</text>
<text text-anchor="middle" x="391" y="-172" font-family="Helvetica,sans-Serif" font-size="10.00">/ResponseMessage.cpp</text>
</a>
</g>
</g>
<!-- Node2 -->
<g id="Node000002" class="node">
<title>Node2</title>
<g id="a_Node000002"><a xlink:href="../../d7/d0e/ResponseMessage_8hpp.html" target="_top" xlink:title=" ">
<polygon fill="white" stroke="#666666" points="417,-129 227,-129 227,-110 417,-110 417,-129"/>
<text text-anchor="middle" x="322" y="-117" font-family="Helvetica,sans-Serif" font-size="10.00">../../includes/ResponseMessage.hpp</text>
</a>
</g>
</g>
<!-- Node1&#45;&gt;Node2 -->
<g id="edge1_Node000001_Node000002" class="edge">
<title>Node1&#45;&gt;Node2</title>
<g id="a_edge1_Node000001_Node000002"><a xlink:title=" ">
<path fill="none" stroke="#63b8ff" d="M374.3,-164.84C363.97,-156.09 350.72,-144.85 340.14,-135.88"/>
<polygon fill="#63b8ff" stroke="#63b8ff" points="342.23,-133.06 332.34,-129.27 337.7,-138.4 342.23,-133.06"/>
</a>
</g>
</g>
<!-- Node5 -->
<g id="Node000005" class="node">
<title>Node5</title>
<g id="a_Node000005"><a xlink:title=" ">
<polygon fill="#e0e0e0" stroke="#999999" points="44,-19 0,-19 0,0 44,0 44,-19"/>
<text text-anchor="middle" x="22" y="-7" font-family="Helvetica,sans-Serif" font-size="10.00">string</text>
</a>
</g>
</g>
<!-- Node1&#45;&gt;Node5 -->
<g id="edge21_Node000001_Node000005" class="edge">
<title>Node1&#45;&gt;Node5</title>
<g id="a_edge21_Node000001_Node000005"><a xlink:title=" ">
<path fill="none" stroke="#63b8ff" d="M332.02,-164.92C298.13,-156.1 255.07,-143.64 218,-129 167.9,-109.21 155.98,-102.07 110,-74 85.21,-58.87 58.37,-38.94 40.94,-25.47"/>
<polygon fill="#63b8ff" stroke="#63b8ff" points="42.78,-22.47 32.74,-19.08 38.47,-27.99 42.78,-22.47"/>
</a>
</g>
</g>
<!-- Node17 -->
<g id="Node000017" class="node">
<title>Node17</title>
<g id="a_Node000017"><a xlink:title=" ">
<polygon fill="#e0e0e0" stroke="#999999" points="485,-129 435,-129 435,-110 485,-110 485,-129"/>
<text text-anchor="middle" x="460" y="-117" font-family="Helvetica,sans-Serif" font-size="10.00">cstring</text>
</a>
</g>
</g>
<!-- Node1&#45;&gt;Node17 -->
<g id="edge20_Node000001_Node000017" class="edge">
<title>Node1&#45;&gt;Node17</title>
<g id="a_edge20_Node000001_Node000017"><a xlink:title=" ">
<path fill="none" stroke="#63b8ff" d="M407.7,-164.84C418.03,-156.09 431.28,-144.85 441.86,-135.88"/>
<polygon fill="#63b8ff" stroke="#63b8ff" points="444.3,-138.4 449.66,-129.27 439.77,-133.06 444.3,-138.4"/>
</a>
</g>
</g>
<!-- Node18 -->
<g id="Node000018" class="node">
<title>Node18</title>
<g id="a_Node000018"><a xlink:title=" ">
<polygon fill="#e0e0e0" stroke="#999999" points="580.5,-129 503.5,-129 503.5,-110 580.5,-110 580.5,-129"/>
<text text-anchor="middle" x="542" y="-117" font-family="Helvetica,sans-Serif" font-size="10.00">sys/socket.h</text>
</a>
</g>
</g>
<!-- Node1&#45;&gt;Node18 -->
<g id="edge22_Node000001_Node000018" class="edge">
<title>Node1&#45;&gt;Node18</title>
<g id="a_edge22_Node000001_Node000018"><a xlink:title=" ">
<path fill="none" stroke="#63b8ff" d="M427.17,-164.99C452.47,-155.18 485.96,-142.21 510.24,-132.81"/>
<polygon fill="#63b8ff" stroke="#63b8ff" points="511.64,-136.02 519.7,-129.14 509.11,-129.49 511.64,-136.02"/>
</a>
</g>
</g>
<!-- Node3 -->
<g id="Node000003" class="node">
<title>Node3</title>
<g id="a_Node000003"><a xlink:href="../../de/d3d/Server_8hpp.html" target="_top" xlink:title=" ">
<polygon fill="white" stroke="#666666" points="276,-74 208,-74 208,-55 276,-55 276,-74"/>
<text text-anchor="middle" x="242" y="-62" font-family="Helvetica,sans-Serif" font-size="10.00">Server.hpp</text>
</a>
</g>
</g>
<!-- Node2&#45;&gt;Node3 -->
<g id="edge2_Node000002_Node000003" class="edge">
<title>Node2&#45;&gt;Node3</title>
<g id="a_edge2_Node000002_Node000003"><a xlink:title=" ">
<path fill="none" stroke="#63b8ff" d="M309.15,-109.98C296.86,-101.84 278.09,-89.41 263.52,-79.76"/>
<polygon fill="#63b8ff" stroke="#63b8ff" points="265.36,-76.78 255.09,-74.17 261.49,-82.61 265.36,-76.78"/>
</a>
</g>
</g>
<!-- Node4 -->
<g id="Node000004" class="node">
<title>Node4</title>
<g id="a_Node000004"><a xlink:title=" ">
<polygon fill="#e0e0e0" stroke="#999999" points="645,-19 585,-19 585,0 645,0 645,-19"/>
<text text-anchor="middle" x="615" y="-7" font-family="Helvetica,sans-Serif" font-size="10.00">iostream</text>
</a>
</g>
</g>
<!-- Node2&#45;&gt;Node4 -->
<g id="edge13_Node000002_Node000004" class="edge">
<title>Node2&#45;&gt;Node4</title>
<g id="a_edge13_Node000002_Node000004"><a xlink:title=" ">
<path fill="none" stroke="#63b8ff" d="M412.66,-109.99C473.42,-102.88 546.92,-91.12 573,-74 589.54,-63.14 601.09,-43.28 607.84,-28.64"/>
<polygon fill="#63b8ff" stroke="#63b8ff" points="611.2,-29.69 611.91,-19.12 604.76,-26.94 611.2,-29.69"/>
</a>
</g>
</g>
<!-- Node2&#45;&gt;Node5 -->
<g id="edge18_Node000002_Node000005" class="edge">
<title>Node2&#45;&gt;Node5</title>
<g id="a_edge18_Node000002_Node000005"><a xlink:title=" ">
<path fill="none" stroke="#63b8ff" d="M284.71,-109.98C251.74,-102.02 202.56,-89.13 161,-74 120.41,-59.23 75.23,-37.56 47.71,-23.75"/>
<polygon fill="#63b8ff" stroke="#63b8ff" points="49.26,-20.6 38.75,-19.21 46.1,-26.85 49.26,-20.6"/>
</a>
</g>
</g>
<!-- Node7 -->
<g id="Node000007" class="node">
<title>Node7</title>
<g id="a_Node000007"><a xlink:title=" ">
<polygon fill="#e0e0e0" stroke="#999999" points="118,-19 62,-19 62,0 118,0 118,-19"/>
<text text-anchor="middle" x="90" y="-7" font-family="Helvetica,sans-Serif" font-size="10.00">sstream</text>
</a>
</g>
</g>
<!-- Node2&#45;&gt;Node7 -->
<g id="edge14_Node000002_Node000007" class="edge">
<title>Node2&#45;&gt;Node7</title>
<g id="a_edge14_Node000002_Node000007"><a xlink:title=" ">
<path fill="none" stroke="#63b8ff" d="M294.07,-109.99C268.76,-101.91 230.68,-88.81 199,-74 167.55,-59.3 133.25,-38.45 111.69,-24.71"/>
<polygon fill="#63b8ff" stroke="#63b8ff" points="113.31,-21.59 103.01,-19.12 109.52,-27.47 113.31,-21.59"/>
</a>
</g>
</g>
<!-- Node13 -->
<g id="Node000013" class="node">
<title>Node13</title>
<g id="a_Node000013"><a xlink:title=" ">
<polygon fill="#e0e0e0" stroke="#999999" points="349.5,-74 294.5,-74 294.5,-55 349.5,-55 349.5,-74"/>
<text text-anchor="middle" x="322" y="-62" font-family="Helvetica,sans-Serif" font-size="10.00">fstream</text>
</a>
</g>
</g>
<!-- Node2&#45;&gt;Node13 -->
<g id="edge15_Node000002_Node000013" class="edge">
<title>Node2&#45;&gt;Node13</title>
<g id="a_edge15_Node000002_Node000013"><a xlink:title=" ">
<path fill="none" stroke="#63b8ff" d="M322,-109.75C322,-102.8 322,-92.85 322,-84.13"/>
<polygon fill="#63b8ff" stroke="#63b8ff" points="325.5,-84.09 322,-74.09 318.5,-84.09 325.5,-84.09"/>
</a>
</g>
</g>
<!-- Node14 -->
<g id="Node000014" class="node">
<title>Node14</title>
<g id="a_Node000014"><a xlink:title=" ">
<polygon fill="#e0e0e0" stroke="#999999" points="426,-74 368,-74 368,-55 426,-55 426,-74"/>
<text text-anchor="middle" x="397" y="-62" font-family="Helvetica,sans-Serif" font-size="10.00">memory</text>
</a>
</g>
</g>
<!-- Node2&#45;&gt;Node14 -->
<g id="edge16_Node000002_Node000014" class="edge">
<title>Node2&#45;&gt;Node14</title>
<g id="a_edge16_Node000002_Node000014"><a xlink:title=" ">
<path fill="none" stroke="#63b8ff" d="M334.05,-109.98C345.46,-101.92 362.83,-89.65 376.43,-80.03"/>
<polygon fill="#63b8ff" stroke="#63b8ff" points="378.58,-82.8 384.73,-74.17 374.54,-77.08 378.58,-82.8"/>
</a>
</g>
</g>
<!-- Node15 -->
<g id="Node000015" class="node">
<title>Node15</title>
<g id="a_Node000015"><a xlink:title=" ">
<polygon fill="#e0e0e0" stroke="#999999" points="482,-74 444,-74 444,-55 482,-55 482,-74"/>
<text text-anchor="middle" x="463" y="-62" font-family="Helvetica,sans-Serif" font-size="10.00">map</text>
</a>
</g>
</g>
<!-- Node2&#45;&gt;Node15 -->
<g id="edge17_Node000002_Node000015" class="edge">
<title>Node2&#45;&gt;Node15</title>
<g id="a_edge17_Node000002_Node000015"><a xlink:title=" ">
<path fill="none" stroke="#63b8ff" d="M344.65,-109.98C368.95,-100.85 407.61,-86.32 434.08,-76.37"/>
<polygon fill="#63b8ff" stroke="#63b8ff" points="435.45,-79.59 443.58,-72.8 432.99,-73.04 435.45,-79.59"/>
</a>
</g>
</g>
<!-- Node16 -->
<g id="Node000016" class="node">
<title>Node16</title>
<g id="a_Node000016"><a xlink:title=" ">
<polygon fill="#e0e0e0" stroke="#999999" points="564,-74 500,-74 500,-55 564,-55 564,-74"/>
<text text-anchor="middle" x="532" y="-62" font-family="Helvetica,sans-Serif" font-size="10.00">algorithm</text>
</a>
</g>
</g>
<!-- Node2&#45;&gt;Node16 -->
<g id="edge19_Node000002_Node000016" class="edge">
<title>Node2&#45;&gt;Node16</title>
<g id="a_edge19_Node000002_Node000016"><a xlink:title=" ">
<path fill="none" stroke="#63b8ff" d="M355.74,-109.98C392.22,-100.78 450.42,-86.09 489.87,-76.13"/>
<polygon fill="#63b8ff" stroke="#63b8ff" points="490.88,-79.49 499.72,-73.65 489.17,-72.7 490.88,-79.49"/>
</a>
</g>
</g>
<!-- Node3&#45;&gt;Node4 -->
<g id="edge3_Node000003_Node000004" class="edge">
<title>Node3&#45;&gt;Node4</title>
<g id="a_edge3_Node000003_Node000004"><a xlink:title=" ">
<path fill="none" stroke="#63b8ff" d="M276.07,-56.68C279.42,-56.08 282.77,-55.51 286,-55 411.02,-35.19 446.2,-40.55 574.59,-19.09"/>
<polygon fill="#63b8ff" stroke="#63b8ff" points="575.54,-22.48 584.82,-17.36 574.38,-15.58 575.54,-22.48"/>
</a>
</g>
</g>
<!-- Node3&#45;&gt;Node5 -->
<g id="edge4_Node000003_Node000005" class="edge">
<title>Node3&#45;&gt;Node5</title>
<g id="a_edge4_Node000003_Node000005"><a xlink:title=" ">
<path fill="none" stroke="#63b8ff" d="M207.77,-55.83C171.83,-47.7 113.47,-34.24 54.22,-19.24"/>
<polygon fill="#63b8ff" stroke="#63b8ff" points="54.88,-15.8 44.33,-16.73 53.15,-22.58 54.88,-15.8"/>
</a>
</g>
</g>
<!-- Node6 -->
<g id="Node000006" class="node">
<title>Node6</title>
<g id="a_Node000006"><a xlink:title=" ">
<polygon fill="#e0e0e0" stroke="#999999" points="499,-19 455,-19 455,0 499,0 499,-19"/>
<text text-anchor="middle" x="477" y="-7" font-family="Helvetica,sans-Serif" font-size="10.00">limits</text>
</a>
</g>
</g>
<!-- Node3&#45;&gt;Node6 -->
<g id="edge5_Node000003_Node000006" class="edge">
<title>Node3&#45;&gt;Node6</title>
<g id="a_edge5_Node000003_Node000006"><a xlink:title=" ">
<path fill="none" stroke="#63b8ff" d="M276.25,-56.75C315.08,-48.94 380.5,-35.34 444.86,-19.43"/>
<polygon fill="#63b8ff" stroke="#63b8ff" points="445.9,-22.78 454.76,-16.97 444.21,-15.99 445.9,-22.78"/>
</a>
</g>
</g>
<!-- Node3&#45;&gt;Node7 -->
<g id="edge6_Node000003_Node000007" class="edge">
<title>Node3&#45;&gt;Node7</title>
<g id="a_edge6_Node000003_Node000007"><a xlink:title=" ">
<path fill="none" stroke="#63b8ff" d="M217.58,-54.98C192.28,-46.16 152.55,-32.31 124.14,-22.41"/>
<polygon fill="#63b8ff" stroke="#63b8ff" points="125.21,-19.07 114.61,-19.08 122.9,-25.68 125.21,-19.07"/>
</a>
</g>
</g>
<!-- Node8 -->
<g id="Node000008" class="node">
<title>Node8</title>
<g id="a_Node000008"><a xlink:title=" ">
<polygon fill="#e0e0e0" stroke="#999999" points="566.5,-19 517.5,-19 517.5,0 566.5,0 566.5,-19"/>
<text text-anchor="middle" x="542" y="-7" font-family="Helvetica,sans-Serif" font-size="10.00">cstdlib</text>
</a>
</g>
</g>
<!-- Node3&#45;&gt;Node8 -->
<g id="edge7_Node000003_Node000008" class="edge">
<title>Node3&#45;&gt;Node8</title>
<g id="a_edge7_Node000003_Node000008"><a xlink:title=" ">
<path fill="none" stroke="#63b8ff" d="M276.09,-56.81C279.44,-56.18 282.78,-55.57 286,-55 381.34,-38.06 408.42,-39.06 507.37,-18.97"/>
<polygon fill="#63b8ff" stroke="#63b8ff" points="508.08,-22.4 517.17,-16.96 506.67,-15.54 508.08,-22.4"/>
</a>
</g>
</g>
<!-- Node9 -->
<g id="Node000009" class="node">
<title>Node9</title>
<g id="a_Node000009"><a xlink:title=" ">
<polygon fill="#e0e0e0" stroke="#999999" points="183.5,-19 136.5,-19 136.5,0 183.5,0 183.5,-19"/>
<text text-anchor="middle" x="160" y="-7" font-family="Helvetica,sans-Serif" font-size="10.00">vector</text>
</a>
</g>
</g>
<!-- Node3&#45;&gt;Node9 -->
<g id="edge8_Node000003_Node000009" class="edge">
<title>Node3&#45;&gt;Node9</title>
<g id="a_edge8_Node000003_Node000009"><a xlink:title=" ">
<path fill="none" stroke="#63b8ff" d="M228.83,-54.98C216.23,-46.84 197,-34.41 182.06,-24.76"/>
<polygon fill="#63b8ff" stroke="#63b8ff" points="183.71,-21.66 173.41,-19.17 179.91,-27.54 183.71,-21.66"/>
</a>
</g>
</g>
<!-- Node10 -->
<g id="Node000010" class="node">
<title>Node10</title>
<g id="a_Node000010"><a xlink:title=" ">
<polygon fill="#e0e0e0" stroke="#999999" points="266,-19 202,-19 202,0 266,0 266,-19"/>
<text text-anchor="middle" x="234" y="-7" font-family="Helvetica,sans-Serif" font-size="10.00">sys/stat.h</text>
</a>
</g>
</g>
<!-- Node3&#45;&gt;Node10 -->
<g id="edge9_Node000003_Node000010" class="edge">
<title>Node3&#45;&gt;Node10</title>
<g id="a_edge9_Node000003_Node000010"><a xlink:title=" ">
<path fill="none" stroke="#63b8ff" d="M240.68,-54.75C239.63,-47.8 238.13,-37.85 236.81,-29.13"/>
<polygon fill="#63b8ff" stroke="#63b8ff" points="240.25,-28.45 235.3,-19.09 233.33,-29.5 240.25,-28.45"/>
</a>
</g>
</g>
<!-- Node11 -->
<g id="Node000011" class="node">
<title>Node11</title>
<g id="a_Node000011"><a xlink:title=" ">
<polygon fill="#e0e0e0" stroke="#999999" points="340,-19 284,-19 284,0 340,0 340,-19"/>
<text text-anchor="middle" x="312" y="-7" font-family="Helvetica,sans-Serif" font-size="10.00">unistd.h</text>
</a>
</g>
</g>
<!-- Node3&#45;&gt;Node11 -->
<g id="edge10_Node000003_Node000011" class="edge">
<title>Node3&#45;&gt;Node11</title>
<g id="a_edge10_Node000003_Node000011"><a xlink:title=" ">
<path fill="none" stroke="#63b8ff" d="M253.25,-54.98C263.8,-47 279.8,-34.88 292.44,-25.31"/>
<polygon fill="#63b8ff" stroke="#63b8ff" points="294.69,-28 300.55,-19.17 290.46,-22.42 294.69,-28"/>
</a>
</g>
</g>
<!-- Node12 -->
<g id="Node000012" class="node">
<title>Node12</title>
<g id="a_Node000012"><a xlink:href="../../d7/d2f/Location_8hpp.html" target="_top" xlink:title=" ">
<polygon fill="white" stroke="#666666" points="437.5,-19 358.5,-19 358.5,0 437.5,0 437.5,-19"/>
<text text-anchor="middle" x="398" y="-7" font-family="Helvetica,sans-Serif" font-size="10.00">Location.hpp</text>
</a>
</g>
</g>
<!-- Node3&#45;&gt;Node12 -->
<g id="edge11_Node000003_Node000012" class="edge">
<title>Node3&#45;&gt;Node12</title>
<g id="a_edge11_Node000003_Node000012"><a xlink:title=" ">
<path fill="none" stroke="#63b8ff" d="M261.95,-54.98C286.18,-46.09 327.25,-32.07 358.02,-22.15"/>
<polygon fill="#63b8ff" stroke="#63b8ff" points="359.15,-25.46 367.61,-19.08 357.02,-18.79 359.15,-25.46"/>
</a>
</g>
</g>
<!-- Node12&#45;&gt;Node3 -->
<g id="edge12_Node000012_Node000003" class="edge">
<title>Node12&#45;&gt;Node3</title>
<g id="a_edge12_Node000012_Node000003"><a xlink:title=" ">
<path fill="none" stroke="#63b8ff" d="M377.63,-19.17C353.28,-28.1 312.34,-42.07 281.72,-51.94"/>
<polygon fill="#63b8ff" stroke="#63b8ff" points="280.64,-48.61 272.18,-54.98 282.77,-55.28 280.64,-48.61"/>
</a>
</g>
</g>
</g>
</svg>
